M48
; DRILL file {KiCad (6.0.6)} date Fri Dec  2 12:38:07 2022
; FORMAT={-:-/ absolute / inch / decimal}
; #@! TF.CreationDate,2022-12-02T12:38:07-05:00
; #@! TF.GenerationSoftware,Kicad,Pcbnew,(6.0.6)
; #@! TF.FileFunction,Plated,1,2,PTH
FMAT,2
INCH
; #@! TA.AperFunction,Plated,PTH,ComponentDrill
T1C0.0079
; #@! TA.AperFunction,Plated,PTH,ComponentDrill
T2C0.0118
; #@! TA.AperFunction,Plated,PTH,ViaDrill
T3C0.0157
; #@! TA.AperFunction,Plated,PTH,ComponentDrill
T4C0.0394
%
G90
G05
T1
X2.1616Y-1.7616
X2.1616Y-1.8
X2.1616Y-1.8384
X2.2Y-1.7616
X2.2Y-1.8
X2.2Y-1.8384
X2.2384Y-1.7616
X2.2384Y-1.8
X2.2384Y-1.8384
T2
X2.1071Y-2.7844
X2.1071Y-2.8316
X2.1504Y-2.7844
X2.1504Y-2.8316
X2.2016Y-2.7844
X2.2016Y-2.8316
X2.2489Y-2.7844
X2.2489Y-2.8316
T3
X1.49Y-1.688
X1.49Y-1.758
X1.49Y-1.828
X1.49Y-1.898
X1.548Y-1.688
X1.548Y-1.758
X1.548Y-1.828
X1.548Y-1.898
X1.602Y-1.688
X1.602Y-1.758
X1.602Y-1.828
X1.602Y-1.898
X1.66Y-1.688
X1.66Y-1.758
X1.66Y-1.828
X1.66Y-1.898
X1.818Y-2.414
X1.818Y-2.484
X1.818Y-2.554
X1.818Y-2.624
X1.858Y-1.272
X1.858Y-1.33
X1.858Y-1.378
X1.858Y-1.436
X1.876Y-2.414
X1.876Y-2.484
X1.876Y-2.554
X1.876Y-2.624
X1.928Y-1.272
X1.928Y-1.33
X1.928Y-1.378
X1.928Y-1.436
X1.93Y-2.414
X1.93Y-2.484
X1.93Y-2.554
X1.93Y-2.624
X1.988Y-2.414
X1.988Y-2.484
X1.988Y-2.554
X1.988Y-2.624
X1.998Y-1.272
X1.998Y-1.33
X1.998Y-1.378
X1.998Y-1.436
X2.04Y-2.414
X2.04Y-2.484
X2.04Y-2.554
X2.04Y-2.624
X2.068Y-1.272
X2.068Y-1.33
X2.068Y-1.378
X2.068Y-1.436
X2.098Y-2.414
X2.098Y-2.484
X2.098Y-2.554
X2.118Y-1.272
X2.118Y-1.33
X2.118Y-1.378
X2.118Y-1.436
X2.162Y-2.008
X2.188Y-1.272
X2.188Y-1.33
X2.188Y-1.378
X2.188Y-1.436
X2.258Y-1.272
X2.258Y-1.33
X2.258Y-1.378
X2.258Y-1.436
X2.28Y-2.202
X2.328Y-1.272
X2.328Y-1.33
X2.328Y-1.378
X2.328Y-1.436
X2.33Y-1.812
X2.33Y-2.434
X2.382Y-1.64
X2.388Y-1.378
X2.388Y-1.436
X2.388Y-1.48
X2.388Y-1.538
X2.39Y-1.272
X2.39Y-1.33
X2.394Y-3.178
X2.394Y-3.236
X2.394Y-3.284
X2.394Y-3.342
X2.458Y-1.378
X2.458Y-1.436
X2.458Y-1.48
X2.458Y-1.538
X2.46Y-1.272
X2.46Y-1.33
X2.464Y-3.178
X2.464Y-3.236
X2.464Y-3.284
X2.464Y-3.342
X2.466Y-2.088
X2.466Y-2.146
X2.528Y-1.378
X2.528Y-1.436
X2.528Y-1.48
X2.528Y-1.538
X2.53Y-1.272
X2.53Y-1.33
X2.534Y-3.178
X2.534Y-3.236
X2.534Y-3.284
X2.534Y-3.342
X2.536Y-2.088
X2.536Y-2.146
X2.598Y-1.378
X2.598Y-1.436
X2.598Y-1.48
X2.598Y-1.538
X2.6Y-1.272
X2.6Y-1.33
X2.604Y-3.178
X2.604Y-3.236
X2.604Y-3.284
X2.604Y-3.342
X2.606Y-2.088
X2.606Y-2.146
X2.654Y-1.272
X2.654Y-1.33
X2.654Y-1.378
X2.654Y-1.436
X2.654Y-1.482
X2.654Y-1.54
X2.658Y-2.964
X2.658Y-3.022
X2.658Y-3.068
X2.658Y-3.126
X2.658Y-3.178
X2.658Y-3.236
X2.676Y-2.088
X2.676Y-2.146
X2.722Y-1.982
X2.722Y-2.04
X2.722Y-2.088
X2.722Y-2.146
X2.722Y-2.196
X2.722Y-2.254
X2.7227Y-1.916
X2.724Y-1.272
X2.724Y-1.33
X2.724Y-1.378
X2.724Y-1.436
X2.724Y-1.482
X2.724Y-1.54
X2.728Y-2.964
X2.728Y-3.022
X2.728Y-3.068
X2.728Y-3.126
X2.728Y-3.178
X2.728Y-3.236
X2.792Y-1.982
X2.792Y-2.04
X2.792Y-2.088
X2.792Y-2.146
X2.792Y-2.196
X2.792Y-2.254
X2.794Y-1.272
X2.794Y-1.33
X2.794Y-1.378
X2.794Y-1.436
X2.794Y-1.482
X2.794Y-1.54
X2.798Y-2.964
X2.798Y-3.022
X2.798Y-3.068
X2.798Y-3.126
X2.798Y-3.178
X2.798Y-3.236
X2.862Y-1.982
X2.862Y-2.04
X2.862Y-2.088
X2.862Y-2.146
X2.862Y-2.196
X2.862Y-2.254
X2.864Y-1.272
X2.864Y-1.33
X2.864Y-1.378
X2.864Y-1.436
X2.864Y-1.482
X2.864Y-1.54
X2.868Y-2.964
X2.868Y-3.022
X2.868Y-3.068
X2.868Y-3.126
X2.868Y-3.178
X2.868Y-3.236
X2.916Y-2.964
X2.916Y-3.022
X2.932Y-1.982
X2.932Y-2.04
X2.932Y-2.088
X2.932Y-2.146
X2.932Y-2.196
X2.932Y-2.254
X2.984Y-1.656
X2.984Y-1.714
X2.984Y-1.76
X2.984Y-1.818
X2.984Y-1.872
X2.984Y-1.93
X2.984Y-1.982
X2.984Y-2.04
X2.984Y-2.088
X2.984Y-2.146
X2.986Y-2.196
X2.986Y-2.254
X2.986Y-2.964
X2.986Y-3.022
X3.054Y-1.656
X3.054Y-1.714
X3.054Y-1.76
X3.054Y-1.818
X3.054Y-1.872
X3.054Y-1.93
X3.054Y-1.982
X3.054Y-2.04
X3.054Y-2.088
X3.054Y-2.146
X3.056Y-2.196
X3.056Y-2.254
X3.056Y-2.964
X3.056Y-3.022
X3.124Y-1.656
X3.124Y-1.714
X3.124Y-1.76
X3.124Y-1.818
X3.124Y-1.872
X3.124Y-1.93
X3.124Y-1.982
X3.124Y-2.04
X3.124Y-2.088
X3.124Y-2.146
X3.126Y-2.196
X3.126Y-2.254
X3.126Y-2.964
X3.126Y-3.022
X3.194Y-1.656
X3.194Y-1.714
X3.194Y-1.76
X3.194Y-1.818
X3.194Y-1.872
X3.194Y-1.93
X3.194Y-1.982
X3.194Y-2.04
X3.194Y-2.088
X3.194Y-2.146
X3.196Y-2.196
X3.196Y-2.254
T4
X1.78Y-1.7402
X1.78Y-1.8402
X2.1098Y-3.118
X2.2098Y-3.118
X2.8567Y-1.762
X2.8567Y-1.862
T0
M30
