%TF.GenerationSoftware,KiCad,Pcbnew,(6.0.6)*%
%TF.CreationDate,2022-12-02T12:37:59-05:00*%
%TF.ProjectId,SplitRail DC Power Supply,53706c69-7452-4616-996c-20444320506f,rev?*%
%TF.SameCoordinates,Original*%
%TF.FileFunction,Copper,L2,Bot*%
%TF.FilePolarity,Positive*%
%FSLAX46Y46*%
G04 Gerber Fmt 4.6, Leading zero omitted, Abs format (unit mm)*
G04 Created by KiCad (PCBNEW (6.0.6)) date 2022-12-02 12:37:59*
%MOMM*%
%LPD*%
G01*
G04 APERTURE LIST*
%TA.AperFunction,ComponentPad*%
%ADD10R,1.700000X1.700000*%
%TD*%
%TA.AperFunction,ComponentPad*%
%ADD11O,1.700000X1.700000*%
%TD*%
%TA.AperFunction,ComponentPad*%
%ADD12C,0.500000*%
%TD*%
%TA.AperFunction,SMDPad,CuDef*%
%ADD13R,2.450000X2.450000*%
%TD*%
%TA.AperFunction,ComponentPad*%
%ADD14C,0.600000*%
%TD*%
%TA.AperFunction,SMDPad,CuDef*%
%ADD15R,4.500000X2.950000*%
%TD*%
%TA.AperFunction,ViaPad*%
%ADD16C,0.800000*%
%TD*%
%TA.AperFunction,Conductor*%
%ADD17C,0.250000*%
%TD*%
G04 APERTURE END LIST*
D10*
%TO.P,J3,1,Pin_1*%
%TO.N,Net-(C10-2-Pad2)*%
X72561200Y-47294800D03*
D11*
%TO.P,J3,2,Pin_2*%
%TO.N,Earth*%
X72561200Y-44754800D03*
%TD*%
D10*
%TO.P,J1,1,Pin_1*%
%TO.N,Earth*%
X53589000Y-79197200D03*
D11*
%TO.P,J1,2,Pin_2*%
%TO.N,Net-(C1-1-Pad1)*%
X56129000Y-79197200D03*
%TD*%
D12*
%TO.P,U2,25,EP*%
%TO.N,unconnected-(U2-Pad25)*%
X54905000Y-44745000D03*
D13*
X55880000Y-45720000D03*
D12*
X56855000Y-44745000D03*
X54905000Y-46695000D03*
X55880000Y-46695000D03*
X54905000Y-45720000D03*
X56855000Y-46695000D03*
X55880000Y-45720000D03*
X55880000Y-44745000D03*
X56855000Y-45720000D03*
%TD*%
D14*
%TO.P,U1,9,GNDPAD*%
%TO.N,Earth*%
X53521200Y-71923200D03*
X54621200Y-70723200D03*
X53521200Y-70723200D03*
X57121200Y-70723200D03*
X55921200Y-71923200D03*
X57121200Y-71923200D03*
D15*
X55321200Y-71323200D03*
D14*
X54621200Y-71923200D03*
X55921200Y-70723200D03*
%TD*%
D10*
%TO.P,J2,1,Pin_1*%
%TO.N,Net-(C4-2-Pad1)*%
X45212000Y-46741000D03*
D11*
%TO.P,J2,2,Pin_2*%
%TO.N,Earth*%
X45212000Y-44201000D03*
%TD*%
D16*
%TO.N,Earth*%
X74066400Y-75285600D03*
X79400400Y-75285600D03*
X75844400Y-75285600D03*
X75844400Y-76758800D03*
X74066400Y-76758800D03*
X77622400Y-75285600D03*
X79400400Y-76758800D03*
X77622400Y-76758800D03*
X67513200Y-75285600D03*
X72847200Y-75285600D03*
X69291200Y-75285600D03*
X69291200Y-76758800D03*
X67513200Y-76758800D03*
X71069200Y-75285600D03*
X72847200Y-76758800D03*
X71069200Y-76758800D03*
X67513200Y-77927200D03*
X72847200Y-77927200D03*
X69291200Y-77927200D03*
X69291200Y-79400400D03*
X67513200Y-79400400D03*
X71069200Y-77927200D03*
X72847200Y-79400400D03*
X71069200Y-79400400D03*
X67513200Y-80721200D03*
X72847200Y-80721200D03*
X69291200Y-80721200D03*
X69291200Y-82194400D03*
X67513200Y-82194400D03*
X71069200Y-80721200D03*
X72847200Y-82194400D03*
X71069200Y-82194400D03*
X60807600Y-83413600D03*
X66141600Y-83413600D03*
X62585600Y-83413600D03*
X62585600Y-84886800D03*
X60807600Y-84886800D03*
X64363600Y-83413600D03*
X66141600Y-84886800D03*
X64363600Y-84886800D03*
X60807600Y-80721200D03*
X66141600Y-80721200D03*
X62585600Y-80721200D03*
X62585600Y-82194400D03*
X60807600Y-82194400D03*
X64363600Y-80721200D03*
X66141600Y-82194400D03*
X64363600Y-82194400D03*
X51816000Y-66649600D03*
X51816000Y-61315600D03*
X51816000Y-64871600D03*
X53289200Y-64871600D03*
X51816000Y-63093600D03*
X53289200Y-61315600D03*
X53289200Y-63093600D03*
X49022000Y-66649600D03*
X49022000Y-61315600D03*
X49022000Y-64871600D03*
X50495200Y-64871600D03*
X50495200Y-66649600D03*
X49022000Y-63093600D03*
X50495200Y-61315600D03*
X50495200Y-63093600D03*
X46177200Y-66649600D03*
X46177200Y-61315600D03*
X46177200Y-64871600D03*
X47650400Y-64871600D03*
X47650400Y-66649600D03*
X46177200Y-63093600D03*
X47650400Y-61315600D03*
X47650400Y-63093600D03*
X37846000Y-48209200D03*
X37846000Y-42875200D03*
X37846000Y-46431200D03*
X39319200Y-46431200D03*
X39319200Y-48209200D03*
X37846000Y-44653200D03*
X39319200Y-42875200D03*
X39319200Y-44653200D03*
X40690800Y-48209200D03*
X40690800Y-42875200D03*
X40690800Y-46431200D03*
X42164000Y-46431200D03*
X42164000Y-48209200D03*
X40690800Y-44653200D03*
X42164000Y-42875200D03*
X42164000Y-44653200D03*
X47193200Y-35001200D03*
X52527200Y-35001200D03*
X48971200Y-35001200D03*
X48971200Y-36474400D03*
X47193200Y-36474400D03*
X50749200Y-35001200D03*
X52527200Y-36474400D03*
X50749200Y-36474400D03*
X47193200Y-32308800D03*
X52527200Y-32308800D03*
X48971200Y-32308800D03*
X48971200Y-33782000D03*
X47193200Y-33782000D03*
X50749200Y-32308800D03*
X52527200Y-33782000D03*
X50749200Y-33782000D03*
X53797200Y-32308800D03*
X59131200Y-32308800D03*
X55575200Y-32308800D03*
X55575200Y-33782000D03*
X53797200Y-33782000D03*
X57353200Y-32308800D03*
X59131200Y-33782000D03*
X57353200Y-33782000D03*
X60706000Y-32308800D03*
X66040000Y-32308800D03*
X62484000Y-32308800D03*
X62484000Y-33782000D03*
X60706000Y-33782000D03*
X64262000Y-32308800D03*
X66040000Y-33782000D03*
X64262000Y-33782000D03*
X67411600Y-32308800D03*
X72745600Y-32308800D03*
X69189600Y-32308800D03*
X69189600Y-33782000D03*
X67411600Y-33782000D03*
X70967600Y-32308800D03*
X72745600Y-33782000D03*
X70967600Y-33782000D03*
X67411600Y-37642800D03*
X72745600Y-37642800D03*
X69189600Y-37642800D03*
X69189600Y-39116000D03*
X67411600Y-39116000D03*
X70967600Y-37642800D03*
X72745600Y-39116000D03*
X70967600Y-39116000D03*
X60655200Y-37592000D03*
X65989200Y-37592000D03*
X62433200Y-37592000D03*
X62433200Y-39065200D03*
X60655200Y-39065200D03*
X64211200Y-37592000D03*
X65989200Y-39065200D03*
X64211200Y-39065200D03*
X67411600Y-35001200D03*
X72745600Y-35001200D03*
X69189600Y-35001200D03*
X69189600Y-36474400D03*
X67411600Y-36474400D03*
X70967600Y-35001200D03*
X72745600Y-36474400D03*
X70967600Y-36474400D03*
X60655200Y-35001200D03*
X65989200Y-35001200D03*
X62433200Y-35001200D03*
X62433200Y-36474400D03*
X60655200Y-36474400D03*
X64211200Y-35001200D03*
X65989200Y-36474400D03*
X64211200Y-36474400D03*
X53797200Y-35001200D03*
X59131200Y-35001200D03*
X55575200Y-35001200D03*
X55575200Y-36474400D03*
X53797200Y-36474400D03*
X57353200Y-35001200D03*
X59131200Y-36474400D03*
X57353200Y-36474400D03*
X75793600Y-42062400D03*
X81127600Y-42062400D03*
X77571600Y-42062400D03*
X77571600Y-43535600D03*
X75793600Y-43535600D03*
X79349600Y-42062400D03*
X81127600Y-43535600D03*
X79349600Y-43535600D03*
X75844400Y-55778400D03*
X81178400Y-55778400D03*
X77622400Y-55778400D03*
X77622400Y-57251600D03*
X75844400Y-57251600D03*
X79400400Y-55778400D03*
X81178400Y-57251600D03*
X79400400Y-57251600D03*
X69138800Y-55778400D03*
X74472800Y-55778400D03*
X70916800Y-55778400D03*
X70916800Y-57251600D03*
X69138800Y-57251600D03*
X72694800Y-55778400D03*
X74472800Y-57251600D03*
X72694800Y-57251600D03*
X62636400Y-53035200D03*
X67970400Y-53035200D03*
X64414400Y-53035200D03*
X64414400Y-54508400D03*
X62636400Y-54508400D03*
X66192400Y-53035200D03*
X67970400Y-54508400D03*
X66192400Y-54508400D03*
X69138800Y-53035200D03*
X74472800Y-53035200D03*
X70916800Y-53035200D03*
X70916800Y-54508400D03*
X69138800Y-54508400D03*
X72694800Y-53035200D03*
X74472800Y-54508400D03*
X72694800Y-54508400D03*
X69138800Y-50342800D03*
X74472800Y-50342800D03*
X70916800Y-50342800D03*
X70916800Y-51816000D03*
X69138800Y-51816000D03*
X72694800Y-50342800D03*
X74472800Y-51816000D03*
X72694800Y-51816000D03*
X75793600Y-53035200D03*
X81127600Y-53035200D03*
X77571600Y-53035200D03*
X77571600Y-54508400D03*
X75793600Y-54508400D03*
X79349600Y-53035200D03*
X81127600Y-54508400D03*
X79349600Y-54508400D03*
X75793600Y-50342800D03*
X81127600Y-50342800D03*
X77571600Y-50342800D03*
X77571600Y-51816000D03*
X75793600Y-51816000D03*
X79349600Y-50342800D03*
X81127600Y-51816000D03*
X79349600Y-51816000D03*
X75793600Y-47548800D03*
X81127600Y-47548800D03*
X77571600Y-47548800D03*
X77571600Y-49022000D03*
X75793600Y-49022000D03*
X79349600Y-47548800D03*
X81127600Y-49022000D03*
X79349600Y-49022000D03*
X75793600Y-46177200D03*
X81127600Y-46177200D03*
X77571600Y-46177200D03*
X79349600Y-46177200D03*
X81127600Y-44704000D03*
X79349600Y-44704000D03*
X77571600Y-44704000D03*
X75793600Y-44704000D03*
%TO.N,5V*%
X57912000Y-55930800D03*
X59182000Y-61823600D03*
%TO.N,Net-(C3-2-Pad1)*%
X54914800Y-51003200D03*
X59182000Y-46024800D03*
%TO.N,Net-(C10-2-Pad2)*%
X60502800Y-41656000D03*
X69157600Y-48666400D03*
%TD*%
D17*
%TO.N,Net-(C3-2-Pad1)*%
X56642000Y-47853600D02*
X58369200Y-47853600D01*
X55270400Y-50647600D02*
X55270400Y-49225200D01*
X55270400Y-49225200D02*
X56642000Y-47853600D01*
X58369200Y-47853600D02*
X59182000Y-47040800D01*
X54914800Y-51003200D02*
X55270400Y-50647600D01*
X59182000Y-47040800D02*
X59182000Y-46024800D01*
%TD*%
%TA.AperFunction,Conductor*%
%TO.N,Net-(C10-2-Pad2)*%
G36*
X61893791Y-41015602D02*
G01*
X61910449Y-41028388D01*
X63228933Y-42227612D01*
X66926800Y-45590999D01*
X66931115Y-45595115D01*
X67538600Y-46202600D01*
X67539165Y-46203139D01*
X67539166Y-46203140D01*
X69709375Y-48273569D01*
X69744856Y-48335064D01*
X69748400Y-48364736D01*
X69748400Y-49319648D01*
X69728398Y-49387769D01*
X69704400Y-49415314D01*
X69428190Y-49652066D01*
X69363452Y-49681212D01*
X69346190Y-49682400D01*
X68987790Y-49682400D01*
X68919669Y-49662398D01*
X68898695Y-49645495D01*
X61468000Y-42214800D01*
X60154352Y-42214800D01*
X60086231Y-42194798D01*
X60058686Y-42170800D01*
X59821934Y-41894590D01*
X59792788Y-41829852D01*
X59791600Y-41812590D01*
X59791600Y-41352590D01*
X59811602Y-41284469D01*
X59828505Y-41263495D01*
X60059495Y-41032505D01*
X60121807Y-40998479D01*
X60148590Y-40995600D01*
X61825670Y-40995600D01*
X61893791Y-41015602D01*
G37*
%TD.AperFunction*%
%TD*%
%TA.AperFunction,Conductor*%
%TO.N,Earth*%
G36*
X82495621Y-31055302D02*
G01*
X82542114Y-31108958D01*
X82553500Y-31161300D01*
X82553500Y-88218700D01*
X82533498Y-88286821D01*
X82479842Y-88333314D01*
X82427500Y-88344700D01*
X36546100Y-88344700D01*
X36477979Y-88324698D01*
X36431486Y-88271042D01*
X36420100Y-88218700D01*
X36420100Y-83566871D01*
X38897068Y-83566871D01*
X38897155Y-83570873D01*
X38897155Y-83570880D01*
X38902572Y-83819129D01*
X38903749Y-83873065D01*
X38949283Y-84175930D01*
X38950379Y-84179790D01*
X38950380Y-84179795D01*
X38963706Y-84226730D01*
X39032931Y-84470553D01*
X39153337Y-84752160D01*
X39308549Y-85016185D01*
X39496051Y-85258347D01*
X39712804Y-85474722D01*
X39715985Y-85477176D01*
X39715986Y-85477177D01*
X39952101Y-85659339D01*
X39952105Y-85659342D01*
X39955294Y-85661802D01*
X39958773Y-85663839D01*
X40135579Y-85767363D01*
X40219589Y-85816553D01*
X40223274Y-85818121D01*
X40223278Y-85818123D01*
X40334211Y-85865325D01*
X40501406Y-85936467D01*
X40796175Y-86019601D01*
X41016738Y-86052368D01*
X41095819Y-86064116D01*
X41095821Y-86064116D01*
X41099118Y-86064606D01*
X41102449Y-86064746D01*
X41102453Y-86064746D01*
X41139137Y-86066283D01*
X41182484Y-86068100D01*
X41377874Y-86068100D01*
X41501315Y-86060226D01*
X41602039Y-86053801D01*
X41602044Y-86053800D01*
X41606047Y-86053545D01*
X41609984Y-86052783D01*
X41609986Y-86052783D01*
X41902801Y-85996130D01*
X41902805Y-85996129D01*
X41906738Y-85995368D01*
X42197600Y-85899456D01*
X42473918Y-85767363D01*
X42731212Y-85601231D01*
X42965310Y-85403752D01*
X43172419Y-85178129D01*
X43349180Y-84928018D01*
X43492728Y-84657474D01*
X43494144Y-84653717D01*
X43599319Y-84374644D01*
X43599321Y-84374638D01*
X43600736Y-84370883D01*
X43635887Y-84222763D01*
X43670524Y-84076807D01*
X43670525Y-84076802D01*
X43671453Y-84072891D01*
X43703732Y-83768329D01*
X43700533Y-83621680D01*
X43700446Y-83617671D01*
X75371468Y-83617671D01*
X75371555Y-83621673D01*
X75371555Y-83621680D01*
X75377127Y-83877036D01*
X75378149Y-83923865D01*
X75423683Y-84226730D01*
X75507331Y-84521353D01*
X75627737Y-84802960D01*
X75782949Y-85066985D01*
X75970451Y-85309147D01*
X76187204Y-85525522D01*
X76190385Y-85527976D01*
X76190386Y-85527977D01*
X76426501Y-85710139D01*
X76426505Y-85710142D01*
X76429694Y-85712602D01*
X76433173Y-85714639D01*
X76609979Y-85818163D01*
X76693989Y-85867353D01*
X76697674Y-85868921D01*
X76697678Y-85868923D01*
X76834897Y-85927310D01*
X76975806Y-85987267D01*
X77270575Y-86070401D01*
X77491138Y-86103168D01*
X77570219Y-86114916D01*
X77570221Y-86114916D01*
X77573518Y-86115406D01*
X77576849Y-86115546D01*
X77576853Y-86115546D01*
X77613537Y-86117083D01*
X77656884Y-86118900D01*
X77852274Y-86118900D01*
X77975715Y-86111026D01*
X78076439Y-86104601D01*
X78076444Y-86104600D01*
X78080447Y-86104345D01*
X78084384Y-86103583D01*
X78084386Y-86103583D01*
X78377201Y-86046930D01*
X78377205Y-86046929D01*
X78381138Y-86046168D01*
X78672000Y-85950256D01*
X78948318Y-85818163D01*
X79205612Y-85652031D01*
X79439710Y-85454552D01*
X79646819Y-85228929D01*
X79680631Y-85181087D01*
X79794929Y-85019358D01*
X79823580Y-84978818D01*
X79967128Y-84708274D01*
X80036180Y-84525051D01*
X80073719Y-84425444D01*
X80073721Y-84425438D01*
X80075136Y-84421683D01*
X80089449Y-84361369D01*
X80144924Y-84127607D01*
X80144925Y-84127602D01*
X80145853Y-84123691D01*
X80178132Y-83819129D01*
X80176937Y-83764320D01*
X80171539Y-83516952D01*
X80171539Y-83516947D01*
X80171451Y-83512935D01*
X80125917Y-83210070D01*
X80112621Y-83163237D01*
X80043368Y-82919319D01*
X80042269Y-82915447D01*
X79921863Y-82633840D01*
X79766651Y-82369815D01*
X79579149Y-82127653D01*
X79362396Y-81911278D01*
X79293368Y-81858023D01*
X79123099Y-81726661D01*
X79123095Y-81726658D01*
X79119906Y-81724198D01*
X78943338Y-81620813D01*
X78859075Y-81571475D01*
X78859072Y-81571473D01*
X78855611Y-81569447D01*
X78851926Y-81567879D01*
X78851922Y-81567877D01*
X78664851Y-81488278D01*
X78573794Y-81449533D01*
X78279025Y-81366399D01*
X78048814Y-81332199D01*
X77979381Y-81321884D01*
X77979379Y-81321884D01*
X77976082Y-81321394D01*
X77972751Y-81321254D01*
X77972747Y-81321254D01*
X77936063Y-81319717D01*
X77892716Y-81317900D01*
X77697326Y-81317900D01*
X77573885Y-81325774D01*
X77473161Y-81332199D01*
X77473156Y-81332200D01*
X77469153Y-81332455D01*
X77465216Y-81333217D01*
X77465214Y-81333217D01*
X77172399Y-81389870D01*
X77172395Y-81389871D01*
X77168462Y-81390632D01*
X76877600Y-81486544D01*
X76601282Y-81618637D01*
X76343988Y-81784769D01*
X76109890Y-81982248D01*
X75902781Y-82207871D01*
X75726020Y-82457982D01*
X75582472Y-82728526D01*
X75581057Y-82732282D01*
X75581056Y-82732283D01*
X75492134Y-82968232D01*
X75474464Y-83015117D01*
X75473535Y-83019032D01*
X75414853Y-83266311D01*
X75403747Y-83313109D01*
X75371468Y-83617671D01*
X43700446Y-83617671D01*
X43697139Y-83466152D01*
X43697139Y-83466147D01*
X43697051Y-83462135D01*
X43651517Y-83159270D01*
X43567869Y-82864647D01*
X43447463Y-82583040D01*
X43292251Y-82319015D01*
X43104749Y-82076853D01*
X42887996Y-81860478D01*
X42884814Y-81858023D01*
X42648699Y-81675861D01*
X42648695Y-81675858D01*
X42645506Y-81673398D01*
X42549027Y-81616907D01*
X42384675Y-81520675D01*
X42384672Y-81520673D01*
X42381211Y-81518647D01*
X42377526Y-81517079D01*
X42377522Y-81517077D01*
X42190451Y-81437478D01*
X42099394Y-81398733D01*
X41804625Y-81315599D01*
X41574414Y-81281399D01*
X41504981Y-81271084D01*
X41504979Y-81271084D01*
X41501682Y-81270594D01*
X41498351Y-81270454D01*
X41498347Y-81270454D01*
X41461663Y-81268917D01*
X41418316Y-81267100D01*
X41222926Y-81267100D01*
X41099485Y-81274974D01*
X40998761Y-81281399D01*
X40998756Y-81281400D01*
X40994753Y-81281655D01*
X40990816Y-81282417D01*
X40990814Y-81282417D01*
X40697999Y-81339070D01*
X40697995Y-81339071D01*
X40694062Y-81339832D01*
X40403200Y-81435744D01*
X40126882Y-81567837D01*
X39869588Y-81733969D01*
X39635490Y-81931448D01*
X39428381Y-82157071D01*
X39426067Y-82160346D01*
X39426064Y-82160349D01*
X39392479Y-82207871D01*
X39251620Y-82407182D01*
X39108072Y-82677726D01*
X39106657Y-82681482D01*
X39106656Y-82681483D01*
X39018482Y-82915447D01*
X39000064Y-82964317D01*
X38999135Y-82968232D01*
X38940803Y-83214037D01*
X38929347Y-83262309D01*
X38897068Y-83566871D01*
X36420100Y-83566871D01*
X36420100Y-79168269D01*
X55024164Y-79168269D01*
X55037392Y-79370094D01*
X55087178Y-79566128D01*
X55171856Y-79749807D01*
X55288588Y-79914980D01*
X55433466Y-80056113D01*
X55601637Y-80168482D01*
X55606940Y-80170760D01*
X55606943Y-80170762D01*
X55695291Y-80208719D01*
X55787470Y-80248322D01*
X55984740Y-80292960D01*
X55990509Y-80293187D01*
X55990512Y-80293187D01*
X56066683Y-80296179D01*
X56186842Y-80300900D01*
X56273132Y-80288389D01*
X56381286Y-80272708D01*
X56381291Y-80272707D01*
X56387007Y-80271878D01*
X56392479Y-80270020D01*
X56392481Y-80270020D01*
X56573067Y-80208719D01*
X56573069Y-80208718D01*
X56578531Y-80206864D01*
X56755001Y-80108037D01*
X56817433Y-80056113D01*
X56906073Y-79982391D01*
X56910505Y-79978705D01*
X57039837Y-79823201D01*
X57138664Y-79646731D01*
X57203678Y-79455207D01*
X57204507Y-79449491D01*
X57204508Y-79449486D01*
X57232167Y-79258716D01*
X57232700Y-79255042D01*
X57234215Y-79197200D01*
X57215708Y-78995791D01*
X57160807Y-78801126D01*
X57071351Y-78619727D01*
X57053079Y-78595257D01*
X56953788Y-78462291D01*
X56953787Y-78462290D01*
X56950335Y-78457667D01*
X56927350Y-78436420D01*
X56806053Y-78324294D01*
X56806051Y-78324292D01*
X56801812Y-78320374D01*
X56774374Y-78303062D01*
X56635637Y-78215525D01*
X56630757Y-78212446D01*
X56442898Y-78137498D01*
X56244526Y-78098039D01*
X56238752Y-78097963D01*
X56238748Y-78097963D01*
X56136257Y-78096622D01*
X56042286Y-78095392D01*
X56036589Y-78096371D01*
X56036588Y-78096371D01*
X55848646Y-78128665D01*
X55848645Y-78128665D01*
X55842949Y-78129644D01*
X55653193Y-78199649D01*
X55479371Y-78303062D01*
X55327305Y-78436420D01*
X55202089Y-78595257D01*
X55107914Y-78774253D01*
X55047937Y-78967413D01*
X55024164Y-79168269D01*
X36420100Y-79168269D01*
X36420100Y-60755410D01*
X56945300Y-60755410D01*
X56946763Y-60782717D01*
X56949642Y-60809500D01*
X56951491Y-60815405D01*
X56951492Y-60815410D01*
X56977345Y-60897973D01*
X56979434Y-60904644D01*
X56982396Y-60910068D01*
X56982398Y-60910073D01*
X56999421Y-60941247D01*
X57013460Y-60966956D01*
X57057039Y-61025171D01*
X58659629Y-62627761D01*
X58660886Y-62628890D01*
X58660889Y-62628893D01*
X58678726Y-62644916D01*
X58678736Y-62644924D01*
X58679970Y-62646033D01*
X58681274Y-62647084D01*
X58681280Y-62647089D01*
X58687970Y-62652480D01*
X58700944Y-62662936D01*
X58789287Y-62709149D01*
X58795225Y-62710892D01*
X58795226Y-62710893D01*
X58853085Y-62727882D01*
X58853089Y-62727883D01*
X58857408Y-62729151D01*
X58861856Y-62729791D01*
X58861863Y-62729792D01*
X58924942Y-62738861D01*
X58924949Y-62738861D01*
X58929390Y-62739500D01*
X59439457Y-62739500D01*
X59440588Y-62739458D01*
X59440601Y-62739458D01*
X59457117Y-62738848D01*
X59457124Y-62738848D01*
X59458305Y-62738804D01*
X59476839Y-62737433D01*
X59482318Y-62736013D01*
X59482320Y-62736013D01*
X59559765Y-62715947D01*
X59559768Y-62715946D01*
X59565248Y-62714526D01*
X59629686Y-62684722D01*
X59690677Y-62645108D01*
X60018915Y-62357899D01*
X60020427Y-62356383D01*
X60041943Y-62334805D01*
X60041952Y-62334795D01*
X60043441Y-62333302D01*
X60065872Y-62307515D01*
X60117615Y-62213934D01*
X60138207Y-62145989D01*
X60149180Y-62074100D01*
X60153021Y-61631340D01*
X60150273Y-61591684D01*
X60144545Y-61553017D01*
X60142425Y-61540772D01*
X60104334Y-61448645D01*
X60064928Y-61389588D01*
X60016365Y-61335455D01*
X58922095Y-60419763D01*
X58882690Y-60360707D01*
X58876963Y-60324368D01*
X58828348Y-55365618D01*
X58828348Y-55365616D01*
X58828338Y-55364602D01*
X58827658Y-55348315D01*
X58826476Y-55332288D01*
X58825124Y-55326956D01*
X58825123Y-55326950D01*
X58805998Y-55251525D01*
X58805997Y-55251522D01*
X58804645Y-55246190D01*
X58796367Y-55227802D01*
X58777349Y-55185561D01*
X58777349Y-55185560D01*
X58775499Y-55181452D01*
X58736512Y-55120065D01*
X58499304Y-54843323D01*
X58473150Y-54816957D01*
X58471440Y-54815467D01*
X58471427Y-54815455D01*
X58450735Y-54797428D01*
X58450733Y-54797426D01*
X58445605Y-54792959D01*
X58439640Y-54789692D01*
X58439638Y-54789690D01*
X58392679Y-54763967D01*
X58349751Y-54740451D01*
X58343234Y-54738538D01*
X58343233Y-54738537D01*
X58285953Y-54721718D01*
X58285949Y-54721717D01*
X58281630Y-54720449D01*
X58277182Y-54719809D01*
X58277175Y-54719808D01*
X58214096Y-54710739D01*
X58214089Y-54710739D01*
X58209648Y-54710100D01*
X57608590Y-54710100D01*
X57606935Y-54710189D01*
X57606923Y-54710189D01*
X57583541Y-54711442D01*
X57581283Y-54711563D01*
X57579606Y-54711743D01*
X57579597Y-54711744D01*
X57560658Y-54713780D01*
X57560657Y-54713780D01*
X57554500Y-54714442D01*
X57548595Y-54716291D01*
X57548590Y-54716292D01*
X57477550Y-54738537D01*
X57459356Y-54744234D01*
X57453932Y-54747196D01*
X57453927Y-54747198D01*
X57422753Y-54764221D01*
X57397044Y-54778260D01*
X57338829Y-54821839D01*
X57057039Y-55103629D01*
X57055910Y-55104886D01*
X57055907Y-55104889D01*
X57042275Y-55120065D01*
X57038767Y-55123970D01*
X57021864Y-55144944D01*
X56975651Y-55233287D01*
X56955649Y-55301408D01*
X56955009Y-55305856D01*
X56955008Y-55305863D01*
X56948755Y-55349360D01*
X56945300Y-55373390D01*
X56945300Y-60755410D01*
X36420100Y-60755410D01*
X36420100Y-50996338D01*
X54259558Y-50996338D01*
X54276835Y-51152833D01*
X54330943Y-51300690D01*
X54335180Y-51306996D01*
X54335182Y-51306999D01*
X54375509Y-51367011D01*
X54418758Y-51431372D01*
X54535210Y-51537335D01*
X54541885Y-51540959D01*
X54666899Y-51608837D01*
X54666901Y-51608838D01*
X54673576Y-51612462D01*
X54680925Y-51614390D01*
X54818519Y-51650487D01*
X54818521Y-51650487D01*
X54825869Y-51652415D01*
X54909180Y-51653724D01*
X54975698Y-51654769D01*
X54975701Y-51654769D01*
X54983295Y-51654888D01*
X55136768Y-51619738D01*
X55277425Y-51548995D01*
X55303669Y-51526581D01*
X55391374Y-51451674D01*
X55391376Y-51451671D01*
X55397148Y-51446742D01*
X55489024Y-51318883D01*
X55547750Y-51172798D01*
X55569934Y-51016923D01*
X55570078Y-51003200D01*
X55562820Y-50943227D01*
X55574492Y-50873199D01*
X55588958Y-50850084D01*
X55597554Y-50839181D01*
X55597555Y-50839179D01*
X55604003Y-50831000D01*
X55607005Y-50822451D01*
X55612272Y-50815081D01*
X55626794Y-50766522D01*
X55628627Y-50760881D01*
X55642795Y-50720536D01*
X55642795Y-50720535D01*
X55645423Y-50713052D01*
X55645900Y-50707545D01*
X55645900Y-50704838D01*
X55646011Y-50702266D01*
X55646059Y-50702106D01*
X55646203Y-50702112D01*
X55646242Y-50701494D01*
X55648090Y-50695314D01*
X55645997Y-50642045D01*
X55645900Y-50637099D01*
X55645900Y-49432927D01*
X55665902Y-49364806D01*
X55682805Y-49343832D01*
X56760632Y-48266005D01*
X56822944Y-48231979D01*
X56849727Y-48229100D01*
X58315704Y-48229100D01*
X58339001Y-48231579D01*
X58341086Y-48231677D01*
X58351266Y-48233869D01*
X58384184Y-48229973D01*
X58390021Y-48229629D01*
X58390013Y-48229528D01*
X58395192Y-48229100D01*
X58400393Y-48229100D01*
X58405521Y-48228246D01*
X58405527Y-48228246D01*
X58419187Y-48225972D01*
X58425063Y-48225135D01*
X58430152Y-48224533D01*
X58475410Y-48219176D01*
X58483577Y-48215254D01*
X58492513Y-48213767D01*
X58501675Y-48208823D01*
X58501679Y-48208822D01*
X58537129Y-48189694D01*
X58542420Y-48186998D01*
X58580949Y-48168497D01*
X58580950Y-48168496D01*
X58588100Y-48165063D01*
X58592331Y-48161506D01*
X58594263Y-48159574D01*
X58596137Y-48157855D01*
X58596274Y-48157781D01*
X58596374Y-48157891D01*
X58596854Y-48157468D01*
X58602529Y-48154406D01*
X58610409Y-48145882D01*
X58638727Y-48115247D01*
X58642157Y-48111680D01*
X59409695Y-47344143D01*
X59427906Y-47329436D01*
X59429461Y-47328021D01*
X59438210Y-47322372D01*
X59444658Y-47314192D01*
X59444661Y-47314190D01*
X59458734Y-47296339D01*
X59462621Y-47291965D01*
X59462543Y-47291899D01*
X59465898Y-47287940D01*
X59469576Y-47284262D01*
X59472595Y-47280038D01*
X59472602Y-47280029D01*
X59480679Y-47268726D01*
X59484243Y-47263980D01*
X59509154Y-47232380D01*
X59515603Y-47224200D01*
X59518605Y-47215652D01*
X59523872Y-47208281D01*
X59527406Y-47196466D01*
X59538396Y-47159717D01*
X59540231Y-47154070D01*
X59554395Y-47113736D01*
X59554395Y-47113735D01*
X59557023Y-47106252D01*
X59557500Y-47100745D01*
X59557500Y-47098038D01*
X59557611Y-47095468D01*
X59557659Y-47095306D01*
X59557804Y-47095312D01*
X59557843Y-47094692D01*
X59559691Y-47088513D01*
X59557597Y-47035219D01*
X59557500Y-47030273D01*
X59557500Y-46617686D01*
X59577502Y-46549565D01*
X59601669Y-46521875D01*
X59658576Y-46473272D01*
X59658577Y-46473271D01*
X59664348Y-46468342D01*
X59756224Y-46340483D01*
X59814950Y-46194398D01*
X59837134Y-46038523D01*
X59837278Y-46024800D01*
X59818363Y-45868494D01*
X59777780Y-45761093D01*
X59765394Y-45728314D01*
X59765393Y-45728311D01*
X59762710Y-45721212D01*
X59673531Y-45591457D01*
X59626971Y-45549974D01*
X59561648Y-45491772D01*
X59561645Y-45491770D01*
X59555976Y-45486719D01*
X59416831Y-45413045D01*
X59400122Y-45408848D01*
X59271498Y-45376540D01*
X59271496Y-45376540D01*
X59264128Y-45374689D01*
X59256530Y-45374649D01*
X59256528Y-45374649D01*
X59189319Y-45374297D01*
X59106684Y-45373865D01*
X59099305Y-45375637D01*
X59099301Y-45375637D01*
X58960967Y-45408848D01*
X58960963Y-45408849D01*
X58953588Y-45410620D01*
X58813679Y-45482832D01*
X58807957Y-45487824D01*
X58807955Y-45487825D01*
X58700759Y-45581338D01*
X58700756Y-45581341D01*
X58695034Y-45586333D01*
X58690667Y-45592547D01*
X58620103Y-45692949D01*
X58604501Y-45715148D01*
X58547309Y-45861839D01*
X58526758Y-46017938D01*
X58544035Y-46174433D01*
X58598143Y-46322290D01*
X58602380Y-46328596D01*
X58602382Y-46328599D01*
X58622966Y-46359231D01*
X58685958Y-46452972D01*
X58691573Y-46458081D01*
X58691578Y-46458087D01*
X58765300Y-46525169D01*
X58802222Y-46585809D01*
X58806500Y-46618362D01*
X58806500Y-46833073D01*
X58786498Y-46901194D01*
X58769595Y-46922168D01*
X58250568Y-47441195D01*
X58188256Y-47475221D01*
X58161473Y-47478100D01*
X56695496Y-47478100D01*
X56672208Y-47475621D01*
X56670110Y-47475522D01*
X56659933Y-47473331D01*
X56627870Y-47477126D01*
X56627015Y-47477227D01*
X56621179Y-47477571D01*
X56621187Y-47477672D01*
X56616008Y-47478100D01*
X56610807Y-47478100D01*
X56605677Y-47478954D01*
X56605675Y-47478954D01*
X56592008Y-47481229D01*
X56586131Y-47482066D01*
X56535790Y-47488024D01*
X56527623Y-47491946D01*
X56518687Y-47493433D01*
X56509525Y-47498377D01*
X56509521Y-47498378D01*
X56474071Y-47517506D01*
X56468780Y-47520202D01*
X56430251Y-47538703D01*
X56423100Y-47542137D01*
X56418869Y-47545694D01*
X56416937Y-47547626D01*
X56415063Y-47549345D01*
X56414926Y-47549419D01*
X56414826Y-47549309D01*
X56414346Y-47549732D01*
X56408671Y-47552794D01*
X56401602Y-47560441D01*
X56401601Y-47560442D01*
X56372460Y-47591967D01*
X56369030Y-47595533D01*
X55042711Y-48921852D01*
X55024480Y-48936577D01*
X55022940Y-48937978D01*
X55014190Y-48943628D01*
X55007743Y-48951806D01*
X54993664Y-48969665D01*
X54989783Y-48974032D01*
X54989861Y-48974098D01*
X54986507Y-48978056D01*
X54982825Y-48981738D01*
X54971739Y-48997252D01*
X54968188Y-49001981D01*
X54936797Y-49041800D01*
X54933795Y-49050349D01*
X54928528Y-49057719D01*
X54925544Y-49067698D01*
X54914008Y-49106270D01*
X54912174Y-49111914D01*
X54898004Y-49152265D01*
X54898003Y-49152271D01*
X54895377Y-49159748D01*
X54894900Y-49165255D01*
X54894900Y-49167962D01*
X54894789Y-49170535D01*
X54894741Y-49170694D01*
X54894597Y-49170688D01*
X54894558Y-49171308D01*
X54892710Y-49177487D01*
X54893119Y-49187892D01*
X54894803Y-49230755D01*
X54894900Y-49235702D01*
X54894900Y-50239630D01*
X54874898Y-50307751D01*
X54821242Y-50354244D01*
X54798314Y-50362149D01*
X54693767Y-50387248D01*
X54693763Y-50387249D01*
X54686388Y-50389020D01*
X54546479Y-50461232D01*
X54540757Y-50466224D01*
X54540755Y-50466225D01*
X54433559Y-50559738D01*
X54433556Y-50559741D01*
X54427834Y-50564733D01*
X54423467Y-50570947D01*
X54343373Y-50684909D01*
X54337301Y-50693548D01*
X54280109Y-50840239D01*
X54259558Y-50996338D01*
X36420100Y-50996338D01*
X36420100Y-47615674D01*
X44111500Y-47615674D01*
X44126034Y-47688740D01*
X44181399Y-47771601D01*
X44264260Y-47826966D01*
X44337326Y-47841500D01*
X46086674Y-47841500D01*
X46159740Y-47826966D01*
X46242601Y-47771601D01*
X46297966Y-47688740D01*
X46312500Y-47615674D01*
X46312500Y-46688823D01*
X54399391Y-46688823D01*
X54400555Y-46697725D01*
X54400555Y-46697728D01*
X54403436Y-46719756D01*
X54404500Y-46736093D01*
X54404500Y-46969674D01*
X54419034Y-47042740D01*
X54474399Y-47125601D01*
X54557260Y-47180966D01*
X54630326Y-47195500D01*
X54897063Y-47195500D01*
X54899374Y-47195521D01*
X54967499Y-47196770D01*
X54971256Y-47195746D01*
X54975217Y-47195500D01*
X55872063Y-47195500D01*
X55874374Y-47195521D01*
X55942499Y-47196770D01*
X55946256Y-47195746D01*
X55950217Y-47195500D01*
X56847063Y-47195500D01*
X56849374Y-47195521D01*
X56917499Y-47196770D01*
X56921256Y-47195746D01*
X56925217Y-47195500D01*
X57129674Y-47195500D01*
X57202740Y-47180966D01*
X57285601Y-47125601D01*
X57340966Y-47042740D01*
X57355500Y-46969674D01*
X57355500Y-46747576D01*
X57357246Y-46726671D01*
X57359689Y-46712148D01*
X57360496Y-46707354D01*
X57360647Y-46695000D01*
X57356773Y-46667949D01*
X57355500Y-46650087D01*
X57355500Y-45772576D01*
X57357246Y-45751671D01*
X57359689Y-45737148D01*
X57360496Y-45732354D01*
X57360647Y-45720000D01*
X57356773Y-45692949D01*
X57355500Y-45675087D01*
X57355500Y-44797576D01*
X57357246Y-44776671D01*
X57359689Y-44762148D01*
X57360496Y-44757354D01*
X57360647Y-44745000D01*
X57356773Y-44717949D01*
X57355500Y-44700087D01*
X57355500Y-44470326D01*
X57340966Y-44397260D01*
X57285601Y-44314399D01*
X57202740Y-44259034D01*
X57129674Y-44244500D01*
X56863574Y-44244500D01*
X56862804Y-44244498D01*
X56862191Y-44244494D01*
X56786376Y-44244031D01*
X56785047Y-44244411D01*
X56783737Y-44244500D01*
X55888574Y-44244500D01*
X55887804Y-44244498D01*
X55887191Y-44244494D01*
X55811376Y-44244031D01*
X55810047Y-44244411D01*
X55808737Y-44244500D01*
X54913574Y-44244500D01*
X54912804Y-44244498D01*
X54912191Y-44244494D01*
X54836376Y-44244031D01*
X54835047Y-44244411D01*
X54833737Y-44244500D01*
X54630326Y-44244500D01*
X54557260Y-44259034D01*
X54474399Y-44314399D01*
X54419034Y-44397260D01*
X54404500Y-44470326D01*
X54404500Y-44696259D01*
X54403000Y-44715643D01*
X54399391Y-44738823D01*
X54400555Y-44747725D01*
X54400555Y-44747728D01*
X54403436Y-44769756D01*
X54404500Y-44786093D01*
X54404500Y-45671259D01*
X54403000Y-45690643D01*
X54399391Y-45713823D01*
X54400555Y-45722725D01*
X54400555Y-45722728D01*
X54403436Y-45744756D01*
X54404500Y-45761093D01*
X54404500Y-46646259D01*
X54403000Y-46665643D01*
X54399391Y-46688823D01*
X46312500Y-46688823D01*
X46312500Y-45866326D01*
X46297966Y-45793260D01*
X46242601Y-45710399D01*
X46159740Y-45655034D01*
X46086674Y-45640500D01*
X44337326Y-45640500D01*
X44264260Y-45655034D01*
X44181399Y-45710399D01*
X44126034Y-45793260D01*
X44111500Y-45866326D01*
X44111500Y-47615674D01*
X36420100Y-47615674D01*
X36420100Y-41812590D01*
X59536100Y-41812590D01*
X59536703Y-41830132D01*
X59537891Y-41847394D01*
X59559811Y-41934742D01*
X59588957Y-41999480D01*
X59627944Y-42060867D01*
X59864696Y-42337077D01*
X59890850Y-42363443D01*
X59892560Y-42364933D01*
X59892573Y-42364945D01*
X59913265Y-42382972D01*
X59918395Y-42387441D01*
X59924360Y-42390708D01*
X59924362Y-42390710D01*
X59971321Y-42416433D01*
X60014249Y-42439949D01*
X60020766Y-42441862D01*
X60020767Y-42441863D01*
X60078047Y-42458682D01*
X60078051Y-42458683D01*
X60082370Y-42459951D01*
X60086818Y-42460591D01*
X60086825Y-42460592D01*
X60149904Y-42469661D01*
X60149911Y-42469661D01*
X60154352Y-42470300D01*
X61309978Y-42470300D01*
X61378099Y-42490302D01*
X61399073Y-42507205D01*
X68718029Y-49826161D01*
X68719286Y-49827290D01*
X68719289Y-49827293D01*
X68737126Y-49843316D01*
X68737136Y-49843324D01*
X68738370Y-49844433D01*
X68759344Y-49861336D01*
X68847687Y-49907549D01*
X68853625Y-49909292D01*
X68853626Y-49909293D01*
X68911485Y-49926282D01*
X68911489Y-49926283D01*
X68915808Y-49927551D01*
X68920256Y-49928191D01*
X68920263Y-49928192D01*
X68983342Y-49937261D01*
X68983349Y-49937261D01*
X68987790Y-49937900D01*
X69346190Y-49937900D01*
X69347254Y-49937863D01*
X69347279Y-49937863D01*
X69357359Y-49937516D01*
X69363732Y-49937297D01*
X69380994Y-49936109D01*
X69386408Y-49934750D01*
X69386410Y-49934750D01*
X69462936Y-49915546D01*
X69462940Y-49915545D01*
X69468342Y-49914189D01*
X69473424Y-49911901D01*
X69473427Y-49911900D01*
X69528971Y-49886893D01*
X69528972Y-49886893D01*
X69533080Y-49885043D01*
X69594467Y-49846056D01*
X69870677Y-49609304D01*
X69897043Y-49583150D01*
X69898533Y-49581440D01*
X69898545Y-49581427D01*
X69916572Y-49560735D01*
X69916574Y-49560733D01*
X69921041Y-49555605D01*
X69973549Y-49459751D01*
X69993551Y-49391630D01*
X69994192Y-49387175D01*
X70003261Y-49324096D01*
X70003261Y-49324089D01*
X70003900Y-49319648D01*
X70003900Y-48364736D01*
X70002097Y-48334435D01*
X69998553Y-48304763D01*
X69966162Y-48207377D01*
X69944293Y-48169474D01*
X71460700Y-48169474D01*
X71475234Y-48242540D01*
X71482128Y-48252857D01*
X71482128Y-48252858D01*
X71503237Y-48284450D01*
X71530599Y-48325401D01*
X71613460Y-48380766D01*
X71686526Y-48395300D01*
X73435874Y-48395300D01*
X73508940Y-48380766D01*
X73591801Y-48325401D01*
X73619163Y-48284450D01*
X73640272Y-48252858D01*
X73640272Y-48252857D01*
X73647166Y-48242540D01*
X73661700Y-48169474D01*
X73661700Y-46420126D01*
X73647166Y-46347060D01*
X73630616Y-46322290D01*
X73598693Y-46274514D01*
X73591801Y-46264199D01*
X73508940Y-46208834D01*
X73435874Y-46194300D01*
X71686526Y-46194300D01*
X71613460Y-46208834D01*
X71530599Y-46264199D01*
X71523707Y-46274514D01*
X71491785Y-46322290D01*
X71475234Y-46347060D01*
X71460700Y-46420126D01*
X71460700Y-48169474D01*
X69944293Y-48169474D01*
X69930681Y-48145882D01*
X69885741Y-48088703D01*
X67718185Y-46020805D01*
X67716065Y-46018733D01*
X67111781Y-45414449D01*
X67107467Y-45410236D01*
X67106012Y-45408848D01*
X67103422Y-45406377D01*
X67103379Y-45406336D01*
X67103152Y-45406120D01*
X67101334Y-45404427D01*
X67099013Y-45402264D01*
X67098964Y-45402219D01*
X67098715Y-45401987D01*
X67070738Y-45376540D01*
X62083346Y-40840269D01*
X62083341Y-40840265D01*
X62082364Y-40839376D01*
X62066017Y-40825709D01*
X62049359Y-40812923D01*
X62044173Y-40810288D01*
X62044170Y-40810286D01*
X61970959Y-40773086D01*
X61970958Y-40773086D01*
X61965773Y-40770451D01*
X61960195Y-40768813D01*
X61960192Y-40768812D01*
X61901975Y-40751718D01*
X61901971Y-40751717D01*
X61897652Y-40750449D01*
X61893204Y-40749809D01*
X61893197Y-40749808D01*
X61830118Y-40740739D01*
X61830111Y-40740739D01*
X61825670Y-40740100D01*
X60148590Y-40740100D01*
X60146935Y-40740189D01*
X60146923Y-40740189D01*
X60123541Y-40741442D01*
X60121283Y-40741563D01*
X60119606Y-40741743D01*
X60119597Y-40741744D01*
X60100658Y-40743780D01*
X60100657Y-40743780D01*
X60094500Y-40744442D01*
X60088595Y-40746291D01*
X60088590Y-40746292D01*
X60016672Y-40768812D01*
X59999356Y-40774234D01*
X59993932Y-40777196D01*
X59993927Y-40777198D01*
X59962753Y-40794221D01*
X59937044Y-40808260D01*
X59878829Y-40851839D01*
X59647839Y-41082829D01*
X59629567Y-41103170D01*
X59612664Y-41124144D01*
X59566451Y-41212487D01*
X59546449Y-41280608D01*
X59536100Y-41352590D01*
X59536100Y-41812590D01*
X36420100Y-41812590D01*
X36420100Y-37034071D01*
X39557468Y-37034071D01*
X39557555Y-37038073D01*
X39557555Y-37038080D01*
X39562972Y-37286329D01*
X39564149Y-37340265D01*
X39609683Y-37643130D01*
X39610779Y-37646990D01*
X39610780Y-37646995D01*
X39624106Y-37693930D01*
X39693331Y-37937753D01*
X39813737Y-38219360D01*
X39968949Y-38483385D01*
X40156451Y-38725547D01*
X40373204Y-38941922D01*
X40376385Y-38944376D01*
X40376386Y-38944377D01*
X40612501Y-39126539D01*
X40612505Y-39126542D01*
X40615694Y-39129002D01*
X40619173Y-39131039D01*
X40795979Y-39234563D01*
X40879989Y-39283753D01*
X40883674Y-39285321D01*
X40883678Y-39285323D01*
X40994611Y-39332525D01*
X41161806Y-39403667D01*
X41456575Y-39486801D01*
X41677138Y-39519568D01*
X41756219Y-39531316D01*
X41756221Y-39531316D01*
X41759518Y-39531806D01*
X41762849Y-39531946D01*
X41762853Y-39531946D01*
X41799537Y-39533483D01*
X41842884Y-39535300D01*
X42038274Y-39535300D01*
X42161715Y-39527426D01*
X42262439Y-39521001D01*
X42262444Y-39521000D01*
X42266447Y-39520745D01*
X42270384Y-39519983D01*
X42270386Y-39519983D01*
X42563201Y-39463330D01*
X42563205Y-39463329D01*
X42567138Y-39462568D01*
X42858000Y-39366656D01*
X43134318Y-39234563D01*
X43391612Y-39068431D01*
X43625710Y-38870952D01*
X43832819Y-38645329D01*
X44009580Y-38395218D01*
X44153128Y-38124674D01*
X44154544Y-38120917D01*
X44259719Y-37841844D01*
X44259721Y-37841838D01*
X44261136Y-37838083D01*
X44296287Y-37689963D01*
X44330924Y-37544007D01*
X44330925Y-37544002D01*
X44331853Y-37540091D01*
X44364132Y-37235529D01*
X44360933Y-37088880D01*
X44360846Y-37084871D01*
X75371468Y-37084871D01*
X75371555Y-37088873D01*
X75371555Y-37088880D01*
X75377127Y-37344236D01*
X75378149Y-37391065D01*
X75423683Y-37693930D01*
X75507331Y-37988553D01*
X75627737Y-38270160D01*
X75782949Y-38534185D01*
X75970451Y-38776347D01*
X76187204Y-38992722D01*
X76190385Y-38995176D01*
X76190386Y-38995177D01*
X76426501Y-39177339D01*
X76426505Y-39177342D01*
X76429694Y-39179802D01*
X76433173Y-39181839D01*
X76609979Y-39285363D01*
X76693989Y-39334553D01*
X76697674Y-39336121D01*
X76697678Y-39336123D01*
X76834898Y-39394510D01*
X76975806Y-39454467D01*
X77270575Y-39537601D01*
X77491138Y-39570368D01*
X77570219Y-39582116D01*
X77570221Y-39582116D01*
X77573518Y-39582606D01*
X77576849Y-39582746D01*
X77576853Y-39582746D01*
X77613537Y-39584283D01*
X77656884Y-39586100D01*
X77852274Y-39586100D01*
X77975715Y-39578226D01*
X78076439Y-39571801D01*
X78076444Y-39571800D01*
X78080447Y-39571545D01*
X78084384Y-39570783D01*
X78084386Y-39570783D01*
X78377201Y-39514130D01*
X78377205Y-39514129D01*
X78381138Y-39513368D01*
X78672000Y-39417456D01*
X78948318Y-39285363D01*
X79205612Y-39119231D01*
X79439710Y-38921752D01*
X79646819Y-38696129D01*
X79680631Y-38648287D01*
X79794929Y-38486558D01*
X79823580Y-38446018D01*
X79967128Y-38175474D01*
X80036180Y-37992251D01*
X80073719Y-37892644D01*
X80073721Y-37892638D01*
X80075136Y-37888883D01*
X80089449Y-37828569D01*
X80144924Y-37594807D01*
X80144925Y-37594802D01*
X80145853Y-37590891D01*
X80178132Y-37286329D01*
X80176937Y-37231520D01*
X80171539Y-36984152D01*
X80171539Y-36984147D01*
X80171451Y-36980135D01*
X80125917Y-36677270D01*
X80112621Y-36630437D01*
X80043368Y-36386519D01*
X80042269Y-36382647D01*
X79921863Y-36101040D01*
X79766651Y-35837015D01*
X79579149Y-35594853D01*
X79362396Y-35378478D01*
X79293368Y-35325223D01*
X79123099Y-35193861D01*
X79123095Y-35193858D01*
X79119906Y-35191398D01*
X78943338Y-35088013D01*
X78859075Y-35038675D01*
X78859072Y-35038673D01*
X78855611Y-35036647D01*
X78851926Y-35035079D01*
X78851922Y-35035077D01*
X78664851Y-34955478D01*
X78573794Y-34916733D01*
X78279025Y-34833599D01*
X78048814Y-34799399D01*
X77979381Y-34789084D01*
X77979379Y-34789084D01*
X77976082Y-34788594D01*
X77972751Y-34788454D01*
X77972747Y-34788454D01*
X77936063Y-34786917D01*
X77892716Y-34785100D01*
X77697326Y-34785100D01*
X77573885Y-34792974D01*
X77473161Y-34799399D01*
X77473156Y-34799400D01*
X77469153Y-34799655D01*
X77465216Y-34800417D01*
X77465214Y-34800417D01*
X77172399Y-34857070D01*
X77172395Y-34857071D01*
X77168462Y-34857832D01*
X76877600Y-34953744D01*
X76601282Y-35085837D01*
X76343988Y-35251969D01*
X76109890Y-35449448D01*
X75902781Y-35675071D01*
X75726020Y-35925182D01*
X75582472Y-36195726D01*
X75581057Y-36199482D01*
X75581056Y-36199483D01*
X75492134Y-36435432D01*
X75474464Y-36482317D01*
X75473535Y-36486232D01*
X75414853Y-36733511D01*
X75403747Y-36780309D01*
X75371468Y-37084871D01*
X44360846Y-37084871D01*
X44357539Y-36933352D01*
X44357539Y-36933347D01*
X44357451Y-36929335D01*
X44311917Y-36626470D01*
X44228269Y-36331847D01*
X44107863Y-36050240D01*
X43952651Y-35786215D01*
X43765149Y-35544053D01*
X43548396Y-35327678D01*
X43545214Y-35325223D01*
X43309099Y-35143061D01*
X43309095Y-35143058D01*
X43305906Y-35140598D01*
X43209427Y-35084107D01*
X43045075Y-34987875D01*
X43045072Y-34987873D01*
X43041611Y-34985847D01*
X43037926Y-34984279D01*
X43037922Y-34984277D01*
X42850851Y-34904678D01*
X42759794Y-34865933D01*
X42465025Y-34782799D01*
X42234814Y-34748599D01*
X42165381Y-34738284D01*
X42165379Y-34738284D01*
X42162082Y-34737794D01*
X42158751Y-34737654D01*
X42158747Y-34737654D01*
X42122063Y-34736117D01*
X42078716Y-34734300D01*
X41883326Y-34734300D01*
X41759885Y-34742174D01*
X41659161Y-34748599D01*
X41659156Y-34748600D01*
X41655153Y-34748855D01*
X41651216Y-34749617D01*
X41651214Y-34749617D01*
X41358399Y-34806270D01*
X41358395Y-34806271D01*
X41354462Y-34807032D01*
X41063600Y-34902944D01*
X40787282Y-35035037D01*
X40529988Y-35201169D01*
X40295890Y-35398648D01*
X40088781Y-35624271D01*
X40086467Y-35627546D01*
X40086464Y-35627549D01*
X40052879Y-35675071D01*
X39912020Y-35874382D01*
X39768472Y-36144926D01*
X39767057Y-36148682D01*
X39767056Y-36148683D01*
X39678882Y-36382647D01*
X39660464Y-36431517D01*
X39659535Y-36435432D01*
X39601203Y-36681237D01*
X39589747Y-36729509D01*
X39557468Y-37034071D01*
X36420100Y-37034071D01*
X36420100Y-31161300D01*
X36440102Y-31093179D01*
X36493758Y-31046686D01*
X36546100Y-31035300D01*
X82427500Y-31035300D01*
X82495621Y-31055302D01*
G37*
%TD.AperFunction*%
%TD*%
%TA.AperFunction,Conductor*%
%TO.N,5V*%
G36*
X58277769Y-54985602D02*
G01*
X58305314Y-55009600D01*
X58542522Y-55286342D01*
X58571668Y-55351080D01*
X58572850Y-55367107D01*
X58623200Y-60502800D01*
X58630357Y-60508789D01*
X59852397Y-61531400D01*
X59891803Y-61590457D01*
X59897531Y-61629124D01*
X59893690Y-62071884D01*
X59873098Y-62139829D01*
X59850667Y-62165616D01*
X59528978Y-62447095D01*
X59522429Y-62452825D01*
X59457991Y-62482629D01*
X59439457Y-62484000D01*
X58929390Y-62484000D01*
X58861269Y-62463998D01*
X58840295Y-62447095D01*
X57237705Y-60844505D01*
X57203679Y-60782193D01*
X57200800Y-60755410D01*
X57200800Y-55373390D01*
X57220802Y-55305269D01*
X57237705Y-55284295D01*
X57519495Y-55002505D01*
X57581807Y-54968479D01*
X57608590Y-54965600D01*
X58209648Y-54965600D01*
X58277769Y-54985602D01*
G37*
%TD.AperFunction*%
%TD*%
M02*
