%TF.GenerationSoftware,KiCad,Pcbnew,(6.0.6)*%
%TF.CreationDate,2022-12-02T12:37:59-05:00*%
%TF.ProjectId,SplitRail DC Power Supply,53706c69-7452-4616-996c-20444320506f,rev?*%
%TF.SameCoordinates,Original*%
%TF.FileFunction,Copper,L1,Top*%
%TF.FilePolarity,Positive*%
%FSLAX46Y46*%
G04 Gerber Fmt 4.6, Leading zero omitted, Abs format (unit mm)*
G04 Created by KiCad (PCBNEW (6.0.6)) date 2022-12-02 12:37:59*
%MOMM*%
%LPD*%
G01*
G04 APERTURE LIST*
G04 Aperture macros list*
%AMRoundRect*
0 Rectangle with rounded corners*
0 $1 Rounding radius*
0 $2 $3 $4 $5 $6 $7 $8 $9 X,Y pos of 4 corners*
0 Add a 4 corners polygon primitive as box body*
4,1,4,$2,$3,$4,$5,$6,$7,$8,$9,$2,$3,0*
0 Add four circle primitives for the rounded corners*
1,1,$1+$1,$2,$3*
1,1,$1+$1,$4,$5*
1,1,$1+$1,$6,$7*
1,1,$1+$1,$8,$9*
0 Add four rect primitives between the rounded corners*
20,1,$1+$1,$2,$3,$4,$5,0*
20,1,$1+$1,$4,$5,$6,$7,0*
20,1,$1+$1,$6,$7,$8,$9,0*
20,1,$1+$1,$8,$9,$2,$3,0*%
G04 Aperture macros list end*
%TA.AperFunction,ComponentPad*%
%ADD10R,1.700000X1.700000*%
%TD*%
%TA.AperFunction,ComponentPad*%
%ADD11O,1.700000X1.700000*%
%TD*%
%TA.AperFunction,SMDPad,CuDef*%
%ADD12RoundRect,0.237500X0.300000X0.237500X-0.300000X0.237500X-0.300000X-0.237500X0.300000X-0.237500X0*%
%TD*%
%TA.AperFunction,SMDPad,CuDef*%
%ADD13R,1.500000X2.400000*%
%TD*%
%TA.AperFunction,SMDPad,CuDef*%
%ADD14RoundRect,0.237500X0.237500X-0.300000X0.237500X0.300000X-0.237500X0.300000X-0.237500X-0.300000X0*%
%TD*%
%TA.AperFunction,SMDPad,CuDef*%
%ADD15RoundRect,0.237500X-0.237500X0.250000X-0.237500X-0.250000X0.237500X-0.250000X0.237500X0.250000X0*%
%TD*%
%TA.AperFunction,SMDPad,CuDef*%
%ADD16RoundRect,0.237500X0.250000X0.237500X-0.250000X0.237500X-0.250000X-0.237500X0.250000X-0.237500X0*%
%TD*%
%TA.AperFunction,SMDPad,CuDef*%
%ADD17R,0.980000X0.920000*%
%TD*%
%TA.AperFunction,SMDPad,CuDef*%
%ADD18RoundRect,0.225000X-0.250000X0.225000X-0.250000X-0.225000X0.250000X-0.225000X0.250000X0.225000X0*%
%TD*%
%TA.AperFunction,SMDPad,CuDef*%
%ADD19RoundRect,0.062500X0.062500X-0.325000X0.062500X0.325000X-0.062500X0.325000X-0.062500X-0.325000X0*%
%TD*%
%TA.AperFunction,SMDPad,CuDef*%
%ADD20RoundRect,0.062500X0.325000X-0.062500X0.325000X0.062500X-0.325000X0.062500X-0.325000X-0.062500X0*%
%TD*%
%TA.AperFunction,ComponentPad*%
%ADD21C,0.500000*%
%TD*%
%TA.AperFunction,SMDPad,CuDef*%
%ADD22R,2.450000X2.450000*%
%TD*%
%TA.AperFunction,SMDPad,CuDef*%
%ADD23R,1.000000X1.400000*%
%TD*%
%TA.AperFunction,SMDPad,CuDef*%
%ADD24RoundRect,0.225000X0.250000X-0.225000X0.250000X0.225000X-0.250000X0.225000X-0.250000X-0.225000X0*%
%TD*%
%TA.AperFunction,SMDPad,CuDef*%
%ADD25R,3.439000X3.254000*%
%TD*%
%TA.AperFunction,SMDPad,CuDef*%
%ADD26RoundRect,0.237500X0.237500X-0.250000X0.237500X0.250000X-0.237500X0.250000X-0.237500X-0.250000X0*%
%TD*%
%TA.AperFunction,SMDPad,CuDef*%
%ADD27R,3.300000X2.500000*%
%TD*%
%TA.AperFunction,SMDPad,CuDef*%
%ADD28R,0.920000X0.980000*%
%TD*%
%TA.AperFunction,SMDPad,CuDef*%
%ADD29R,2.500000X1.800000*%
%TD*%
%TA.AperFunction,SMDPad,CuDef*%
%ADD30R,0.600000X1.550000*%
%TD*%
%TA.AperFunction,SMDPad,CuDef*%
%ADD31R,3.100000X2.600000*%
%TD*%
%TA.AperFunction,ComponentPad*%
%ADD32C,0.600000*%
%TD*%
%TA.AperFunction,SMDPad,CuDef*%
%ADD33R,4.500000X2.950000*%
%TD*%
%TA.AperFunction,SMDPad,CuDef*%
%ADD34R,2.400000X1.500000*%
%TD*%
%TA.AperFunction,SMDPad,CuDef*%
%ADD35RoundRect,0.237500X-0.237500X0.300000X-0.237500X-0.300000X0.237500X-0.300000X0.237500X0.300000X0*%
%TD*%
%TA.AperFunction,SMDPad,CuDef*%
%ADD36RoundRect,0.225000X0.225000X0.250000X-0.225000X0.250000X-0.225000X-0.250000X0.225000X-0.250000X0*%
%TD*%
%TA.AperFunction,ViaPad*%
%ADD37C,0.800000*%
%TD*%
%TA.AperFunction,Conductor*%
%ADD38C,0.250000*%
%TD*%
G04 APERTURE END LIST*
D10*
%TO.P,J3,1,Pin_1*%
%TO.N,Net-(C10-2-Pad2)*%
X72561200Y-47294800D03*
D11*
%TO.P,J3,2,Pin_2*%
%TO.N,Earth*%
X72561200Y-44754800D03*
%TD*%
D12*
%TO.P,C7-2,1*%
%TO.N,Net-(C7-2-Pad1)*%
X51865700Y-41402000D03*
%TO.P,C7-2,2*%
%TO.N,Earth*%
X50140700Y-41402000D03*
%TD*%
D13*
%TO.P,L2-2,1,1*%
%TO.N,Net-(D2-Pad1)*%
X62242000Y-43180000D03*
%TO.P,L2-2,2,2*%
%TO.N,Earth*%
X67742000Y-43180000D03*
%TD*%
D14*
%TO.P,C8-2,1*%
%TO.N,Net-(C8-2-Pad1)*%
X53797200Y-39927700D03*
%TO.P,C8-2,2*%
%TO.N,Earth*%
X53797200Y-38202700D03*
%TD*%
D15*
%TO.P,R1-1,1*%
%TO.N,5V*%
X59486800Y-63755900D03*
%TO.P,R1-1,2*%
%TO.N,Net-(R1-1-Pad2)*%
X59486800Y-65580900D03*
%TD*%
D16*
%TO.P,R7-2,1*%
%TO.N,5V*%
X57960900Y-50292000D03*
%TO.P,R7-2,2*%
%TO.N,Net-(C3-2-Pad1)*%
X56135900Y-50292000D03*
%TD*%
D12*
%TO.P,C6-2,1*%
%TO.N,Net-(C6-2-Pad1)*%
X51865700Y-43789600D03*
%TO.P,C6-2,2*%
%TO.N,Earth*%
X50140700Y-43789600D03*
%TD*%
D17*
%TO.P,C10-2,1*%
%TO.N,Net-(C10-2-Pad1)*%
X59283600Y-40068200D03*
%TO.P,C10-2,2*%
%TO.N,Net-(C10-2-Pad2)*%
X59283600Y-41618200D03*
%TD*%
D10*
%TO.P,J1,1,Pin_1*%
%TO.N,Earth*%
X53589000Y-79197200D03*
D11*
%TO.P,J1,2,Pin_2*%
%TO.N,Net-(C1-1-Pad1)*%
X56129000Y-79197200D03*
%TD*%
D18*
%TO.P,C3-1,1*%
%TO.N,5V*%
X61671200Y-63741000D03*
%TO.P,C3-1,2*%
%TO.N,Earth*%
X61671200Y-65291000D03*
%TD*%
D14*
%TO.P,C9-2,1*%
%TO.N,Net-(C4-2-Pad1)*%
X47904400Y-47700100D03*
%TO.P,C9-2,2*%
%TO.N,Net-(C9-2-Pad2)*%
X47904400Y-45975100D03*
%TD*%
D19*
%TO.P,U2,1,INP*%
%TO.N,Net-(D1-Pad2)*%
X54630000Y-47707500D03*
%TO.P,U2,2,PGND*%
%TO.N,Earth*%
X55130000Y-47707500D03*
%TO.P,U2,3,PGND*%
X55630000Y-47707500D03*
%TO.P,U2,4,VIN*%
%TO.N,Net-(C3-2-Pad1)*%
X56130000Y-47707500D03*
%TO.P,U2,5,INN*%
%TO.N,5V*%
X56630000Y-47707500D03*
%TO.P,U2,6,INN*%
X57130000Y-47707500D03*
D20*
%TO.P,U2,7,BSW*%
%TO.N,Net-(Q1-Pad1)*%
X57867500Y-46970000D03*
%TO.P,U2,8,ENP*%
%TO.N,Net-(C3-2-Pad1)*%
X57867500Y-46470000D03*
%TO.P,U2,9,PSP*%
X57867500Y-45970000D03*
%TO.P,U2,10,ENN*%
X57867500Y-45470000D03*
%TO.P,U2,11,PSN*%
X57867500Y-44970000D03*
%TO.P,U2,12,NC*%
%TO.N,unconnected-(U2-Pad12)*%
X57867500Y-44470000D03*
D19*
%TO.P,U2,13,OUTN*%
%TO.N,Net-(D2-Pad1)*%
X57130000Y-43732500D03*
%TO.P,U2,14,OUTN*%
X56630000Y-43732500D03*
%TO.P,U2,15,VNEG*%
%TO.N,Net-(C10-2-Pad2)*%
X56130000Y-43732500D03*
%TO.P,U2,16,FBN*%
%TO.N,Net-(C10-2-Pad1)*%
X55630000Y-43732500D03*
%TO.P,U2,17,VREF*%
%TO.N,Net-(C8-2-Pad1)*%
X55130000Y-43732500D03*
%TO.P,U2,18,CN*%
%TO.N,Net-(C7-2-Pad1)*%
X54630000Y-43732500D03*
D20*
%TO.P,U2,19,AGND*%
%TO.N,Earth*%
X53892500Y-44470000D03*
%TO.P,U2,20,NC*%
%TO.N,unconnected-(U2-Pad20)*%
X53892500Y-44970000D03*
%TO.P,U2,21,CP*%
%TO.N,Net-(C6-2-Pad1)*%
X53892500Y-45470000D03*
%TO.P,U2,22,FBP*%
%TO.N,Net-(C9-2-Pad2)*%
X53892500Y-45970000D03*
%TO.P,U2,23,VPOS*%
%TO.N,Net-(C4-2-Pad1)*%
X53892500Y-46470000D03*
%TO.P,U2,24,INP*%
%TO.N,Net-(D1-Pad2)*%
X53892500Y-46970000D03*
D21*
%TO.P,U2,25,EP*%
%TO.N,unconnected-(U2-Pad25)*%
X54905000Y-44745000D03*
D22*
X55880000Y-45720000D03*
D21*
X56855000Y-44745000D03*
X54905000Y-46695000D03*
X55880000Y-46695000D03*
X54905000Y-45720000D03*
X56855000Y-46695000D03*
X55880000Y-45720000D03*
X55880000Y-44745000D03*
X56855000Y-45720000D03*
%TD*%
D15*
%TO.P,R2-2,1*%
%TO.N,Net-(C9-2-Pad2)*%
X51612800Y-45975900D03*
%TO.P,R2-2,2*%
%TO.N,Earth*%
X51612800Y-47800900D03*
%TD*%
D14*
%TO.P,C1-2,1*%
%TO.N,Net-(C1-2-Pad1)*%
X56134000Y-57199700D03*
%TO.P,C1-2,2*%
%TO.N,Earth*%
X56134000Y-55474700D03*
%TD*%
D23*
%TO.P,Q1,1,G*%
%TO.N,Net-(Q1-Pad1)*%
X61554400Y-56050000D03*
%TO.P,Q1,2,S*%
%TO.N,5V*%
X59654400Y-56050000D03*
%TO.P,Q1,3,D*%
%TO.N,Net-(C1-2-Pad1)*%
X60604400Y-58250000D03*
%TD*%
D24*
%TO.P,C5-2,1*%
%TO.N,Net-(C10-2-Pad2)*%
X69665600Y-47307800D03*
%TO.P,C5-2,2*%
%TO.N,Earth*%
X69665600Y-45757800D03*
%TD*%
D15*
%TO.P,R4-2,1*%
%TO.N,Net-(C8-2-Pad1)*%
X55626000Y-39981500D03*
%TO.P,R4-2,2*%
%TO.N,Net-(C10-2-Pad1)*%
X55626000Y-41806500D03*
%TD*%
D25*
%TO.P,L1-1,1*%
%TO.N,Net-(C2-1-Pad1)*%
X73502600Y-63550800D03*
%TO.P,L1-1,2*%
%TO.N,5V*%
X64876600Y-63550800D03*
%TD*%
D26*
%TO.P,R1-2,1*%
%TO.N,Net-(C4-2-Pad1)*%
X49784000Y-47800900D03*
%TO.P,R1-2,2*%
%TO.N,Net-(C9-2-Pad2)*%
X49784000Y-45975900D03*
%TD*%
D27*
%TO.P,D2-1,1,K*%
%TO.N,Net-(C2-1-Pad1)*%
X63449200Y-71272400D03*
%TO.P,D2-1,2,A*%
%TO.N,Earth*%
X63449200Y-78072400D03*
%TD*%
D26*
%TO.P,R2-1,1*%
%TO.N,Net-(R1-1-Pad2)*%
X57353200Y-65580900D03*
%TO.P,R2-1,2*%
%TO.N,Earth*%
X57353200Y-63755900D03*
%TD*%
D28*
%TO.P,C1-1,1*%
%TO.N,Net-(C1-1-Pad1)*%
X56096200Y-76454000D03*
%TO.P,C1-1,2*%
%TO.N,Earth*%
X54546200Y-76454000D03*
%TD*%
D29*
%TO.P,D2,1,K*%
%TO.N,Net-(D2-Pad1)*%
X63042800Y-48615600D03*
%TO.P,D2,2,A*%
%TO.N,Net-(C10-2-Pad2)*%
X67042800Y-48615600D03*
%TD*%
D30*
%TO.P,U1,1,BOOT*%
%TO.N,Net-(C2-1-Pad2)*%
X57226200Y-68623200D03*
%TO.P,U1,2,NC*%
%TO.N,unconnected-(U1-Pad2)*%
X55956200Y-68623200D03*
%TO.P,U1,3,NC*%
%TO.N,unconnected-(U1-Pad3)*%
X54686200Y-68623200D03*
%TO.P,U1,4,VSENSE*%
%TO.N,Net-(R1-1-Pad2)*%
X53416200Y-68623200D03*
%TO.P,U1,5,EN*%
%TO.N,unconnected-(U1-Pad5)*%
X53416200Y-74023200D03*
%TO.P,U1,6,GND*%
%TO.N,Earth*%
X54686200Y-74023200D03*
%TO.P,U1,7,VIN*%
%TO.N,Net-(C1-1-Pad1)*%
X55956200Y-74023200D03*
%TO.P,U1,8,PH*%
%TO.N,Net-(C2-1-Pad1)*%
X57226200Y-74023200D03*
D31*
%TO.P,U1,9,GNDPAD*%
%TO.N,Earth*%
X55321200Y-71323200D03*
D32*
X53521200Y-71923200D03*
X54621200Y-70723200D03*
X53521200Y-70723200D03*
X57121200Y-70723200D03*
D33*
X55321200Y-71323200D03*
D32*
X55921200Y-71923200D03*
X57121200Y-71923200D03*
X54621200Y-71923200D03*
X55921200Y-70723200D03*
%TD*%
D34*
%TO.P,L1-2,1,1*%
%TO.N,Net-(C1-2-Pad1)*%
X51104800Y-59493600D03*
%TO.P,L1-2,2,2*%
%TO.N,Net-(D1-Pad2)*%
X51104800Y-53993600D03*
%TD*%
D26*
%TO.P,R3-2,1*%
%TO.N,Net-(C10-2-Pad2)*%
X57454800Y-41806500D03*
%TO.P,R3-2,2*%
%TO.N,Net-(C10-2-Pad1)*%
X57454800Y-39981500D03*
%TD*%
D12*
%TO.P,C2-2,1*%
%TO.N,5V*%
X59587300Y-53797200D03*
%TO.P,C2-2,2*%
%TO.N,Earth*%
X57862300Y-53797200D03*
%TD*%
D35*
%TO.P,C3-2,1*%
%TO.N,Net-(C3-2-Pad1)*%
X56134000Y-52020300D03*
%TO.P,C3-2,2*%
%TO.N,Earth*%
X56134000Y-53745300D03*
%TD*%
D10*
%TO.P,J2,1,Pin_1*%
%TO.N,Net-(C4-2-Pad1)*%
X45212000Y-46741000D03*
D11*
%TO.P,J2,2,Pin_2*%
%TO.N,Earth*%
X45212000Y-44201000D03*
%TD*%
D12*
%TO.P,C2-1,1*%
%TO.N,Net-(C2-1-Pad1)*%
X61466900Y-67411600D03*
%TO.P,C2-1,2*%
%TO.N,Net-(C2-1-Pad2)*%
X59741900Y-67411600D03*
%TD*%
D36*
%TO.P,C4-2,1*%
%TO.N,Net-(C4-2-Pad1)*%
X45580600Y-50749200D03*
%TO.P,C4-2,2*%
%TO.N,Earth*%
X44030600Y-50749200D03*
%TD*%
D29*
%TO.P,D1,1,K*%
%TO.N,Net-(C4-2-Pad1)*%
X48139600Y-50698400D03*
%TO.P,D1,2,A*%
%TO.N,Net-(D1-Pad2)*%
X52139600Y-50698400D03*
%TD*%
D37*
%TO.N,Earth*%
X74066400Y-75285600D03*
X79400400Y-75285600D03*
X75844400Y-75285600D03*
X75844400Y-76758800D03*
X74066400Y-76758800D03*
X77622400Y-75285600D03*
X79400400Y-76758800D03*
X77622400Y-76758800D03*
X67513200Y-75285600D03*
X72847200Y-75285600D03*
X69291200Y-75285600D03*
X69291200Y-76758800D03*
X67513200Y-76758800D03*
X71069200Y-75285600D03*
X72847200Y-76758800D03*
X71069200Y-76758800D03*
X67513200Y-77927200D03*
X72847200Y-77927200D03*
X69291200Y-77927200D03*
X69291200Y-79400400D03*
X67513200Y-79400400D03*
X71069200Y-77927200D03*
X72847200Y-79400400D03*
X71069200Y-79400400D03*
X67513200Y-80721200D03*
X72847200Y-80721200D03*
X69291200Y-80721200D03*
X69291200Y-82194400D03*
X67513200Y-82194400D03*
X71069200Y-80721200D03*
X72847200Y-82194400D03*
X71069200Y-82194400D03*
X60807600Y-83413600D03*
X66141600Y-83413600D03*
X62585600Y-83413600D03*
X62585600Y-84886800D03*
X60807600Y-84886800D03*
X64363600Y-83413600D03*
X66141600Y-84886800D03*
X64363600Y-84886800D03*
X60807600Y-80721200D03*
X66141600Y-80721200D03*
X62585600Y-80721200D03*
X62585600Y-82194400D03*
X60807600Y-82194400D03*
X64363600Y-80721200D03*
X66141600Y-82194400D03*
X64363600Y-82194400D03*
X51816000Y-66649600D03*
X51816000Y-61315600D03*
X51816000Y-64871600D03*
X53289200Y-64871600D03*
X51816000Y-63093600D03*
X53289200Y-61315600D03*
X53289200Y-63093600D03*
X49022000Y-66649600D03*
X49022000Y-61315600D03*
X49022000Y-64871600D03*
X50495200Y-64871600D03*
X50495200Y-66649600D03*
X49022000Y-63093600D03*
X50495200Y-61315600D03*
X50495200Y-63093600D03*
X46177200Y-66649600D03*
X46177200Y-61315600D03*
X46177200Y-64871600D03*
X47650400Y-64871600D03*
X47650400Y-66649600D03*
X46177200Y-63093600D03*
X47650400Y-61315600D03*
X47650400Y-63093600D03*
X37846000Y-48209200D03*
X37846000Y-42875200D03*
X37846000Y-46431200D03*
X39319200Y-46431200D03*
X39319200Y-48209200D03*
X37846000Y-44653200D03*
X39319200Y-42875200D03*
X39319200Y-44653200D03*
X40690800Y-48209200D03*
X40690800Y-42875200D03*
X40690800Y-46431200D03*
X42164000Y-46431200D03*
X42164000Y-48209200D03*
X40690800Y-44653200D03*
X42164000Y-42875200D03*
X42164000Y-44653200D03*
X47193200Y-35001200D03*
X52527200Y-35001200D03*
X48971200Y-35001200D03*
X48971200Y-36474400D03*
X47193200Y-36474400D03*
X50749200Y-35001200D03*
X52527200Y-36474400D03*
X50749200Y-36474400D03*
X47193200Y-32308800D03*
X52527200Y-32308800D03*
X48971200Y-32308800D03*
X48971200Y-33782000D03*
X47193200Y-33782000D03*
X50749200Y-32308800D03*
X52527200Y-33782000D03*
X50749200Y-33782000D03*
X53797200Y-32308800D03*
X59131200Y-32308800D03*
X55575200Y-32308800D03*
X55575200Y-33782000D03*
X53797200Y-33782000D03*
X57353200Y-32308800D03*
X59131200Y-33782000D03*
X57353200Y-33782000D03*
X60706000Y-32308800D03*
X66040000Y-32308800D03*
X62484000Y-32308800D03*
X62484000Y-33782000D03*
X60706000Y-33782000D03*
X64262000Y-32308800D03*
X66040000Y-33782000D03*
X64262000Y-33782000D03*
X67411600Y-32308800D03*
X72745600Y-32308800D03*
X69189600Y-32308800D03*
X69189600Y-33782000D03*
X67411600Y-33782000D03*
X70967600Y-32308800D03*
X72745600Y-33782000D03*
X70967600Y-33782000D03*
X67411600Y-37642800D03*
X72745600Y-37642800D03*
X69189600Y-37642800D03*
X69189600Y-39116000D03*
X67411600Y-39116000D03*
X70967600Y-37642800D03*
X72745600Y-39116000D03*
X70967600Y-39116000D03*
X60655200Y-37592000D03*
X65989200Y-37592000D03*
X62433200Y-37592000D03*
X62433200Y-39065200D03*
X60655200Y-39065200D03*
X64211200Y-37592000D03*
X65989200Y-39065200D03*
X64211200Y-39065200D03*
X67411600Y-35001200D03*
X72745600Y-35001200D03*
X69189600Y-35001200D03*
X69189600Y-36474400D03*
X67411600Y-36474400D03*
X70967600Y-35001200D03*
X72745600Y-36474400D03*
X70967600Y-36474400D03*
X60655200Y-35001200D03*
X65989200Y-35001200D03*
X62433200Y-35001200D03*
X62433200Y-36474400D03*
X60655200Y-36474400D03*
X64211200Y-35001200D03*
X65989200Y-36474400D03*
X64211200Y-36474400D03*
X53797200Y-35001200D03*
X59131200Y-35001200D03*
X55575200Y-35001200D03*
X55575200Y-36474400D03*
X53797200Y-36474400D03*
X57353200Y-35001200D03*
X59131200Y-36474400D03*
X57353200Y-36474400D03*
X75793600Y-42062400D03*
X81127600Y-42062400D03*
X77571600Y-42062400D03*
X77571600Y-43535600D03*
X75793600Y-43535600D03*
X79349600Y-42062400D03*
X81127600Y-43535600D03*
X79349600Y-43535600D03*
X75844400Y-55778400D03*
X81178400Y-55778400D03*
X77622400Y-55778400D03*
X77622400Y-57251600D03*
X75844400Y-57251600D03*
X79400400Y-55778400D03*
X81178400Y-57251600D03*
X79400400Y-57251600D03*
X69138800Y-55778400D03*
X74472800Y-55778400D03*
X70916800Y-55778400D03*
X70916800Y-57251600D03*
X69138800Y-57251600D03*
X72694800Y-55778400D03*
X74472800Y-57251600D03*
X72694800Y-57251600D03*
X62636400Y-53035200D03*
X67970400Y-53035200D03*
X64414400Y-53035200D03*
X64414400Y-54508400D03*
X62636400Y-54508400D03*
X66192400Y-53035200D03*
X67970400Y-54508400D03*
X66192400Y-54508400D03*
X69138800Y-53035200D03*
X74472800Y-53035200D03*
X70916800Y-53035200D03*
X70916800Y-54508400D03*
X69138800Y-54508400D03*
X72694800Y-53035200D03*
X74472800Y-54508400D03*
X72694800Y-54508400D03*
X69138800Y-50342800D03*
X74472800Y-50342800D03*
X70916800Y-50342800D03*
X70916800Y-51816000D03*
X69138800Y-51816000D03*
X72694800Y-50342800D03*
X74472800Y-51816000D03*
X72694800Y-51816000D03*
X75793600Y-53035200D03*
X81127600Y-53035200D03*
X77571600Y-53035200D03*
X77571600Y-54508400D03*
X75793600Y-54508400D03*
X79349600Y-53035200D03*
X81127600Y-54508400D03*
X79349600Y-54508400D03*
X75793600Y-50342800D03*
X81127600Y-50342800D03*
X77571600Y-50342800D03*
X77571600Y-51816000D03*
X75793600Y-51816000D03*
X79349600Y-50342800D03*
X81127600Y-51816000D03*
X79349600Y-51816000D03*
X75793600Y-47548800D03*
X81127600Y-47548800D03*
X77571600Y-47548800D03*
X77571600Y-49022000D03*
X75793600Y-49022000D03*
X79349600Y-47548800D03*
X81127600Y-49022000D03*
X79349600Y-49022000D03*
X75793600Y-46177200D03*
X81127600Y-46177200D03*
X77571600Y-46177200D03*
X79349600Y-46177200D03*
X81127600Y-44704000D03*
X79349600Y-44704000D03*
X77571600Y-44704000D03*
X75793600Y-44704000D03*
%TO.N,5V*%
X57912000Y-55930800D03*
X59182000Y-61823600D03*
%TO.N,Net-(C3-2-Pad1)*%
X54914800Y-51003200D03*
X59182000Y-46024800D03*
%TO.N,Net-(C10-2-Pad2)*%
X60502800Y-41656000D03*
X69157600Y-48666400D03*
%TD*%
D38*
%TO.N,Earth*%
X53797200Y-38202700D02*
X53797200Y-38252400D01*
X51612800Y-47800900D02*
X51612800Y-48158400D01*
%TO.N,Net-(C1-2-Pad1)*%
X57234900Y-57199700D02*
X56134000Y-57199700D01*
X57041600Y-59493600D02*
X58285200Y-58250000D01*
X58285200Y-58250000D02*
X60604400Y-58250000D01*
X58285200Y-58250000D02*
X57234900Y-57199700D01*
X51104800Y-59493600D02*
X57041600Y-59493600D01*
%TO.N,Net-(C2-1-Pad2)*%
X57556400Y-67411600D02*
X57226200Y-67741800D01*
X59741900Y-67411600D02*
X57556400Y-67411600D01*
X57226200Y-67741800D02*
X57226200Y-68623200D01*
%TO.N,5V*%
X59501700Y-63741000D02*
X59486800Y-63755900D01*
X59654400Y-56050000D02*
X58031200Y-56050000D01*
X58031200Y-56050000D02*
X57912000Y-55930800D01*
X61861400Y-63550800D02*
X61671200Y-63741000D01*
X59484400Y-55880000D02*
X59654400Y-56050000D01*
%TO.N,Net-(C3-2-Pad1)*%
X58257900Y-45970000D02*
X58312700Y-46024800D01*
X57867500Y-45726300D02*
X58166000Y-46024800D01*
X56134000Y-52020300D02*
X56134000Y-50293900D01*
X57867500Y-44970000D02*
X57867500Y-45470000D01*
X57867500Y-45970000D02*
X58257900Y-45970000D01*
X56135900Y-47713400D02*
X56130000Y-47707500D01*
X56135900Y-50292000D02*
X55626000Y-50292000D01*
X58318400Y-46024800D02*
X58312700Y-46024800D01*
X58312700Y-46024800D02*
X57867500Y-46470000D01*
X57867500Y-45470000D02*
X57867500Y-45726300D01*
X56134000Y-50293900D02*
X56135900Y-50292000D01*
X58166000Y-46024800D02*
X58318400Y-46024800D01*
X55626000Y-50292000D02*
X54914800Y-51003200D01*
X59182000Y-46024800D02*
X58318400Y-46024800D01*
X56135900Y-50292000D02*
X56135900Y-47713400D01*
%TO.N,Net-(C4-2-Pad1)*%
X52539200Y-46470000D02*
X52120800Y-46888400D01*
X45580600Y-50749200D02*
X45631400Y-50698400D01*
X53892500Y-46470000D02*
X52539200Y-46470000D01*
%TO.N,Net-(C6-2-Pad1)*%
X52582000Y-45470000D02*
X53892500Y-45470000D01*
X51865700Y-43789600D02*
X51865700Y-44753700D01*
X51865700Y-44753700D02*
X52582000Y-45470000D01*
%TO.N,Net-(C7-2-Pad1)*%
X54630000Y-42996800D02*
X54630000Y-43732500D01*
X51865700Y-41402000D02*
X53035200Y-41402000D01*
X53035200Y-41402000D02*
X54630000Y-42996800D01*
%TO.N,Net-(C8-2-Pad1)*%
X55130000Y-42734800D02*
X55130000Y-43732500D01*
X53797200Y-39927700D02*
X53797200Y-41402000D01*
X55572200Y-39927700D02*
X55626000Y-39981500D01*
X53797200Y-41402000D02*
X55130000Y-42734800D01*
X53797200Y-39927700D02*
X55572200Y-39927700D01*
%TO.N,Net-(C9-2-Pad2)*%
X47904400Y-45975100D02*
X49783200Y-45975100D01*
X49783200Y-45975100D02*
X49784000Y-45975900D01*
X53886600Y-45975900D02*
X53892500Y-45970000D01*
X51612800Y-45975900D02*
X53886600Y-45975900D01*
X49784000Y-45975900D02*
X51612800Y-45975900D01*
%TO.N,Net-(C10-2-Pad1)*%
X55626000Y-43728500D02*
X55626000Y-41806500D01*
X57454800Y-39981500D02*
X59196900Y-39981500D01*
X55626000Y-43728500D02*
X55630000Y-43732500D01*
X55626000Y-41806500D02*
X55629800Y-41806500D01*
X59196900Y-39981500D02*
X59283600Y-40068200D01*
X55629800Y-41806500D02*
X57454800Y-39981500D01*
%TO.N,Net-(Q1-Pad1)*%
X61554400Y-56050000D02*
X61554400Y-52258000D01*
X59639200Y-50342800D02*
X59639200Y-47498000D01*
X59639200Y-47498000D02*
X59111200Y-46970000D01*
X61554400Y-52258000D02*
X59639200Y-50342800D01*
X59111200Y-46970000D02*
X57867500Y-46970000D01*
%TO.N,Net-(R1-1-Pad2)*%
X57048400Y-66954400D02*
X53898800Y-66954400D01*
X53416200Y-67487800D02*
X53416200Y-68623200D01*
X58421900Y-65580900D02*
X57048400Y-66954400D01*
X53898800Y-66954400D02*
X53390800Y-67462400D01*
X58421900Y-65580900D02*
X57353200Y-65580900D01*
X53390800Y-67462400D02*
X53416200Y-67487800D01*
X59486800Y-65580900D02*
X58421900Y-65580900D01*
%TO.N,Net-(C10-2-Pad2)*%
X59095300Y-41806500D02*
X59283600Y-41618200D01*
X56130000Y-42879200D02*
X56130000Y-43732500D01*
X57202700Y-41806500D02*
X56130000Y-42879200D01*
X57454800Y-41806500D02*
X59095300Y-41806500D01*
X60465000Y-41618200D02*
X60502800Y-41656000D01*
X57454800Y-41806500D02*
X57202700Y-41806500D01*
X59283600Y-41618200D02*
X60465000Y-41618200D01*
%TD*%
%TA.AperFunction,Conductor*%
%TO.N,5V*%
G36*
X59604331Y-61284802D02*
G01*
X59625305Y-61301705D01*
X60147200Y-61823600D01*
X63221176Y-61823600D01*
X63289297Y-61843602D01*
X63335790Y-61897258D01*
X63339600Y-61907473D01*
X63339600Y-61923800D01*
X66470100Y-61923800D01*
X66538221Y-61943802D01*
X66584714Y-61997458D01*
X66596100Y-62049800D01*
X66596100Y-64923710D01*
X66576098Y-64991831D01*
X66559195Y-65012805D01*
X66431105Y-65140895D01*
X66368793Y-65174921D01*
X66342010Y-65177800D01*
X63339600Y-65177800D01*
X63339600Y-65185594D01*
X63336933Y-65188672D01*
X63308307Y-65241096D01*
X63245995Y-65275121D01*
X63219212Y-65278000D01*
X63101597Y-65278000D01*
X63033476Y-65257998D01*
X63005031Y-65232939D01*
X62956402Y-65174921D01*
X62233848Y-64312859D01*
X62224428Y-64312716D01*
X60310120Y-64283712D01*
X58927564Y-64262764D01*
X58859755Y-64241732D01*
X58846150Y-64231293D01*
X58461818Y-63892467D01*
X58423948Y-63832416D01*
X58419157Y-63799858D01*
X58404763Y-62848003D01*
X58404805Y-62842351D01*
X58429836Y-62000958D01*
X58429836Y-62000948D01*
X58429885Y-61999302D01*
X58421373Y-61629300D01*
X58439803Y-61560738D01*
X58465340Y-61530737D01*
X58740210Y-61295134D01*
X58804949Y-61265988D01*
X58822210Y-61264800D01*
X59536210Y-61264800D01*
X59604331Y-61284802D01*
G37*
%TD.AperFunction*%
%TD*%
%TA.AperFunction,Conductor*%
%TO.N,Net-(C10-2-Pad2)*%
G36*
X73444570Y-45943202D02*
G01*
X73460739Y-45955545D01*
X73891090Y-46342861D01*
X73928343Y-46403299D01*
X73932800Y-46436516D01*
X73932800Y-48055410D01*
X73912798Y-48123531D01*
X73895895Y-48144505D01*
X73410905Y-48629495D01*
X73348593Y-48663521D01*
X73321810Y-48666400D01*
X70021200Y-48666400D01*
X70014889Y-48673572D01*
X70014888Y-48673572D01*
X69156156Y-49649404D01*
X69096138Y-49687329D01*
X69076046Y-49691330D01*
X69071077Y-49691905D01*
X69063484Y-49691865D01*
X69056104Y-49693637D01*
X69056102Y-49693637D01*
X68917767Y-49726848D01*
X68917763Y-49726849D01*
X68910388Y-49728620D01*
X68770479Y-49800832D01*
X68764757Y-49805824D01*
X68764755Y-49805825D01*
X68651834Y-49904333D01*
X68649834Y-49902040D01*
X68601268Y-49931953D01*
X68568090Y-49936400D01*
X65806190Y-49936400D01*
X65738069Y-49916398D01*
X65717095Y-49899495D01*
X65282905Y-49465305D01*
X65248879Y-49402993D01*
X65246000Y-49376210D01*
X65246000Y-47851151D01*
X65266002Y-47783030D01*
X65278345Y-47766861D01*
X65666245Y-47335861D01*
X65726683Y-47298608D01*
X65758437Y-47294159D01*
X66958980Y-47280223D01*
X68560040Y-47261637D01*
X69119793Y-46578913D01*
X69178451Y-46538916D01*
X69217230Y-46532800D01*
X71138800Y-46532800D01*
X71763001Y-45956615D01*
X71826622Y-45925107D01*
X71848463Y-45923200D01*
X73376449Y-45923200D01*
X73444570Y-45943202D01*
G37*
%TD.AperFunction*%
%TD*%
%TA.AperFunction,Conductor*%
%TO.N,Earth*%
G36*
X82495621Y-31055302D02*
G01*
X82542114Y-31108958D01*
X82553500Y-31161300D01*
X82553500Y-88218700D01*
X82533498Y-88286821D01*
X82479842Y-88333314D01*
X82427500Y-88344700D01*
X36546100Y-88344700D01*
X36477979Y-88324698D01*
X36431486Y-88271042D01*
X36420100Y-88218700D01*
X36420100Y-83566871D01*
X38897068Y-83566871D01*
X38897155Y-83570873D01*
X38897155Y-83570880D01*
X38902572Y-83819129D01*
X38903749Y-83873065D01*
X38949283Y-84175930D01*
X38950379Y-84179790D01*
X38950380Y-84179795D01*
X38963706Y-84226730D01*
X39032931Y-84470553D01*
X39153337Y-84752160D01*
X39308549Y-85016185D01*
X39496051Y-85258347D01*
X39712804Y-85474722D01*
X39715985Y-85477176D01*
X39715986Y-85477177D01*
X39952101Y-85659339D01*
X39952105Y-85659342D01*
X39955294Y-85661802D01*
X39958773Y-85663839D01*
X40135579Y-85767363D01*
X40219589Y-85816553D01*
X40223274Y-85818121D01*
X40223278Y-85818123D01*
X40334211Y-85865325D01*
X40501406Y-85936467D01*
X40796175Y-86019601D01*
X41016738Y-86052368D01*
X41095819Y-86064116D01*
X41095821Y-86064116D01*
X41099118Y-86064606D01*
X41102449Y-86064746D01*
X41102453Y-86064746D01*
X41139137Y-86066283D01*
X41182484Y-86068100D01*
X41377874Y-86068100D01*
X41501315Y-86060226D01*
X41602039Y-86053801D01*
X41602044Y-86053800D01*
X41606047Y-86053545D01*
X41609984Y-86052783D01*
X41609986Y-86052783D01*
X41902801Y-85996130D01*
X41902805Y-85996129D01*
X41906738Y-85995368D01*
X42197600Y-85899456D01*
X42473918Y-85767363D01*
X42731212Y-85601231D01*
X42965310Y-85403752D01*
X43172419Y-85178129D01*
X43349180Y-84928018D01*
X43492728Y-84657474D01*
X43494144Y-84653717D01*
X43599319Y-84374644D01*
X43599321Y-84374638D01*
X43600736Y-84370883D01*
X43635887Y-84222763D01*
X43670524Y-84076807D01*
X43670525Y-84076802D01*
X43671453Y-84072891D01*
X43703732Y-83768329D01*
X43700533Y-83621680D01*
X43700446Y-83617671D01*
X75371468Y-83617671D01*
X75371555Y-83621673D01*
X75371555Y-83621680D01*
X75377127Y-83877036D01*
X75378149Y-83923865D01*
X75423683Y-84226730D01*
X75507331Y-84521353D01*
X75627737Y-84802960D01*
X75782949Y-85066985D01*
X75970451Y-85309147D01*
X76187204Y-85525522D01*
X76190385Y-85527976D01*
X76190386Y-85527977D01*
X76426501Y-85710139D01*
X76426505Y-85710142D01*
X76429694Y-85712602D01*
X76433173Y-85714639D01*
X76609979Y-85818163D01*
X76693989Y-85867353D01*
X76697674Y-85868921D01*
X76697678Y-85868923D01*
X76834897Y-85927310D01*
X76975806Y-85987267D01*
X77270575Y-86070401D01*
X77491138Y-86103168D01*
X77570219Y-86114916D01*
X77570221Y-86114916D01*
X77573518Y-86115406D01*
X77576849Y-86115546D01*
X77576853Y-86115546D01*
X77613537Y-86117083D01*
X77656884Y-86118900D01*
X77852274Y-86118900D01*
X77975715Y-86111026D01*
X78076439Y-86104601D01*
X78076444Y-86104600D01*
X78080447Y-86104345D01*
X78084384Y-86103583D01*
X78084386Y-86103583D01*
X78377201Y-86046930D01*
X78377205Y-86046929D01*
X78381138Y-86046168D01*
X78672000Y-85950256D01*
X78948318Y-85818163D01*
X79205612Y-85652031D01*
X79439710Y-85454552D01*
X79646819Y-85228929D01*
X79680631Y-85181087D01*
X79794929Y-85019358D01*
X79823580Y-84978818D01*
X79967128Y-84708274D01*
X80036180Y-84525051D01*
X80073719Y-84425444D01*
X80073721Y-84425438D01*
X80075136Y-84421683D01*
X80089449Y-84361369D01*
X80144924Y-84127607D01*
X80144925Y-84127602D01*
X80145853Y-84123691D01*
X80178132Y-83819129D01*
X80176937Y-83764320D01*
X80171539Y-83516952D01*
X80171539Y-83516947D01*
X80171451Y-83512935D01*
X80125917Y-83210070D01*
X80112621Y-83163237D01*
X80043368Y-82919319D01*
X80042269Y-82915447D01*
X79921863Y-82633840D01*
X79766651Y-82369815D01*
X79579149Y-82127653D01*
X79362396Y-81911278D01*
X79293368Y-81858023D01*
X79123099Y-81726661D01*
X79123095Y-81726658D01*
X79119906Y-81724198D01*
X78943338Y-81620813D01*
X78859075Y-81571475D01*
X78859072Y-81571473D01*
X78855611Y-81569447D01*
X78851926Y-81567879D01*
X78851922Y-81567877D01*
X78664851Y-81488278D01*
X78573794Y-81449533D01*
X78279025Y-81366399D01*
X78048814Y-81332199D01*
X77979381Y-81321884D01*
X77979379Y-81321884D01*
X77976082Y-81321394D01*
X77972751Y-81321254D01*
X77972747Y-81321254D01*
X77936063Y-81319717D01*
X77892716Y-81317900D01*
X77697326Y-81317900D01*
X77573885Y-81325774D01*
X77473161Y-81332199D01*
X77473156Y-81332200D01*
X77469153Y-81332455D01*
X77465216Y-81333217D01*
X77465214Y-81333217D01*
X77172399Y-81389870D01*
X77172395Y-81389871D01*
X77168462Y-81390632D01*
X76877600Y-81486544D01*
X76601282Y-81618637D01*
X76343988Y-81784769D01*
X76109890Y-81982248D01*
X75902781Y-82207871D01*
X75726020Y-82457982D01*
X75582472Y-82728526D01*
X75581057Y-82732282D01*
X75581056Y-82732283D01*
X75492134Y-82968232D01*
X75474464Y-83015117D01*
X75473535Y-83019032D01*
X75414853Y-83266311D01*
X75403747Y-83313109D01*
X75371468Y-83617671D01*
X43700446Y-83617671D01*
X43697139Y-83466152D01*
X43697139Y-83466147D01*
X43697051Y-83462135D01*
X43651517Y-83159270D01*
X43567869Y-82864647D01*
X43447463Y-82583040D01*
X43292251Y-82319015D01*
X43104749Y-82076853D01*
X42887996Y-81860478D01*
X42884814Y-81858023D01*
X42648699Y-81675861D01*
X42648695Y-81675858D01*
X42645506Y-81673398D01*
X42549027Y-81616907D01*
X42384675Y-81520675D01*
X42384672Y-81520673D01*
X42381211Y-81518647D01*
X42377526Y-81517079D01*
X42377522Y-81517077D01*
X42190451Y-81437478D01*
X42099394Y-81398733D01*
X41804625Y-81315599D01*
X41574414Y-81281399D01*
X41504981Y-81271084D01*
X41504979Y-81271084D01*
X41501682Y-81270594D01*
X41498351Y-81270454D01*
X41498347Y-81270454D01*
X41461663Y-81268917D01*
X41418316Y-81267100D01*
X41222926Y-81267100D01*
X41099485Y-81274974D01*
X40998761Y-81281399D01*
X40998756Y-81281400D01*
X40994753Y-81281655D01*
X40990816Y-81282417D01*
X40990814Y-81282417D01*
X40697999Y-81339070D01*
X40697995Y-81339071D01*
X40694062Y-81339832D01*
X40403200Y-81435744D01*
X40126882Y-81567837D01*
X39869588Y-81733969D01*
X39635490Y-81931448D01*
X39428381Y-82157071D01*
X39426067Y-82160346D01*
X39426064Y-82160349D01*
X39392479Y-82207871D01*
X39251620Y-82407182D01*
X39108072Y-82677726D01*
X39106657Y-82681482D01*
X39106656Y-82681483D01*
X39018482Y-82915447D01*
X39000064Y-82964317D01*
X38999135Y-82968232D01*
X38940803Y-83214037D01*
X38929347Y-83262309D01*
X38897068Y-83566871D01*
X36420100Y-83566871D01*
X36420100Y-74822874D01*
X52865700Y-74822874D01*
X52880234Y-74895940D01*
X52935599Y-74978801D01*
X53018460Y-75034166D01*
X53091526Y-75048700D01*
X53740874Y-75048700D01*
X53813940Y-75034166D01*
X53896801Y-74978801D01*
X53952166Y-74895940D01*
X53966700Y-74822874D01*
X53966700Y-73223526D01*
X53952166Y-73150460D01*
X53896801Y-73067599D01*
X53813940Y-73012234D01*
X53740874Y-72997700D01*
X53091526Y-72997700D01*
X53018460Y-73012234D01*
X52935599Y-73067599D01*
X52880234Y-73150460D01*
X52865700Y-73223526D01*
X52865700Y-74822874D01*
X36420100Y-74822874D01*
X36420100Y-69422874D01*
X52865700Y-69422874D01*
X52880234Y-69495940D01*
X52935599Y-69578801D01*
X53018460Y-69634166D01*
X53091526Y-69648700D01*
X53740874Y-69648700D01*
X53813940Y-69634166D01*
X53896801Y-69578801D01*
X53903694Y-69568485D01*
X53946434Y-69504519D01*
X54000911Y-69458991D01*
X54071354Y-69450142D01*
X54135398Y-69480783D01*
X54155966Y-69504519D01*
X54198706Y-69568485D01*
X54205599Y-69578801D01*
X54288460Y-69634166D01*
X54361526Y-69648700D01*
X55010874Y-69648700D01*
X55083940Y-69634166D01*
X55166801Y-69578801D01*
X55173694Y-69568485D01*
X55216434Y-69504519D01*
X55270911Y-69458991D01*
X55341354Y-69450142D01*
X55405398Y-69480783D01*
X55425966Y-69504519D01*
X55468706Y-69568485D01*
X55475599Y-69578801D01*
X55558460Y-69634166D01*
X55631526Y-69648700D01*
X56280874Y-69648700D01*
X56353940Y-69634166D01*
X56436801Y-69578801D01*
X56443694Y-69568485D01*
X56486434Y-69504519D01*
X56540911Y-69458991D01*
X56611354Y-69450142D01*
X56675398Y-69480783D01*
X56695966Y-69504519D01*
X56738706Y-69568485D01*
X56745599Y-69578801D01*
X56828460Y-69634166D01*
X56901526Y-69648700D01*
X57550874Y-69648700D01*
X57623940Y-69634166D01*
X57706801Y-69578801D01*
X57762166Y-69495940D01*
X57776700Y-69422874D01*
X57776700Y-67913100D01*
X57796702Y-67844979D01*
X57850358Y-67798486D01*
X57902700Y-67787100D01*
X58885101Y-67787100D01*
X58953222Y-67807102D01*
X58999715Y-67860758D01*
X59003080Y-67868863D01*
X59009451Y-67885859D01*
X59093284Y-67997716D01*
X59100461Y-68003095D01*
X59197959Y-68076167D01*
X59197962Y-68076169D01*
X59205141Y-68081549D01*
X59213545Y-68084699D01*
X59213546Y-68084700D01*
X59328637Y-68127845D01*
X59328639Y-68127845D01*
X59336032Y-68130617D01*
X59343880Y-68131470D01*
X59343882Y-68131470D01*
X59392303Y-68136730D01*
X59395709Y-68137100D01*
X59741849Y-68137100D01*
X60088090Y-68137099D01*
X60091485Y-68136730D01*
X60091490Y-68136730D01*
X60139910Y-68131471D01*
X60139914Y-68131470D01*
X60147768Y-68130617D01*
X60278659Y-68081549D01*
X60285838Y-68076169D01*
X60285841Y-68076167D01*
X60299734Y-68065754D01*
X60366241Y-68040906D01*
X60435623Y-68055959D01*
X60485854Y-68106133D01*
X60501300Y-68166580D01*
X60501300Y-70110004D01*
X60481298Y-70178125D01*
X60448167Y-70212797D01*
X57727075Y-72141672D01*
X57724790Y-72143645D01*
X57724783Y-72143651D01*
X57692398Y-72171622D01*
X57690108Y-72173600D01*
X57656978Y-72208271D01*
X57642759Y-72224467D01*
X57639274Y-72231130D01*
X57599417Y-72307323D01*
X57599415Y-72307328D01*
X57596551Y-72312803D01*
X57576549Y-72380924D01*
X57566200Y-72452906D01*
X57566200Y-72667200D01*
X57546198Y-72735321D01*
X57492542Y-72781814D01*
X57440200Y-72793200D01*
X56929456Y-72793200D01*
X56851923Y-72805248D01*
X56779057Y-72828454D01*
X56774710Y-72830621D01*
X56774703Y-72830624D01*
X56726134Y-72854839D01*
X56708833Y-72863464D01*
X56646959Y-72907324D01*
X56644872Y-72909099D01*
X56644862Y-72909106D01*
X56626041Y-72925107D01*
X56612771Y-72936388D01*
X56610829Y-72938358D01*
X56603320Y-72945974D01*
X56541251Y-72980440D01*
X56470401Y-72975878D01*
X56455203Y-72969165D01*
X56374313Y-72926851D01*
X56368375Y-72925108D01*
X56368374Y-72925107D01*
X56310515Y-72908118D01*
X56310511Y-72908117D01*
X56306192Y-72906849D01*
X56301744Y-72906209D01*
X56301737Y-72906208D01*
X56238658Y-72897139D01*
X56238651Y-72897139D01*
X56234210Y-72896500D01*
X55728990Y-72896500D01*
X55727335Y-72896589D01*
X55727323Y-72896589D01*
X55703941Y-72897842D01*
X55701683Y-72897963D01*
X55700006Y-72898143D01*
X55699997Y-72898144D01*
X55681058Y-72900180D01*
X55681057Y-72900180D01*
X55674900Y-72900842D01*
X55668995Y-72902691D01*
X55668990Y-72902692D01*
X55597407Y-72925107D01*
X55579756Y-72930634D01*
X55574332Y-72933596D01*
X55574327Y-72933598D01*
X55543153Y-72950621D01*
X55517444Y-72964660D01*
X55459229Y-73008239D01*
X55380639Y-73086829D01*
X55362367Y-73107170D01*
X55345464Y-73128144D01*
X55299251Y-73216487D01*
X55297508Y-73222425D01*
X55297507Y-73222426D01*
X55295368Y-73229713D01*
X55279249Y-73284608D01*
X55278609Y-73289056D01*
X55278608Y-73289063D01*
X55272738Y-73329897D01*
X55268900Y-73356590D01*
X55268900Y-77808094D01*
X55248898Y-77876215D01*
X55227190Y-77901749D01*
X54887190Y-78207749D01*
X54885740Y-78209241D01*
X54885726Y-78209254D01*
X54865952Y-78229595D01*
X54863450Y-78232169D01*
X54841742Y-78257703D01*
X54838605Y-78263512D01*
X54838602Y-78263517D01*
X54818155Y-78301386D01*
X54791251Y-78351213D01*
X54771249Y-78419334D01*
X54770609Y-78423782D01*
X54770608Y-78423789D01*
X54765138Y-78461842D01*
X54760900Y-78491316D01*
X54760900Y-79915002D01*
X54761243Y-79928227D01*
X54761918Y-79941250D01*
X54780678Y-80024961D01*
X54807614Y-80090650D01*
X54844499Y-80153324D01*
X54982258Y-80325522D01*
X54984014Y-80327385D01*
X54984017Y-80327388D01*
X55008938Y-80353822D01*
X55008945Y-80353829D01*
X55010694Y-80355684D01*
X55021580Y-80365498D01*
X55040309Y-80382382D01*
X55040336Y-80382405D01*
X55040962Y-80382970D01*
X55051720Y-80392141D01*
X55057975Y-80395413D01*
X55134576Y-80435483D01*
X55134581Y-80435485D01*
X55140056Y-80438349D01*
X55145992Y-80440092D01*
X55203854Y-80457082D01*
X55203858Y-80457083D01*
X55208177Y-80458351D01*
X55212625Y-80458991D01*
X55212632Y-80458992D01*
X55275711Y-80468061D01*
X55275718Y-80468061D01*
X55280159Y-80468700D01*
X56996210Y-80468700D01*
X56997865Y-80468611D01*
X56997877Y-80468611D01*
X57021837Y-80467327D01*
X57023517Y-80467237D01*
X57025194Y-80467057D01*
X57025203Y-80467056D01*
X57044142Y-80465020D01*
X57044143Y-80465020D01*
X57050300Y-80464358D01*
X57056205Y-80462509D01*
X57056210Y-80462508D01*
X57139539Y-80436415D01*
X57145444Y-80434566D01*
X57150868Y-80431604D01*
X57150873Y-80431602D01*
X57182047Y-80414579D01*
X57207756Y-80400540D01*
X57265971Y-80356961D01*
X57395361Y-80227571D01*
X57413633Y-80207230D01*
X57430536Y-80186256D01*
X57476749Y-80097913D01*
X57496751Y-80029792D01*
X57497446Y-80024961D01*
X57506461Y-79962258D01*
X57506461Y-79962251D01*
X57507100Y-79957810D01*
X57507100Y-78548043D01*
X57503332Y-78504325D01*
X57495954Y-78461842D01*
X57492592Y-78445623D01*
X57450749Y-78355138D01*
X57408951Y-78297750D01*
X57358205Y-78245657D01*
X57354646Y-78242919D01*
X57354640Y-78242914D01*
X56895877Y-77890020D01*
X56854078Y-77832632D01*
X56846700Y-77790149D01*
X56846700Y-75845790D01*
X56845237Y-75818483D01*
X56842358Y-75791700D01*
X56840509Y-75785795D01*
X56840508Y-75785790D01*
X56814415Y-75702461D01*
X56812566Y-75696556D01*
X56809604Y-75691132D01*
X56809602Y-75691127D01*
X56780696Y-75638193D01*
X56778540Y-75634244D01*
X56734961Y-75576029D01*
X56731205Y-75572273D01*
X56731075Y-75572035D01*
X56728834Y-75569449D01*
X56729397Y-75568961D01*
X56697179Y-75509961D01*
X56694300Y-75483178D01*
X56694300Y-75340854D01*
X56714302Y-75272733D01*
X56767958Y-75226240D01*
X56838232Y-75216136D01*
X56855794Y-75219957D01*
X56876208Y-75225951D01*
X56880656Y-75226591D01*
X56880663Y-75226592D01*
X56943742Y-75235661D01*
X56943749Y-75235661D01*
X56948190Y-75236300D01*
X57875060Y-75236300D01*
X57879511Y-75235661D01*
X57942498Y-75226618D01*
X57942505Y-75226616D01*
X57946945Y-75225979D01*
X58014979Y-75206032D01*
X58081052Y-75175906D01*
X60648817Y-73528660D01*
X60716415Y-73508714D01*
X75280814Y-73458493D01*
X75315377Y-73456025D01*
X75325072Y-73454667D01*
X75342571Y-73452216D01*
X75342573Y-73452215D01*
X75349144Y-73451295D01*
X75449526Y-73414671D01*
X75509659Y-73376929D01*
X75565126Y-73329897D01*
X75609054Y-73280285D01*
X77235166Y-71443735D01*
X79814031Y-68531134D01*
X79826457Y-68515964D01*
X79827194Y-68514991D01*
X79834672Y-68505112D01*
X79834675Y-68505107D01*
X79838117Y-68500560D01*
X79879549Y-68418338D01*
X79899551Y-68350217D01*
X79909900Y-68278235D01*
X79909900Y-64736051D01*
X79904438Y-64683504D01*
X79893779Y-64632785D01*
X79887281Y-64608076D01*
X79839178Y-64520758D01*
X79793447Y-64466451D01*
X79757046Y-64433998D01*
X79742519Y-64421047D01*
X79742518Y-64421046D01*
X79739164Y-64418056D01*
X75458399Y-61580805D01*
X75454223Y-61578844D01*
X75454219Y-61578842D01*
X75395126Y-61551096D01*
X75390956Y-61549138D01*
X75321346Y-61528164D01*
X75316783Y-61527492D01*
X75316781Y-61527491D01*
X75298081Y-61524735D01*
X75247635Y-61517300D01*
X75165600Y-61517300D01*
X75097479Y-61497298D01*
X75050986Y-61443642D01*
X75039600Y-61391300D01*
X75039600Y-58050800D01*
X63339600Y-58050800D01*
X63339600Y-61442100D01*
X63319598Y-61510221D01*
X63265942Y-61556714D01*
X63213600Y-61568100D01*
X60305222Y-61568100D01*
X60237101Y-61548098D01*
X60216127Y-61531195D01*
X59805971Y-61121039D01*
X59804711Y-61119907D01*
X59786874Y-61103884D01*
X59786864Y-61103876D01*
X59785630Y-61102767D01*
X59764656Y-61085864D01*
X59676313Y-61039651D01*
X59670375Y-61037908D01*
X59670374Y-61037907D01*
X59612515Y-61020918D01*
X59612511Y-61020917D01*
X59608192Y-61019649D01*
X59603744Y-61019009D01*
X59603737Y-61019008D01*
X59540658Y-61009939D01*
X59540651Y-61009939D01*
X59536210Y-61009300D01*
X58822210Y-61009300D01*
X58821147Y-61009337D01*
X58821120Y-61009337D01*
X58805743Y-61009866D01*
X58804667Y-61009903D01*
X58797928Y-61010367D01*
X58792968Y-61010708D01*
X58792966Y-61010708D01*
X58787406Y-61011091D01*
X58781999Y-61012448D01*
X58781998Y-61012448D01*
X58753303Y-61019649D01*
X58700061Y-61033010D01*
X58694967Y-61035303D01*
X58694968Y-61035303D01*
X58639428Y-61060307D01*
X58639423Y-61060310D01*
X58635322Y-61062156D01*
X58573933Y-61101144D01*
X58570517Y-61104072D01*
X58570513Y-61104075D01*
X58300936Y-61335141D01*
X58300928Y-61335148D01*
X58299063Y-61336747D01*
X58270780Y-61365127D01*
X58269177Y-61367010D01*
X58269168Y-61367020D01*
X58254861Y-61383829D01*
X58245243Y-61395128D01*
X58237226Y-61405037D01*
X58193062Y-61494412D01*
X58174632Y-61562974D01*
X58165941Y-61635176D01*
X58166044Y-61639662D01*
X58166044Y-61639666D01*
X58174222Y-61995122D01*
X58174199Y-62001760D01*
X58149418Y-62834753D01*
X58149312Y-62840452D01*
X58149270Y-62846104D01*
X58149292Y-62851866D01*
X58163686Y-63803721D01*
X58166379Y-63837055D01*
X58171170Y-63869613D01*
X58207833Y-63968705D01*
X58245703Y-64028756D01*
X58292855Y-64084122D01*
X58677187Y-64422948D01*
X58678008Y-64423624D01*
X58678032Y-64423644D01*
X58689180Y-64432817D01*
X58690616Y-64433998D01*
X58704221Y-64444437D01*
X58709164Y-64446995D01*
X58709168Y-64446998D01*
X58775469Y-64481314D01*
X58784065Y-64485763D01*
X58851874Y-64506795D01*
X58881790Y-64511560D01*
X58919246Y-64517527D01*
X58919251Y-64517527D01*
X58923693Y-64518235D01*
X60183279Y-64537319D01*
X62055481Y-64565686D01*
X62123291Y-64586718D01*
X62150138Y-64610733D01*
X62208446Y-64680299D01*
X62809217Y-65397064D01*
X62810875Y-65398763D01*
X62834462Y-65422939D01*
X62834472Y-65422949D01*
X62836137Y-65424655D01*
X62864582Y-65449714D01*
X62873158Y-65456941D01*
X62879251Y-65460128D01*
X62956014Y-65500283D01*
X62956019Y-65500285D01*
X62961494Y-65503149D01*
X62967430Y-65504892D01*
X63025292Y-65521882D01*
X63025296Y-65521883D01*
X63029615Y-65523151D01*
X63034063Y-65523791D01*
X63034070Y-65523792D01*
X63097149Y-65532861D01*
X63097156Y-65532861D01*
X63101597Y-65533500D01*
X63213600Y-65533500D01*
X63281721Y-65553502D01*
X63328214Y-65607158D01*
X63339600Y-65659500D01*
X63339600Y-69050800D01*
X66884878Y-69050800D01*
X66952999Y-69070802D01*
X66999492Y-69124458D01*
X67009596Y-69194732D01*
X66980102Y-69259312D01*
X66973973Y-69265895D01*
X66733073Y-69506795D01*
X66670761Y-69540821D01*
X66643978Y-69543700D01*
X63200822Y-69543700D01*
X63132701Y-69523698D01*
X63111727Y-69506795D01*
X62624005Y-69019073D01*
X62589979Y-68956761D01*
X62587100Y-68929978D01*
X62587100Y-67108190D01*
X62585637Y-67080883D01*
X62582758Y-67054100D01*
X62580909Y-67048195D01*
X62580908Y-67048190D01*
X62554815Y-66964861D01*
X62552966Y-66958956D01*
X62550004Y-66953532D01*
X62550002Y-66953527D01*
X62521096Y-66900593D01*
X62518940Y-66896644D01*
X62475361Y-66838429D01*
X62244371Y-66607439D01*
X62231608Y-66595974D01*
X62225274Y-66590284D01*
X62225264Y-66590276D01*
X62224030Y-66589167D01*
X62203056Y-66572264D01*
X62114713Y-66526051D01*
X62108775Y-66524308D01*
X62108774Y-66524307D01*
X62050915Y-66507318D01*
X62050911Y-66507317D01*
X62046592Y-66506049D01*
X62042144Y-66505409D01*
X62042137Y-66505408D01*
X61979058Y-66496339D01*
X61979051Y-66496339D01*
X61974610Y-66495700D01*
X61113790Y-66495700D01*
X61112135Y-66495789D01*
X61112123Y-66495789D01*
X61088741Y-66497042D01*
X61086483Y-66497163D01*
X61084806Y-66497343D01*
X61084797Y-66497344D01*
X61065858Y-66499380D01*
X61065857Y-66499380D01*
X61059700Y-66500042D01*
X61053795Y-66501891D01*
X61053790Y-66501892D01*
X60982207Y-66524307D01*
X60964556Y-66529834D01*
X60959132Y-66532796D01*
X60959127Y-66532798D01*
X60942285Y-66541995D01*
X60902244Y-66563860D01*
X60844029Y-66607439D01*
X60613039Y-66838429D01*
X60611915Y-66839681D01*
X60611902Y-66839694D01*
X60599554Y-66853440D01*
X60539151Y-66890749D01*
X60468165Y-66889479D01*
X60404995Y-66844803D01*
X60395895Y-66832661D01*
X60390516Y-66825484D01*
X60383339Y-66820105D01*
X60285841Y-66747033D01*
X60285838Y-66747031D01*
X60278659Y-66741651D01*
X60270254Y-66738500D01*
X60155163Y-66695355D01*
X60155161Y-66695355D01*
X60147768Y-66692583D01*
X60139920Y-66691730D01*
X60139918Y-66691730D01*
X60091488Y-66686469D01*
X60091487Y-66686469D01*
X60088091Y-66686100D01*
X59741951Y-66686100D01*
X59395710Y-66686101D01*
X59392315Y-66686470D01*
X59392310Y-66686470D01*
X59343890Y-66691729D01*
X59343886Y-66691730D01*
X59336032Y-66692583D01*
X59205141Y-66741651D01*
X59197962Y-66747031D01*
X59197959Y-66747033D01*
X59100461Y-66820105D01*
X59093284Y-66825484D01*
X59009451Y-66937341D01*
X59003083Y-66954329D01*
X58960442Y-67011094D01*
X58893881Y-67035794D01*
X58885101Y-67036100D01*
X57801927Y-67036100D01*
X57733806Y-67016098D01*
X57687313Y-66962442D01*
X57677209Y-66892168D01*
X57706703Y-66827588D01*
X57712832Y-66821005D01*
X58540532Y-65993305D01*
X58602844Y-65959279D01*
X58629627Y-65956400D01*
X58687815Y-65956400D01*
X58755936Y-65976402D01*
X58802429Y-66030058D01*
X58805794Y-66038165D01*
X58816851Y-66067659D01*
X58900684Y-66179516D01*
X58907861Y-66184895D01*
X59005359Y-66257967D01*
X59005362Y-66257969D01*
X59012541Y-66263349D01*
X59020945Y-66266499D01*
X59020946Y-66266500D01*
X59136037Y-66309645D01*
X59136039Y-66309645D01*
X59143432Y-66312417D01*
X59151280Y-66313270D01*
X59151282Y-66313270D01*
X59199703Y-66318530D01*
X59203109Y-66318900D01*
X59486758Y-66318900D01*
X59770490Y-66318899D01*
X59773885Y-66318530D01*
X59773890Y-66318530D01*
X59822310Y-66313271D01*
X59822314Y-66313270D01*
X59830168Y-66312417D01*
X59961059Y-66263349D01*
X59968238Y-66257969D01*
X59968241Y-66257967D01*
X60065739Y-66184895D01*
X60072916Y-66179516D01*
X60078295Y-66172339D01*
X60151367Y-66074841D01*
X60151369Y-66074838D01*
X60156749Y-66067659D01*
X60159900Y-66059254D01*
X60203045Y-65944163D01*
X60203045Y-65944161D01*
X60205817Y-65936768D01*
X60212300Y-65877091D01*
X60212299Y-65284710D01*
X60205817Y-65225032D01*
X60156749Y-65094141D01*
X60151369Y-65086962D01*
X60151367Y-65086959D01*
X60078295Y-64989461D01*
X60072916Y-64982284D01*
X60065739Y-64976905D01*
X59968241Y-64903833D01*
X59968238Y-64903831D01*
X59961059Y-64898451D01*
X59952654Y-64895300D01*
X59837563Y-64852155D01*
X59837561Y-64852155D01*
X59830168Y-64849383D01*
X59822320Y-64848530D01*
X59822318Y-64848530D01*
X59773888Y-64843269D01*
X59773887Y-64843269D01*
X59770491Y-64842900D01*
X59486842Y-64842900D01*
X59203110Y-64842901D01*
X59199715Y-64843270D01*
X59199710Y-64843270D01*
X59151290Y-64848529D01*
X59151286Y-64848530D01*
X59143432Y-64849383D01*
X59012541Y-64898451D01*
X59005362Y-64903831D01*
X59005359Y-64903833D01*
X58907861Y-64976905D01*
X58900684Y-64982284D01*
X58816851Y-65094141D01*
X58805797Y-65123629D01*
X58763156Y-65180394D01*
X58696595Y-65205094D01*
X58687815Y-65205400D01*
X58475396Y-65205400D01*
X58452108Y-65202921D01*
X58450010Y-65202822D01*
X58439833Y-65200631D01*
X58407770Y-65204426D01*
X58406915Y-65204527D01*
X58392106Y-65205400D01*
X58152185Y-65205400D01*
X58084064Y-65185398D01*
X58037571Y-65131742D01*
X58034203Y-65123629D01*
X58023149Y-65094141D01*
X57939316Y-64982284D01*
X57932139Y-64976905D01*
X57834641Y-64903833D01*
X57834638Y-64903831D01*
X57827459Y-64898451D01*
X57819054Y-64895300D01*
X57703963Y-64852155D01*
X57703961Y-64852155D01*
X57696568Y-64849383D01*
X57688720Y-64848530D01*
X57688718Y-64848530D01*
X57640288Y-64843269D01*
X57640287Y-64843269D01*
X57636891Y-64842900D01*
X57353242Y-64842900D01*
X57069510Y-64842901D01*
X57066115Y-64843270D01*
X57066110Y-64843270D01*
X57017690Y-64848529D01*
X57017686Y-64848530D01*
X57009832Y-64849383D01*
X56878941Y-64898451D01*
X56871762Y-64903831D01*
X56871759Y-64903833D01*
X56774261Y-64976905D01*
X56767084Y-64982284D01*
X56761705Y-64989461D01*
X56688633Y-65086959D01*
X56688631Y-65086962D01*
X56683251Y-65094141D01*
X56680101Y-65102545D01*
X56680100Y-65102546D01*
X56641543Y-65205400D01*
X56634183Y-65225032D01*
X56627700Y-65284709D01*
X56627701Y-65877090D01*
X56634183Y-65936768D01*
X56683251Y-66067659D01*
X56688631Y-66074838D01*
X56688633Y-66074841D01*
X56761705Y-66172339D01*
X56767084Y-66179516D01*
X56774261Y-66184895D01*
X56871759Y-66257967D01*
X56871762Y-66257969D01*
X56878941Y-66263349D01*
X56935334Y-66284490D01*
X56992096Y-66327128D01*
X57016797Y-66393689D01*
X57001591Y-66463038D01*
X56980198Y-66491565D01*
X56929768Y-66541995D01*
X56867456Y-66576021D01*
X56840673Y-66578900D01*
X53952296Y-66578900D01*
X53929008Y-66576421D01*
X53926910Y-66576322D01*
X53916733Y-66574131D01*
X53884670Y-66577926D01*
X53883815Y-66578027D01*
X53877979Y-66578371D01*
X53877987Y-66578472D01*
X53872808Y-66578900D01*
X53867607Y-66578900D01*
X53862477Y-66579754D01*
X53862475Y-66579754D01*
X53848808Y-66582029D01*
X53842931Y-66582866D01*
X53792590Y-66588824D01*
X53784423Y-66592746D01*
X53775487Y-66594233D01*
X53766325Y-66599177D01*
X53766321Y-66599178D01*
X53730871Y-66618306D01*
X53725580Y-66621002D01*
X53687051Y-66639503D01*
X53679900Y-66642937D01*
X53675669Y-66646494D01*
X53673737Y-66648426D01*
X53671863Y-66650145D01*
X53671726Y-66650219D01*
X53671626Y-66650109D01*
X53671146Y-66650532D01*
X53665471Y-66653594D01*
X53630220Y-66691729D01*
X53629260Y-66692767D01*
X53625830Y-66696333D01*
X53140820Y-67181343D01*
X53132802Y-67188697D01*
X53101320Y-67215161D01*
X53095948Y-67224084D01*
X53079248Y-67251823D01*
X53073816Y-67260092D01*
X53048928Y-67294919D01*
X53045944Y-67304897D01*
X53043913Y-67309043D01*
X53042214Y-67313334D01*
X53036841Y-67322258D01*
X53034649Y-67332438D01*
X53034649Y-67332439D01*
X53027830Y-67364113D01*
X53025372Y-67373686D01*
X53013110Y-67414687D01*
X53013519Y-67425092D01*
X53012940Y-67429670D01*
X53012722Y-67434286D01*
X53010531Y-67444466D01*
X53011755Y-67454807D01*
X53015561Y-67486973D01*
X53016337Y-67496831D01*
X53018018Y-67539598D01*
X53013957Y-67539758D01*
X53009798Y-67590333D01*
X52962220Y-67649811D01*
X52945916Y-67660705D01*
X52945914Y-67660707D01*
X52935599Y-67667599D01*
X52880234Y-67750460D01*
X52865700Y-67823526D01*
X52865700Y-69422874D01*
X36420100Y-69422874D01*
X36420100Y-47798846D01*
X43737300Y-47798846D01*
X43739273Y-47830535D01*
X43743149Y-47861545D01*
X43776781Y-47959958D01*
X43812933Y-48021061D01*
X43815748Y-48024562D01*
X43815750Y-48024566D01*
X43848296Y-48065055D01*
X43858496Y-48077744D01*
X43861783Y-48080812D01*
X43861784Y-48080813D01*
X44459272Y-48638469D01*
X44495424Y-48699572D01*
X44499300Y-48730582D01*
X44499300Y-50965051D01*
X44499979Y-50969636D01*
X44499979Y-50969638D01*
X44507966Y-51023577D01*
X44510263Y-51039092D01*
X44531425Y-51108984D01*
X44533403Y-51113175D01*
X44533404Y-51113177D01*
X44561302Y-51172281D01*
X44563373Y-51176669D01*
X44565942Y-51180522D01*
X44807808Y-51543322D01*
X44807814Y-51543331D01*
X44809606Y-51546018D01*
X44811667Y-51548510D01*
X44811668Y-51548512D01*
X44822967Y-51562177D01*
X44843051Y-51586467D01*
X44845853Y-51589222D01*
X44878673Y-51621497D01*
X44878689Y-51621512D01*
X44879768Y-51622573D01*
X44880905Y-51623586D01*
X44880916Y-51623596D01*
X44886792Y-51628829D01*
X44898594Y-51639341D01*
X44905457Y-51642931D01*
X44905460Y-51642933D01*
X44981450Y-51682683D01*
X44981455Y-51682685D01*
X44986930Y-51685549D01*
X44992866Y-51687292D01*
X45050728Y-51704282D01*
X45050732Y-51704283D01*
X45055051Y-51705551D01*
X45059499Y-51706191D01*
X45059506Y-51706192D01*
X45122585Y-51715261D01*
X45122592Y-51715261D01*
X45127033Y-51715900D01*
X45904281Y-51715900D01*
X45972402Y-51735902D01*
X45998455Y-51758190D01*
X46252024Y-52043456D01*
X46252034Y-52043467D01*
X46253446Y-52045055D01*
X46254977Y-52046557D01*
X46272813Y-52064058D01*
X46278317Y-52069459D01*
X46279931Y-52070840D01*
X46279940Y-52070848D01*
X46296224Y-52084778D01*
X46304370Y-52091747D01*
X46398480Y-52142749D01*
X46426542Y-52150989D01*
X46462278Y-52161482D01*
X46462282Y-52161483D01*
X46466601Y-52162751D01*
X46471049Y-52163391D01*
X46471056Y-52163392D01*
X46534135Y-52172461D01*
X46534142Y-52172461D01*
X46538583Y-52173100D01*
X49376210Y-52173100D01*
X49377865Y-52173011D01*
X49377877Y-52173011D01*
X49401837Y-52171727D01*
X49403517Y-52171637D01*
X49405194Y-52171457D01*
X49405203Y-52171456D01*
X49424142Y-52169420D01*
X49424143Y-52169420D01*
X49430300Y-52168758D01*
X49436205Y-52166909D01*
X49436210Y-52166908D01*
X49519539Y-52140815D01*
X49525444Y-52138966D01*
X49530868Y-52136004D01*
X49530873Y-52136002D01*
X49562047Y-52118979D01*
X49587756Y-52104940D01*
X49645971Y-52061361D01*
X49927761Y-51779571D01*
X49946033Y-51759230D01*
X49962936Y-51738256D01*
X49989596Y-51687292D01*
X50006280Y-51655398D01*
X50006281Y-51655396D01*
X50009149Y-51649913D01*
X50010893Y-51643974D01*
X50027882Y-51586115D01*
X50027883Y-51586111D01*
X50029151Y-51581792D01*
X50030140Y-51574916D01*
X50038861Y-51514258D01*
X50038861Y-51514251D01*
X50039500Y-51509810D01*
X50039500Y-49383222D01*
X50059502Y-49315101D01*
X50076405Y-49294127D01*
X50689761Y-48680771D01*
X50708033Y-48660430D01*
X50724936Y-48639456D01*
X50771149Y-48551113D01*
X50776194Y-48533932D01*
X50789882Y-48487315D01*
X50789883Y-48487311D01*
X50791151Y-48482992D01*
X50801500Y-48411010D01*
X50801500Y-47633786D01*
X50821502Y-47565665D01*
X50850143Y-47534328D01*
X51056739Y-47373642D01*
X51122791Y-47347608D01*
X51134096Y-47347100D01*
X51187326Y-47347100D01*
X51232902Y-47343002D01*
X51235672Y-47342500D01*
X51235678Y-47342499D01*
X51274336Y-47335491D01*
X51274346Y-47335489D01*
X51277130Y-47334984D01*
X51320849Y-47322932D01*
X51354334Y-47318401D01*
X51612833Y-47318400D01*
X51871263Y-47318400D01*
X51904746Y-47322931D01*
X51948470Y-47334984D01*
X51951254Y-47335489D01*
X51951264Y-47335491D01*
X51989922Y-47342499D01*
X51989928Y-47342500D01*
X51992698Y-47343002D01*
X52038274Y-47347100D01*
X52184251Y-47347100D01*
X52188836Y-47346421D01*
X52188838Y-47346421D01*
X52253702Y-47336817D01*
X52253707Y-47336816D01*
X52258292Y-47336137D01*
X52262732Y-47334793D01*
X52262735Y-47334792D01*
X52293238Y-47325556D01*
X52328184Y-47314975D01*
X52395869Y-47283027D01*
X52396741Y-47284875D01*
X52457681Y-47270698D01*
X52524551Y-47294549D01*
X52567910Y-47350767D01*
X52576500Y-47396493D01*
X52576500Y-48146704D01*
X52556498Y-48214825D01*
X52537156Y-48238174D01*
X51801438Y-48935170D01*
X51738229Y-48967499D01*
X51714782Y-48969700D01*
X51055390Y-48969700D01*
X51053735Y-48969789D01*
X51053723Y-48969789D01*
X51030341Y-48971042D01*
X51028083Y-48971163D01*
X51026406Y-48971343D01*
X51026397Y-48971344D01*
X51007458Y-48973380D01*
X51007457Y-48973380D01*
X51001300Y-48974042D01*
X50995395Y-48975891D01*
X50995390Y-48975892D01*
X50912827Y-49001745D01*
X50906156Y-49003834D01*
X50900732Y-49006796D01*
X50900727Y-49006798D01*
X50869553Y-49023821D01*
X50843844Y-49037860D01*
X50785629Y-49081439D01*
X50503839Y-49363229D01*
X50502710Y-49364486D01*
X50502707Y-49364489D01*
X50493686Y-49374532D01*
X50485567Y-49383570D01*
X50468664Y-49404544D01*
X50422451Y-49492887D01*
X50402449Y-49561008D01*
X50401809Y-49565456D01*
X50401808Y-49565463D01*
X50392899Y-49627434D01*
X50392100Y-49632990D01*
X50392100Y-51692495D01*
X50372098Y-51760616D01*
X50360148Y-51776345D01*
X49491845Y-52750250D01*
X49491831Y-52750267D01*
X49491069Y-52751121D01*
X49479089Y-52765596D01*
X49467812Y-52780290D01*
X49426068Y-52861462D01*
X49424421Y-52866874D01*
X49424419Y-52866879D01*
X49412265Y-52906820D01*
X49405399Y-52929383D01*
X49394344Y-53001262D01*
X49376543Y-54817464D01*
X49376823Y-54832182D01*
X49377517Y-54846683D01*
X49396516Y-54931863D01*
X49423578Y-54997496D01*
X49425867Y-55001369D01*
X49425871Y-55001376D01*
X49448855Y-55040256D01*
X49460585Y-55060098D01*
X49597773Y-55230903D01*
X49599516Y-55232746D01*
X49599520Y-55232751D01*
X49624340Y-55259001D01*
X49624347Y-55259008D01*
X49626086Y-55260847D01*
X49656197Y-55287938D01*
X49656820Y-55288468D01*
X49656841Y-55288487D01*
X49659188Y-55290485D01*
X49666768Y-55296941D01*
X49673007Y-55300204D01*
X49673009Y-55300206D01*
X49749624Y-55340283D01*
X49749629Y-55340285D01*
X49755104Y-55343149D01*
X49761040Y-55344892D01*
X49818902Y-55361882D01*
X49818906Y-55361883D01*
X49823225Y-55363151D01*
X49827673Y-55363791D01*
X49827680Y-55363792D01*
X49890759Y-55372861D01*
X49890766Y-55372861D01*
X49895207Y-55373500D01*
X52271810Y-55373500D01*
X52273465Y-55373411D01*
X52273477Y-55373411D01*
X52297437Y-55372127D01*
X52299117Y-55372037D01*
X52300794Y-55371857D01*
X52300803Y-55371856D01*
X52319742Y-55369820D01*
X52319743Y-55369820D01*
X52325900Y-55369158D01*
X52331805Y-55367309D01*
X52331810Y-55367308D01*
X52415139Y-55341215D01*
X52421044Y-55339366D01*
X52426468Y-55336404D01*
X52426473Y-55336402D01*
X52465944Y-55314848D01*
X52483356Y-55305340D01*
X52541571Y-55261761D01*
X52721761Y-55081571D01*
X52723623Y-55079498D01*
X52738916Y-55062474D01*
X52738924Y-55062464D01*
X52740033Y-55061230D01*
X52756936Y-55040256D01*
X52803149Y-54951913D01*
X52809036Y-54931863D01*
X52821882Y-54888115D01*
X52821883Y-54888111D01*
X52823151Y-54883792D01*
X52823792Y-54879337D01*
X52832861Y-54816258D01*
X52832861Y-54816251D01*
X52833500Y-54811810D01*
X52833500Y-52906820D01*
X52853502Y-52838699D01*
X52877896Y-52810816D01*
X52880858Y-52808299D01*
X53345282Y-52413538D01*
X53713322Y-52100704D01*
X53713330Y-52100696D01*
X53715079Y-52099210D01*
X53741898Y-52072772D01*
X53754668Y-52058176D01*
X53765867Y-52045376D01*
X53765882Y-52045358D01*
X53766291Y-52044891D01*
X53772941Y-52036972D01*
X53785982Y-52012042D01*
X53816283Y-51954116D01*
X53816285Y-51954111D01*
X53819149Y-51948636D01*
X53839151Y-51880515D01*
X53849500Y-51808533D01*
X53849500Y-49591411D01*
X53869502Y-49523290D01*
X53888406Y-49500358D01*
X54898760Y-48533932D01*
X54898765Y-48533927D01*
X54900101Y-48532649D01*
X54901352Y-48531302D01*
X54901364Y-48531290D01*
X54919381Y-48511893D01*
X54919386Y-48511887D01*
X54920643Y-48510534D01*
X54939547Y-48487602D01*
X54987549Y-48397064D01*
X55007551Y-48328943D01*
X55008192Y-48324488D01*
X55017261Y-48261409D01*
X55017261Y-48261402D01*
X55017900Y-48256961D01*
X55017900Y-48134021D01*
X55017737Y-48131715D01*
X55015493Y-48100123D01*
X55015336Y-48097912D01*
X55014249Y-48090297D01*
X55013668Y-48083665D01*
X55013816Y-48081416D01*
X55011079Y-48060621D01*
X55010001Y-48044180D01*
X55010000Y-47352941D01*
X55010000Y-47350280D01*
X55008462Y-47332152D01*
X55022634Y-47262584D01*
X55072167Y-47211722D01*
X55134011Y-47195500D01*
X55630615Y-47195500D01*
X55698736Y-47215502D01*
X55745229Y-47269158D01*
X55755536Y-47337952D01*
X55754500Y-47345821D01*
X55754500Y-47654005D01*
X55752020Y-47677311D01*
X55751922Y-47679387D01*
X55749731Y-47689566D01*
X55750955Y-47699906D01*
X55753628Y-47722491D01*
X55754501Y-47737301D01*
X55754501Y-48069178D01*
X55755039Y-48073261D01*
X55755039Y-48073269D01*
X55759322Y-48105803D01*
X55760400Y-48122247D01*
X55760400Y-49493015D01*
X55740398Y-49561136D01*
X55686742Y-49607629D01*
X55678635Y-49610994D01*
X55649141Y-49622051D01*
X55537284Y-49705884D01*
X55531905Y-49713061D01*
X55458833Y-49810559D01*
X55458831Y-49810562D01*
X55453451Y-49817741D01*
X55404383Y-49948632D01*
X55403622Y-49955637D01*
X55373763Y-50011647D01*
X55356461Y-50030365D01*
X55353030Y-50033933D01*
X55070860Y-50316103D01*
X55008548Y-50350129D01*
X54981106Y-50353006D01*
X54922666Y-50352700D01*
X54839484Y-50352265D01*
X54832105Y-50354037D01*
X54832101Y-50354037D01*
X54693767Y-50387248D01*
X54693763Y-50387249D01*
X54686388Y-50389020D01*
X54546479Y-50461232D01*
X54540757Y-50466224D01*
X54540755Y-50466225D01*
X54433559Y-50559738D01*
X54433556Y-50559741D01*
X54427834Y-50564733D01*
X54337301Y-50693548D01*
X54280109Y-50840239D01*
X54279118Y-50847768D01*
X54262093Y-50977084D01*
X54259558Y-50996338D01*
X54276835Y-51152833D01*
X54330943Y-51300690D01*
X54418758Y-51431372D01*
X54535210Y-51537335D01*
X54556685Y-51548995D01*
X54666899Y-51608837D01*
X54666901Y-51608838D01*
X54673576Y-51612462D01*
X54680925Y-51614390D01*
X54818519Y-51650487D01*
X54818521Y-51650487D01*
X54825869Y-51652415D01*
X54909180Y-51653724D01*
X54975698Y-51654769D01*
X54975701Y-51654769D01*
X54983295Y-51654888D01*
X55136768Y-51619738D01*
X55225888Y-51574915D01*
X55295730Y-51562177D01*
X55361374Y-51589222D01*
X55401976Y-51647462D01*
X55408500Y-51687481D01*
X55408501Y-52030826D01*
X55408501Y-52366490D01*
X55408870Y-52369885D01*
X55408870Y-52369890D01*
X55409603Y-52376633D01*
X55414983Y-52426168D01*
X55464051Y-52557059D01*
X55469431Y-52564238D01*
X55469433Y-52564241D01*
X55542505Y-52661739D01*
X55547884Y-52668916D01*
X55555061Y-52674295D01*
X55652559Y-52747367D01*
X55652562Y-52747369D01*
X55659741Y-52752749D01*
X55668145Y-52755899D01*
X55668146Y-52755900D01*
X55783237Y-52799045D01*
X55783239Y-52799045D01*
X55790632Y-52801817D01*
X55798480Y-52802670D01*
X55798482Y-52802670D01*
X55846903Y-52807930D01*
X55850309Y-52808300D01*
X56133958Y-52808300D01*
X56417690Y-52808299D01*
X56421085Y-52807930D01*
X56421090Y-52807930D01*
X56469510Y-52802671D01*
X56469514Y-52802670D01*
X56477368Y-52801817D01*
X56608259Y-52752749D01*
X56615438Y-52747369D01*
X56615441Y-52747367D01*
X56712939Y-52674295D01*
X56720116Y-52668916D01*
X56725495Y-52661739D01*
X56798567Y-52564241D01*
X56798569Y-52564238D01*
X56803949Y-52557059D01*
X56853017Y-52426168D01*
X56859500Y-52366491D01*
X56859499Y-51674110D01*
X56857467Y-51655398D01*
X56853871Y-51622290D01*
X56853870Y-51622286D01*
X56853017Y-51614432D01*
X56803949Y-51483541D01*
X56798569Y-51476362D01*
X56798567Y-51476359D01*
X56725495Y-51378861D01*
X56720116Y-51371684D01*
X56608259Y-51287851D01*
X56591270Y-51281482D01*
X56534506Y-51238842D01*
X56509806Y-51172281D01*
X56509500Y-51163501D01*
X56509500Y-51091698D01*
X56529502Y-51023577D01*
X56583158Y-50977084D01*
X56591270Y-50973716D01*
X56602148Y-50969638D01*
X56622659Y-50961949D01*
X56629838Y-50956569D01*
X56629841Y-50956567D01*
X56727339Y-50883495D01*
X56734516Y-50878116D01*
X56769675Y-50831204D01*
X56826535Y-50788690D01*
X56897353Y-50783665D01*
X56959646Y-50817725D01*
X56993637Y-50880056D01*
X56996228Y-50898481D01*
X56998174Y-50928006D01*
X56998176Y-50928021D01*
X56998312Y-50930091D01*
X57002656Y-50962890D01*
X57037983Y-51062661D01*
X57075028Y-51123226D01*
X57121416Y-51179231D01*
X57124755Y-51182257D01*
X57124756Y-51182258D01*
X57255440Y-51300690D01*
X58579167Y-52500317D01*
X58616211Y-52560881D01*
X58620552Y-52594531D01*
X58619169Y-52799042D01*
X58601620Y-55393785D01*
X58581158Y-55461769D01*
X58527189Y-55507898D01*
X58456848Y-55517526D01*
X58391804Y-55487009D01*
X58291648Y-55397772D01*
X58291645Y-55397770D01*
X58285976Y-55392719D01*
X58146831Y-55319045D01*
X58092269Y-55305340D01*
X58001498Y-55282540D01*
X58001496Y-55282540D01*
X57994128Y-55280689D01*
X57986530Y-55280649D01*
X57986528Y-55280649D01*
X57919319Y-55280297D01*
X57836684Y-55279865D01*
X57829305Y-55281637D01*
X57829301Y-55281637D01*
X57690967Y-55314848D01*
X57690963Y-55314849D01*
X57683588Y-55316620D01*
X57654733Y-55331513D01*
X57576045Y-55372127D01*
X57543679Y-55388832D01*
X57537957Y-55393824D01*
X57537955Y-55393825D01*
X57430759Y-55487338D01*
X57430756Y-55487341D01*
X57425034Y-55492333D01*
X57334501Y-55621148D01*
X57277309Y-55767839D01*
X57256758Y-55923938D01*
X57274035Y-56080433D01*
X57328143Y-56228290D01*
X57415958Y-56358972D01*
X57532410Y-56464935D01*
X57546588Y-56472633D01*
X57664099Y-56536437D01*
X57664101Y-56536438D01*
X57670776Y-56540062D01*
X57678125Y-56541990D01*
X57815719Y-56578087D01*
X57815721Y-56578087D01*
X57823069Y-56580015D01*
X57906380Y-56581324D01*
X57972898Y-56582369D01*
X57972901Y-56582369D01*
X57980495Y-56582488D01*
X58133968Y-56547338D01*
X58274625Y-56476595D01*
X58299105Y-56455687D01*
X58363893Y-56426658D01*
X58380933Y-56425500D01*
X58467788Y-56425500D01*
X58535909Y-56445502D01*
X58582402Y-56499158D01*
X58593785Y-56552352D01*
X58592502Y-56742046D01*
X58593448Y-56765807D01*
X58593572Y-56767236D01*
X58593572Y-56767241D01*
X58594741Y-56780741D01*
X58595468Y-56789144D01*
X58597094Y-56794892D01*
X58617088Y-56865571D01*
X58621646Y-56881685D01*
X58653483Y-56945143D01*
X58695014Y-57004843D01*
X58850192Y-57171210D01*
X58872325Y-57192262D01*
X58895315Y-57211648D01*
X58985653Y-57260759D01*
X59053576Y-57281424D01*
X59058024Y-57282108D01*
X59058029Y-57282109D01*
X59121004Y-57291791D01*
X59121008Y-57291791D01*
X59125455Y-57292475D01*
X59129960Y-57292519D01*
X59129961Y-57292519D01*
X59747387Y-57298534D01*
X59815310Y-57319199D01*
X59861278Y-57373305D01*
X59870697Y-57443674D01*
X59868303Y-57452234D01*
X59868434Y-57452260D01*
X59853900Y-57525326D01*
X59853900Y-57748500D01*
X59833898Y-57816621D01*
X59780242Y-57863114D01*
X59727900Y-57874500D01*
X58492927Y-57874500D01*
X58424806Y-57854498D01*
X58403832Y-57837595D01*
X57538248Y-56972011D01*
X57523523Y-56953780D01*
X57522122Y-56952240D01*
X57516472Y-56943490D01*
X57490435Y-56922964D01*
X57486068Y-56919083D01*
X57486002Y-56919161D01*
X57482044Y-56915807D01*
X57478362Y-56912125D01*
X57474131Y-56909102D01*
X57474128Y-56909099D01*
X57469309Y-56905656D01*
X57462848Y-56901039D01*
X57458112Y-56897483D01*
X57418300Y-56866097D01*
X57409751Y-56863095D01*
X57402381Y-56857828D01*
X57368649Y-56847740D01*
X57353830Y-56843308D01*
X57348186Y-56841474D01*
X57307835Y-56827304D01*
X57307829Y-56827303D01*
X57300352Y-56824677D01*
X57294845Y-56824200D01*
X57292138Y-56824200D01*
X57289565Y-56824089D01*
X57289406Y-56824041D01*
X57289412Y-56823897D01*
X57288792Y-56823858D01*
X57282613Y-56822010D01*
X57229345Y-56824103D01*
X57224398Y-56824200D01*
X56951729Y-56824200D01*
X56883608Y-56804198D01*
X56837115Y-56750542D01*
X56833747Y-56742429D01*
X56833604Y-56742046D01*
X56803949Y-56662941D01*
X56798569Y-56655762D01*
X56798567Y-56655759D01*
X56725495Y-56558261D01*
X56720116Y-56551084D01*
X56700573Y-56536437D01*
X56615441Y-56472633D01*
X56615438Y-56472631D01*
X56608259Y-56467251D01*
X56588450Y-56459825D01*
X56484763Y-56420955D01*
X56484761Y-56420955D01*
X56477368Y-56418183D01*
X56469520Y-56417330D01*
X56469518Y-56417330D01*
X56421088Y-56412069D01*
X56421087Y-56412069D01*
X56417691Y-56411700D01*
X56134042Y-56411700D01*
X55850310Y-56411701D01*
X55846915Y-56412070D01*
X55846910Y-56412070D01*
X55798490Y-56417329D01*
X55798486Y-56417330D01*
X55790632Y-56418183D01*
X55659741Y-56467251D01*
X55652562Y-56472631D01*
X55652559Y-56472633D01*
X55567427Y-56536437D01*
X55547884Y-56551084D01*
X55542505Y-56558261D01*
X55469433Y-56655759D01*
X55469431Y-56655762D01*
X55464051Y-56662941D01*
X55460901Y-56671345D01*
X55460900Y-56671346D01*
X55419891Y-56780741D01*
X55414983Y-56793832D01*
X55414130Y-56801680D01*
X55414130Y-56801682D01*
X55411684Y-56824200D01*
X55408500Y-56853509D01*
X55408501Y-57545890D01*
X55408870Y-57549285D01*
X55408870Y-57549290D01*
X55411718Y-57575506D01*
X55414983Y-57605568D01*
X55464051Y-57736459D01*
X55469431Y-57743638D01*
X55469433Y-57743641D01*
X55539849Y-57837595D01*
X55547884Y-57848316D01*
X55555061Y-57853695D01*
X55652559Y-57926767D01*
X55652562Y-57926769D01*
X55659741Y-57932149D01*
X55668145Y-57935299D01*
X55668146Y-57935300D01*
X55783237Y-57978445D01*
X55783239Y-57978445D01*
X55790632Y-57981217D01*
X55798480Y-57982070D01*
X55798482Y-57982070D01*
X55846903Y-57987330D01*
X55850309Y-57987700D01*
X56133958Y-57987700D01*
X56417690Y-57987699D01*
X56421085Y-57987330D01*
X56421090Y-57987330D01*
X56469510Y-57982071D01*
X56469514Y-57982070D01*
X56477368Y-57981217D01*
X56608259Y-57932149D01*
X56615438Y-57926769D01*
X56615441Y-57926767D01*
X56712939Y-57853695D01*
X56720116Y-57848316D01*
X56728151Y-57837595D01*
X56798567Y-57743641D01*
X56798569Y-57743638D01*
X56803949Y-57736459D01*
X56833747Y-57656970D01*
X56876388Y-57600207D01*
X56942949Y-57575506D01*
X56951729Y-57575200D01*
X57027173Y-57575200D01*
X57095294Y-57595202D01*
X57116268Y-57612105D01*
X57665068Y-58160905D01*
X57699094Y-58223217D01*
X57694029Y-58294032D01*
X57665068Y-58339095D01*
X56922968Y-59081195D01*
X56860656Y-59115221D01*
X56833873Y-59118100D01*
X52681300Y-59118100D01*
X52613179Y-59098098D01*
X52566686Y-59044442D01*
X52555300Y-58992100D01*
X52555300Y-58718926D01*
X52540766Y-58645860D01*
X52485401Y-58562999D01*
X52402540Y-58507634D01*
X52329474Y-58493100D01*
X49880126Y-58493100D01*
X49807060Y-58507634D01*
X49724199Y-58562999D01*
X49668834Y-58645860D01*
X49654300Y-58718926D01*
X49654300Y-60268274D01*
X49668834Y-60341340D01*
X49724199Y-60424201D01*
X49807060Y-60479566D01*
X49880126Y-60494100D01*
X52329474Y-60494100D01*
X52402540Y-60479566D01*
X52485401Y-60424201D01*
X52540766Y-60341340D01*
X52555300Y-60268274D01*
X52555300Y-59995100D01*
X52575302Y-59926979D01*
X52628958Y-59880486D01*
X52681300Y-59869100D01*
X56988104Y-59869100D01*
X57011401Y-59871579D01*
X57013486Y-59871677D01*
X57023666Y-59873869D01*
X57056584Y-59869973D01*
X57062421Y-59869629D01*
X57062413Y-59869528D01*
X57067592Y-59869100D01*
X57072793Y-59869100D01*
X57077921Y-59868246D01*
X57077927Y-59868246D01*
X57091587Y-59865972D01*
X57097463Y-59865135D01*
X57102552Y-59864533D01*
X57147810Y-59859176D01*
X57155977Y-59855254D01*
X57164913Y-59853767D01*
X57174075Y-59848823D01*
X57174079Y-59848822D01*
X57209529Y-59829694D01*
X57214820Y-59826998D01*
X57253349Y-59808497D01*
X57253350Y-59808496D01*
X57260500Y-59805063D01*
X57264731Y-59801506D01*
X57266663Y-59799574D01*
X57268537Y-59797855D01*
X57268674Y-59797781D01*
X57268774Y-59797891D01*
X57269254Y-59797468D01*
X57274929Y-59794406D01*
X57311141Y-59755232D01*
X57314570Y-59751667D01*
X58403832Y-58662405D01*
X58466144Y-58628379D01*
X58492927Y-58625500D01*
X59727900Y-58625500D01*
X59796021Y-58645502D01*
X59842514Y-58699158D01*
X59853900Y-58751500D01*
X59853900Y-58974674D01*
X59868434Y-59047740D01*
X59875328Y-59058057D01*
X59875328Y-59058058D01*
X59896437Y-59089650D01*
X59923799Y-59130601D01*
X60006660Y-59185966D01*
X60079726Y-59200500D01*
X61129074Y-59200500D01*
X61202140Y-59185966D01*
X61285001Y-59130601D01*
X61312363Y-59089650D01*
X61333472Y-59058058D01*
X61333472Y-59058057D01*
X61340366Y-59047740D01*
X61354900Y-58974674D01*
X61354900Y-57525326D01*
X61340366Y-57452260D01*
X61285001Y-57369399D01*
X61202140Y-57314034D01*
X61129074Y-57299500D01*
X60714022Y-57299500D01*
X60645901Y-57279498D01*
X60599408Y-57225842D01*
X60589304Y-57155568D01*
X60618798Y-57090988D01*
X60624927Y-57084405D01*
X60697420Y-57011912D01*
X60715605Y-56991679D01*
X60730720Y-56972944D01*
X60789059Y-56932487D01*
X60860012Y-56929992D01*
X60898783Y-56947295D01*
X60921580Y-56962527D01*
X60935775Y-56972011D01*
X60956660Y-56985966D01*
X61029726Y-57000500D01*
X62079074Y-57000500D01*
X62152140Y-56985966D01*
X62173026Y-56972011D01*
X62224686Y-56937493D01*
X62235001Y-56930601D01*
X62276977Y-56867778D01*
X62283472Y-56858058D01*
X62283472Y-56858057D01*
X62290366Y-56847740D01*
X62304900Y-56774674D01*
X62304900Y-55325326D01*
X62290366Y-55252260D01*
X62235001Y-55169399D01*
X62152140Y-55114034D01*
X62079074Y-55099500D01*
X62055900Y-55099500D01*
X61987779Y-55079498D01*
X61941286Y-55025842D01*
X61929900Y-54973500D01*
X61929900Y-52311496D01*
X61932379Y-52288199D01*
X61932477Y-52286114D01*
X61934669Y-52275934D01*
X61930773Y-52243016D01*
X61930429Y-52237179D01*
X61930328Y-52237187D01*
X61929900Y-52232011D01*
X61929900Y-52226807D01*
X61926772Y-52208011D01*
X61925935Y-52202136D01*
X61922488Y-52173011D01*
X61919976Y-52151791D01*
X61916055Y-52143625D01*
X61914567Y-52134687D01*
X61890491Y-52090064D01*
X61887798Y-52084778D01*
X61869296Y-52046247D01*
X61869292Y-52046241D01*
X61865863Y-52039100D01*
X61862306Y-52034869D01*
X61860377Y-52032940D01*
X61858655Y-52031063D01*
X61858581Y-52030926D01*
X61858691Y-52030826D01*
X61858268Y-52030346D01*
X61855206Y-52024671D01*
X61816032Y-51988459D01*
X61812467Y-51985030D01*
X60051605Y-50224168D01*
X60017579Y-50161856D01*
X60014700Y-50135073D01*
X60014700Y-47551496D01*
X60017179Y-47528199D01*
X60017277Y-47526114D01*
X60019469Y-47515934D01*
X60015573Y-47483016D01*
X60015229Y-47477179D01*
X60015128Y-47477187D01*
X60014700Y-47472011D01*
X60014700Y-47466807D01*
X60011572Y-47448011D01*
X60010735Y-47442136D01*
X60006000Y-47402133D01*
X60004776Y-47391791D01*
X60000855Y-47383625D01*
X59999367Y-47374687D01*
X59975291Y-47330064D01*
X59972598Y-47324778D01*
X59954096Y-47286247D01*
X59954092Y-47286241D01*
X59950663Y-47279100D01*
X59947106Y-47274869D01*
X59945177Y-47272940D01*
X59943455Y-47271063D01*
X59943381Y-47270926D01*
X59943491Y-47270826D01*
X59943068Y-47270346D01*
X59940006Y-47264671D01*
X59900832Y-47228459D01*
X59897267Y-47225030D01*
X59467131Y-46794894D01*
X59433105Y-46732582D01*
X59438170Y-46661767D01*
X59480717Y-46604931D01*
X59499612Y-46593234D01*
X59544625Y-46570595D01*
X59614271Y-46511112D01*
X59658574Y-46473274D01*
X59658576Y-46473271D01*
X59664348Y-46468342D01*
X59756224Y-46340483D01*
X59814950Y-46194398D01*
X59827404Y-46106888D01*
X59836553Y-46042607D01*
X59836553Y-46042604D01*
X59837134Y-46038523D01*
X59837278Y-46024800D01*
X59818363Y-45868494D01*
X59780720Y-45768873D01*
X59765394Y-45728314D01*
X59765393Y-45728311D01*
X59762710Y-45721212D01*
X59673531Y-45591457D01*
X59606906Y-45532096D01*
X59561648Y-45491772D01*
X59561645Y-45491770D01*
X59555976Y-45486719D01*
X59416831Y-45413045D01*
X59400122Y-45408848D01*
X59271498Y-45376540D01*
X59271496Y-45376540D01*
X59264128Y-45374689D01*
X59256530Y-45374649D01*
X59256528Y-45374649D01*
X59189319Y-45374297D01*
X59106684Y-45373865D01*
X59099305Y-45375637D01*
X59099301Y-45375637D01*
X58960967Y-45408848D01*
X58960963Y-45408849D01*
X58953588Y-45410620D01*
X58813679Y-45482832D01*
X58714327Y-45569502D01*
X58649847Y-45599209D01*
X58579540Y-45589340D01*
X58525730Y-45543026D01*
X58505500Y-45474553D01*
X58505499Y-45374946D01*
X58505499Y-45370822D01*
X58499499Y-45325240D01*
X58495425Y-45316503D01*
X58495424Y-45316500D01*
X58475256Y-45273249D01*
X58464595Y-45203058D01*
X58475256Y-45166751D01*
X58495426Y-45123496D01*
X58495427Y-45123492D01*
X58499499Y-45114760D01*
X58505500Y-45069179D01*
X58505499Y-44870822D01*
X58499499Y-44825240D01*
X58495425Y-44816503D01*
X58495424Y-44816500D01*
X58475256Y-44773249D01*
X58464595Y-44703058D01*
X58475256Y-44666751D01*
X58495426Y-44623496D01*
X58495427Y-44623492D01*
X58499499Y-44614760D01*
X58505500Y-44569179D01*
X58505499Y-44374301D01*
X58525501Y-44306180D01*
X58579156Y-44259687D01*
X58631499Y-44248300D01*
X60249182Y-44248300D01*
X60317303Y-44268302D01*
X60335838Y-44282830D01*
X61071556Y-44979826D01*
X61107252Y-45041196D01*
X61110900Y-45071296D01*
X61110900Y-49535182D01*
X61111387Y-49550950D01*
X61112347Y-49566476D01*
X61132948Y-49652351D01*
X61161192Y-49717488D01*
X61199323Y-49779412D01*
X61386338Y-50003830D01*
X61388013Y-50005554D01*
X61411143Y-50029361D01*
X61413449Y-50031735D01*
X61415240Y-50033317D01*
X61415249Y-50033326D01*
X61441566Y-50056577D01*
X61442124Y-50057070D01*
X61442705Y-50057560D01*
X61445699Y-50060088D01*
X61445703Y-50060091D01*
X61450976Y-50064541D01*
X61471154Y-50075096D01*
X61533832Y-50107883D01*
X61533837Y-50107885D01*
X61539312Y-50110749D01*
X61545248Y-50112492D01*
X61603110Y-50129482D01*
X61603114Y-50129483D01*
X61607433Y-50130751D01*
X61611881Y-50131391D01*
X61611888Y-50131392D01*
X61674967Y-50140461D01*
X61674974Y-50140461D01*
X61679415Y-50141100D01*
X64159010Y-50141100D01*
X64160665Y-50141011D01*
X64160677Y-50141011D01*
X64184637Y-50139727D01*
X64186317Y-50139637D01*
X64187994Y-50139457D01*
X64188003Y-50139456D01*
X64206942Y-50137420D01*
X64206943Y-50137420D01*
X64213100Y-50136758D01*
X64219005Y-50134909D01*
X64219010Y-50134908D01*
X64302339Y-50108815D01*
X64308244Y-50106966D01*
X64313668Y-50104004D01*
X64313673Y-50104002D01*
X64359546Y-50078952D01*
X64370556Y-50072940D01*
X64428771Y-50029361D01*
X64608961Y-49849171D01*
X64627233Y-49828830D01*
X64644136Y-49807856D01*
X64690349Y-49719513D01*
X64692159Y-49713349D01*
X64709082Y-49655715D01*
X64709083Y-49655711D01*
X64710351Y-49651392D01*
X64710992Y-49646937D01*
X64720061Y-49583858D01*
X64720061Y-49583851D01*
X64720700Y-49579410D01*
X64720700Y-49376210D01*
X64990500Y-49376210D01*
X64990589Y-49377865D01*
X64990589Y-49377877D01*
X64991760Y-49399720D01*
X64991963Y-49403517D01*
X64994842Y-49430300D01*
X64996691Y-49436205D01*
X64996692Y-49436210D01*
X65016299Y-49498826D01*
X65024634Y-49525444D01*
X65027596Y-49530868D01*
X65027598Y-49530873D01*
X65038036Y-49549987D01*
X65058660Y-49587756D01*
X65102239Y-49645971D01*
X65536429Y-50080161D01*
X65537686Y-50081290D01*
X65537689Y-50081293D01*
X65555526Y-50097316D01*
X65555536Y-50097324D01*
X65556770Y-50098433D01*
X65577744Y-50115336D01*
X65615159Y-50134908D01*
X65643052Y-50149499D01*
X65666087Y-50161549D01*
X65672025Y-50163292D01*
X65672026Y-50163293D01*
X65729885Y-50180282D01*
X65729889Y-50180283D01*
X65734208Y-50181551D01*
X65738656Y-50182191D01*
X65738663Y-50182192D01*
X65801742Y-50191261D01*
X65801749Y-50191261D01*
X65806190Y-50191900D01*
X68568090Y-50191900D01*
X68602032Y-50189635D01*
X68604118Y-50189355D01*
X68604132Y-50189354D01*
X68619729Y-50187263D01*
X68635210Y-50185188D01*
X68735260Y-50149499D01*
X68748897Y-50141100D01*
X68767759Y-50129482D01*
X68783826Y-50119586D01*
X68783654Y-50119307D01*
X68790929Y-50113433D01*
X68814423Y-50099950D01*
X68819794Y-50096868D01*
X68903656Y-50023710D01*
X68928683Y-50006702D01*
X68986553Y-49976833D01*
X69014912Y-49966287D01*
X69093968Y-49947307D01*
X69105419Y-49945158D01*
X69105416Y-49945136D01*
X69106144Y-49945022D01*
X69106156Y-49945020D01*
X69106659Y-49944941D01*
X69106664Y-49944940D01*
X69109817Y-49944444D01*
X69125945Y-49941910D01*
X69127161Y-49941668D01*
X69127177Y-49941665D01*
X69140372Y-49939037D01*
X69140371Y-49939037D01*
X69146037Y-49937909D01*
X69151402Y-49935766D01*
X69151405Y-49935765D01*
X69189616Y-49920501D01*
X69232622Y-49903321D01*
X69237516Y-49900229D01*
X69237519Y-49900227D01*
X69259422Y-49886386D01*
X69292640Y-49865396D01*
X69335497Y-49828830D01*
X69344542Y-49821113D01*
X69344543Y-49821112D01*
X69347963Y-49818194D01*
X70099073Y-48964661D01*
X70159090Y-48926736D01*
X70193662Y-48921900D01*
X73321810Y-48921900D01*
X73323465Y-48921811D01*
X73323477Y-48921811D01*
X73347437Y-48920527D01*
X73349117Y-48920437D01*
X73350794Y-48920257D01*
X73350803Y-48920256D01*
X73369742Y-48918220D01*
X73369743Y-48918220D01*
X73375900Y-48917558D01*
X73381805Y-48915709D01*
X73381810Y-48915708D01*
X73465139Y-48889615D01*
X73471044Y-48887766D01*
X73476468Y-48884804D01*
X73476473Y-48884802D01*
X73507647Y-48867779D01*
X73533356Y-48853740D01*
X73591571Y-48810161D01*
X74076561Y-48325171D01*
X74094833Y-48304830D01*
X74111736Y-48283856D01*
X74157949Y-48195513D01*
X74172281Y-48146704D01*
X74176682Y-48131715D01*
X74176683Y-48131711D01*
X74177951Y-48127392D01*
X74178691Y-48122247D01*
X74187661Y-48059858D01*
X74187661Y-48059851D01*
X74188300Y-48055410D01*
X74188300Y-46436516D01*
X74186031Y-46402538D01*
X74181574Y-46369321D01*
X74173481Y-46346649D01*
X74148066Y-46275456D01*
X74148065Y-46275454D01*
X74145845Y-46269235D01*
X74108592Y-46208797D01*
X74105712Y-46205345D01*
X74105707Y-46205337D01*
X74064892Y-46156403D01*
X74064891Y-46156402D01*
X74062011Y-46152949D01*
X73631660Y-45765633D01*
X73615772Y-45752456D01*
X73609911Y-45747982D01*
X73604195Y-45743618D01*
X73604192Y-45743616D01*
X73599603Y-45740113D01*
X73516552Y-45698051D01*
X73511011Y-45696424D01*
X73511006Y-45696422D01*
X73452754Y-45679318D01*
X73452750Y-45679317D01*
X73448431Y-45678049D01*
X73443983Y-45677409D01*
X73443976Y-45677408D01*
X73380897Y-45668339D01*
X73380890Y-45668339D01*
X73376449Y-45667700D01*
X71848463Y-45667700D01*
X71847142Y-45667758D01*
X71847121Y-45667758D01*
X71827593Y-45668609D01*
X71827592Y-45668609D01*
X71826239Y-45668668D01*
X71824891Y-45668786D01*
X71824871Y-45668787D01*
X71810249Y-45670064D01*
X71810248Y-45670064D01*
X71804398Y-45670575D01*
X71798750Y-45672159D01*
X71798746Y-45672160D01*
X71718881Y-45694562D01*
X71718879Y-45694563D01*
X71713231Y-45696147D01*
X71649610Y-45727655D01*
X71645915Y-45730197D01*
X71645912Y-45730199D01*
X71612379Y-45753270D01*
X71589701Y-45768873D01*
X71586399Y-45771921D01*
X71586394Y-45771925D01*
X71075105Y-46243885D01*
X71011483Y-46275393D01*
X70989642Y-46277300D01*
X69217230Y-46277300D01*
X69177426Y-46280420D01*
X69138647Y-46286536D01*
X69137919Y-46286669D01*
X69137897Y-46286673D01*
X69135609Y-46287092D01*
X69126251Y-46288805D01*
X69034511Y-46327820D01*
X69029398Y-46331307D01*
X69029397Y-46331307D01*
X68999930Y-46351400D01*
X68975853Y-46367817D01*
X68972530Y-46370859D01*
X68940186Y-46400467D01*
X68922212Y-46416920D01*
X68475217Y-46962115D01*
X68416560Y-47002111D01*
X68379246Y-47008219D01*
X65755471Y-47038676D01*
X65753487Y-47038826D01*
X65753484Y-47038826D01*
X65746404Y-47039361D01*
X65722986Y-47041130D01*
X65720994Y-47041409D01*
X65720995Y-47041409D01*
X65697683Y-47044675D01*
X65697681Y-47044675D01*
X65691232Y-47045579D01*
X65685108Y-47047785D01*
X65685105Y-47047786D01*
X65598741Y-47078900D01*
X65598737Y-47078902D01*
X65592619Y-47081106D01*
X65556119Y-47103604D01*
X65536014Y-47115996D01*
X65536010Y-47115999D01*
X65532181Y-47118359D01*
X65476333Y-47164941D01*
X65473327Y-47168281D01*
X65473326Y-47168282D01*
X65380923Y-47270952D01*
X65088433Y-47595941D01*
X65075256Y-47611828D01*
X65074491Y-47612830D01*
X65074472Y-47612854D01*
X65070158Y-47618506D01*
X65062913Y-47627997D01*
X65060304Y-47633148D01*
X65060303Y-47633150D01*
X65049741Y-47654005D01*
X65020851Y-47711048D01*
X65019224Y-47716589D01*
X65019222Y-47716594D01*
X65002118Y-47774846D01*
X65000849Y-47779169D01*
X65000209Y-47783617D01*
X65000208Y-47783624D01*
X64993183Y-47832492D01*
X64990500Y-47851151D01*
X64990500Y-49376210D01*
X64720700Y-49376210D01*
X64720700Y-47863359D01*
X64720073Y-47855647D01*
X64718731Y-47839170D01*
X64717337Y-47822042D01*
X64710747Y-47781826D01*
X64708076Y-47767944D01*
X64705238Y-47761486D01*
X64705236Y-47761481D01*
X64670454Y-47682345D01*
X64670451Y-47682340D01*
X64667963Y-47676679D01*
X64652100Y-47654005D01*
X64629844Y-47622192D01*
X64629842Y-47622190D01*
X64627265Y-47618506D01*
X64597685Y-47586961D01*
X64580596Y-47568736D01*
X64580594Y-47568734D01*
X64577522Y-47565458D01*
X64574012Y-47562650D01*
X64007845Y-47109716D01*
X63967147Y-47051543D01*
X63960563Y-47010054D01*
X63999273Y-43177745D01*
X64008952Y-42219515D01*
X64007636Y-42190906D01*
X64004763Y-42162850D01*
X63974837Y-42066427D01*
X63940811Y-42004115D01*
X63897232Y-41945900D01*
X63565171Y-41613839D01*
X63549663Y-41599908D01*
X63546074Y-41596684D01*
X63546064Y-41596676D01*
X63544830Y-41595567D01*
X63523856Y-41578664D01*
X63435513Y-41532451D01*
X63429575Y-41530708D01*
X63429574Y-41530707D01*
X63371715Y-41513718D01*
X63371711Y-41513717D01*
X63367392Y-41512449D01*
X63362944Y-41511809D01*
X63362937Y-41511808D01*
X63299858Y-41502739D01*
X63299851Y-41502739D01*
X63295410Y-41502100D01*
X61520190Y-41502100D01*
X61518535Y-41502189D01*
X61518523Y-41502189D01*
X61495141Y-41503442D01*
X61492883Y-41503563D01*
X61491206Y-41503743D01*
X61491197Y-41503744D01*
X61472258Y-41505780D01*
X61472257Y-41505780D01*
X61466100Y-41506442D01*
X61460195Y-41508291D01*
X61460190Y-41508292D01*
X61388607Y-41530707D01*
X61370956Y-41536234D01*
X61365532Y-41539196D01*
X61365527Y-41539198D01*
X61317330Y-41565517D01*
X61247956Y-41580609D01*
X61181435Y-41555799D01*
X61139077Y-41499467D01*
X61086195Y-41359516D01*
X61086193Y-41359512D01*
X61083510Y-41352412D01*
X60994331Y-41222657D01*
X60894293Y-41133526D01*
X60882448Y-41122972D01*
X60882445Y-41122970D01*
X60876776Y-41117919D01*
X60737631Y-41044245D01*
X60687269Y-41031595D01*
X60592298Y-41007740D01*
X60592296Y-41007740D01*
X60584928Y-41005889D01*
X60577330Y-41005849D01*
X60577328Y-41005849D01*
X60510119Y-41005497D01*
X60427484Y-41005065D01*
X60420105Y-41006837D01*
X60420101Y-41006837D01*
X60281767Y-41040048D01*
X60281763Y-41040049D01*
X60274388Y-41041820D01*
X60201646Y-41079365D01*
X60168236Y-41096609D01*
X60098529Y-41110078D01*
X60032605Y-41083723D01*
X60005680Y-41054644D01*
X59972553Y-41005065D01*
X59954201Y-40977599D01*
X59909851Y-40947966D01*
X59864323Y-40893490D01*
X59855474Y-40823047D01*
X59886115Y-40759002D01*
X59909851Y-40738434D01*
X59933880Y-40722379D01*
X59954201Y-40708801D01*
X60009566Y-40625940D01*
X60024100Y-40552874D01*
X60024100Y-39583526D01*
X60009566Y-39510460D01*
X59954201Y-39427599D01*
X59911917Y-39399346D01*
X59881658Y-39379128D01*
X59881657Y-39379128D01*
X59871340Y-39372234D01*
X59798274Y-39357700D01*
X58768926Y-39357700D01*
X58695860Y-39372234D01*
X58685543Y-39379128D01*
X58685542Y-39379128D01*
X58655283Y-39399346D01*
X58612999Y-39427599D01*
X58557634Y-39510460D01*
X58555213Y-39522630D01*
X58552899Y-39528217D01*
X58508352Y-39583498D01*
X58436490Y-39606000D01*
X58253785Y-39606000D01*
X58185664Y-39585998D01*
X58139171Y-39532342D01*
X58135803Y-39524229D01*
X58135204Y-39522631D01*
X58124749Y-39494741D01*
X58056492Y-39403667D01*
X58046295Y-39390061D01*
X58040916Y-39382884D01*
X58008924Y-39358907D01*
X57936241Y-39304433D01*
X57936238Y-39304431D01*
X57929059Y-39299051D01*
X57897161Y-39287093D01*
X57805563Y-39252755D01*
X57805561Y-39252755D01*
X57798168Y-39249983D01*
X57790320Y-39249130D01*
X57790318Y-39249130D01*
X57741888Y-39243869D01*
X57741887Y-39243869D01*
X57738491Y-39243500D01*
X57454842Y-39243500D01*
X57171110Y-39243501D01*
X57167715Y-39243870D01*
X57167710Y-39243870D01*
X57119290Y-39249129D01*
X57119286Y-39249130D01*
X57111432Y-39249983D01*
X56980541Y-39299051D01*
X56973362Y-39304431D01*
X56973359Y-39304433D01*
X56900676Y-39358907D01*
X56868684Y-39382884D01*
X56863305Y-39390061D01*
X56790233Y-39487559D01*
X56790231Y-39487562D01*
X56784851Y-39494741D01*
X56781701Y-39503145D01*
X56781700Y-39503146D01*
X56743143Y-39606000D01*
X56735783Y-39625632D01*
X56729300Y-39685309D01*
X56729300Y-39688725D01*
X56729301Y-40123772D01*
X56709299Y-40191893D01*
X56692396Y-40212867D01*
X56566595Y-40338668D01*
X56504283Y-40372694D01*
X56433468Y-40367629D01*
X56376632Y-40325082D01*
X56351821Y-40258562D01*
X56351500Y-40249573D01*
X56351499Y-39688728D01*
X56351499Y-39685310D01*
X56345017Y-39625632D01*
X56303333Y-39514437D01*
X56299100Y-39503146D01*
X56299099Y-39503145D01*
X56295949Y-39494741D01*
X56290569Y-39487562D01*
X56290567Y-39487559D01*
X56217495Y-39390061D01*
X56212116Y-39382884D01*
X56180124Y-39358907D01*
X56107441Y-39304433D01*
X56107438Y-39304431D01*
X56100259Y-39299051D01*
X56068361Y-39287093D01*
X55976763Y-39252755D01*
X55976761Y-39252755D01*
X55969368Y-39249983D01*
X55961520Y-39249130D01*
X55961518Y-39249130D01*
X55913088Y-39243869D01*
X55913087Y-39243869D01*
X55909691Y-39243500D01*
X55626042Y-39243500D01*
X55342310Y-39243501D01*
X55338915Y-39243870D01*
X55338910Y-39243870D01*
X55290490Y-39249129D01*
X55290486Y-39249130D01*
X55282632Y-39249983D01*
X55151741Y-39299051D01*
X55144562Y-39304431D01*
X55144559Y-39304433D01*
X55071876Y-39358907D01*
X55039884Y-39382884D01*
X55034505Y-39390061D01*
X55024308Y-39403667D01*
X54956051Y-39494741D01*
X54954793Y-39493798D01*
X54911642Y-39536854D01*
X54851379Y-39552200D01*
X54614929Y-39552200D01*
X54546808Y-39532198D01*
X54500315Y-39478542D01*
X54496947Y-39470429D01*
X54470300Y-39399346D01*
X54470299Y-39399345D01*
X54467149Y-39390941D01*
X54461769Y-39383762D01*
X54461767Y-39383759D01*
X54388695Y-39286261D01*
X54383316Y-39279084D01*
X54336331Y-39243870D01*
X54278641Y-39200633D01*
X54278638Y-39200631D01*
X54271459Y-39195251D01*
X54235682Y-39181839D01*
X54147963Y-39148955D01*
X54147961Y-39148955D01*
X54140568Y-39146183D01*
X54132720Y-39145330D01*
X54132718Y-39145330D01*
X54084288Y-39140069D01*
X54084287Y-39140069D01*
X54080891Y-39139700D01*
X53797242Y-39139700D01*
X53513510Y-39139701D01*
X53510115Y-39140070D01*
X53510110Y-39140070D01*
X53461690Y-39145329D01*
X53461686Y-39145330D01*
X53453832Y-39146183D01*
X53322941Y-39195251D01*
X53315762Y-39200631D01*
X53315759Y-39200633D01*
X53258069Y-39243870D01*
X53211084Y-39279084D01*
X53205705Y-39286261D01*
X53132633Y-39383759D01*
X53132631Y-39383762D01*
X53127251Y-39390941D01*
X53124101Y-39399345D01*
X53124100Y-39399346D01*
X53091725Y-39485709D01*
X53078183Y-39521832D01*
X53077330Y-39529680D01*
X53077330Y-39529682D01*
X53076551Y-39536854D01*
X53071700Y-39581509D01*
X53071701Y-40273890D01*
X53072070Y-40277285D01*
X53072070Y-40277290D01*
X53074918Y-40303506D01*
X53078183Y-40333568D01*
X53127251Y-40464459D01*
X53132631Y-40471638D01*
X53132633Y-40471641D01*
X53188878Y-40546687D01*
X53211084Y-40576316D01*
X53322941Y-40660149D01*
X53339930Y-40666518D01*
X53396694Y-40709158D01*
X53421394Y-40775719D01*
X53421700Y-40784499D01*
X53421700Y-40968949D01*
X53401698Y-41037070D01*
X53348042Y-41083563D01*
X53277768Y-41093667D01*
X53235001Y-41079365D01*
X53226780Y-41074846D01*
X53218600Y-41068397D01*
X53210051Y-41065395D01*
X53202681Y-41060128D01*
X53163796Y-41048499D01*
X53154130Y-41045608D01*
X53148486Y-41043774D01*
X53108135Y-41029604D01*
X53108129Y-41029603D01*
X53100652Y-41026977D01*
X53095145Y-41026500D01*
X53092438Y-41026500D01*
X53089865Y-41026389D01*
X53089706Y-41026341D01*
X53089712Y-41026197D01*
X53089092Y-41026158D01*
X53082913Y-41024310D01*
X53029645Y-41026403D01*
X53024698Y-41026500D01*
X52722499Y-41026500D01*
X52654378Y-41006498D01*
X52607885Y-40952842D01*
X52604517Y-40944729D01*
X52598149Y-40927741D01*
X52514316Y-40815884D01*
X52507139Y-40810505D01*
X52409641Y-40737433D01*
X52409638Y-40737431D01*
X52402459Y-40732051D01*
X52368976Y-40719499D01*
X52278963Y-40685755D01*
X52278961Y-40685755D01*
X52271568Y-40682983D01*
X52263720Y-40682130D01*
X52263718Y-40682130D01*
X52215288Y-40676869D01*
X52215287Y-40676869D01*
X52211891Y-40676500D01*
X51865751Y-40676500D01*
X51519510Y-40676501D01*
X51516115Y-40676870D01*
X51516110Y-40676870D01*
X51467690Y-40682129D01*
X51467686Y-40682130D01*
X51459832Y-40682983D01*
X51328941Y-40732051D01*
X51321762Y-40737431D01*
X51321759Y-40737433D01*
X51224261Y-40810505D01*
X51217084Y-40815884D01*
X51211705Y-40823061D01*
X51138633Y-40920559D01*
X51138631Y-40920562D01*
X51133251Y-40927741D01*
X51130101Y-40936145D01*
X51130100Y-40936146D01*
X51087366Y-41050142D01*
X51084183Y-41058632D01*
X51083330Y-41066480D01*
X51083330Y-41066482D01*
X51081457Y-41083723D01*
X51077700Y-41118309D01*
X51077701Y-41685690D01*
X51084183Y-41745368D01*
X51113088Y-41822474D01*
X51126883Y-41859271D01*
X51133251Y-41876259D01*
X51138631Y-41883438D01*
X51138633Y-41883441D01*
X51188145Y-41949503D01*
X51217084Y-41988116D01*
X51224261Y-41993495D01*
X51321759Y-42066567D01*
X51321762Y-42066569D01*
X51328941Y-42071949D01*
X51337345Y-42075099D01*
X51337346Y-42075100D01*
X51452437Y-42118245D01*
X51452439Y-42118245D01*
X51459832Y-42121017D01*
X51467680Y-42121870D01*
X51467682Y-42121870D01*
X51516103Y-42127130D01*
X51519509Y-42127500D01*
X51865649Y-42127500D01*
X52211890Y-42127499D01*
X52215285Y-42127130D01*
X52215290Y-42127130D01*
X52263710Y-42121871D01*
X52263714Y-42121870D01*
X52271568Y-42121017D01*
X52402459Y-42071949D01*
X52409638Y-42066569D01*
X52409641Y-42066567D01*
X52507139Y-41993495D01*
X52514316Y-41988116D01*
X52598149Y-41876259D01*
X52604518Y-41859270D01*
X52647158Y-41802506D01*
X52713719Y-41777806D01*
X52722499Y-41777500D01*
X52827473Y-41777500D01*
X52895594Y-41797502D01*
X52916568Y-41814405D01*
X54217595Y-43115433D01*
X54251621Y-43177745D01*
X54254500Y-43204528D01*
X54254500Y-43763693D01*
X54254501Y-43763696D01*
X54254501Y-44094178D01*
X54255039Y-44098261D01*
X54255039Y-44098269D01*
X54257809Y-44119311D01*
X54260501Y-44139760D01*
X54307150Y-44239799D01*
X54378973Y-44311622D01*
X54412999Y-44373934D01*
X54413457Y-44425297D01*
X54404500Y-44470326D01*
X54404500Y-44476514D01*
X54403893Y-44482676D01*
X54401041Y-44482395D01*
X54384498Y-44538736D01*
X54330842Y-44585229D01*
X54262048Y-44595536D01*
X54258268Y-44595038D01*
X54258263Y-44595038D01*
X54254179Y-44594500D01*
X53892544Y-44594500D01*
X53530822Y-44594501D01*
X53526739Y-44595039D01*
X53526731Y-44595039D01*
X53505689Y-44597809D01*
X53485240Y-44600501D01*
X53476504Y-44604575D01*
X53476503Y-44604575D01*
X53454662Y-44614760D01*
X53385201Y-44647150D01*
X53307150Y-44725201D01*
X53302491Y-44735193D01*
X53302490Y-44735194D01*
X53264577Y-44816500D01*
X53260501Y-44825240D01*
X53259243Y-44834793D01*
X53259243Y-44834794D01*
X53257298Y-44849567D01*
X53254500Y-44870821D01*
X53254500Y-44968500D01*
X53234498Y-45036621D01*
X53180842Y-45083114D01*
X53128500Y-45094500D01*
X52789727Y-45094500D01*
X52721606Y-45074498D01*
X52700632Y-45057595D01*
X52322732Y-44679695D01*
X52288706Y-44617383D01*
X52293771Y-44546568D01*
X52336318Y-44489732D01*
X52367597Y-44472618D01*
X52373711Y-44470326D01*
X52402459Y-44459549D01*
X52409638Y-44454169D01*
X52409641Y-44454167D01*
X52507139Y-44381095D01*
X52514316Y-44375716D01*
X52519695Y-44368539D01*
X52592767Y-44271041D01*
X52592769Y-44271038D01*
X52598149Y-44263859D01*
X52647217Y-44132968D01*
X52653700Y-44073291D01*
X52653699Y-43505910D01*
X52647217Y-43446232D01*
X52598149Y-43315341D01*
X52592769Y-43308162D01*
X52592767Y-43308159D01*
X52519695Y-43210661D01*
X52514316Y-43203484D01*
X52446073Y-43152338D01*
X52409641Y-43125033D01*
X52409638Y-43125031D01*
X52402459Y-43119651D01*
X52394054Y-43116500D01*
X52278963Y-43073355D01*
X52278961Y-43073355D01*
X52271568Y-43070583D01*
X52263720Y-43069730D01*
X52263718Y-43069730D01*
X52215288Y-43064469D01*
X52215287Y-43064469D01*
X52211891Y-43064100D01*
X51865751Y-43064100D01*
X51519510Y-43064101D01*
X51516115Y-43064470D01*
X51516110Y-43064470D01*
X51467690Y-43069729D01*
X51467686Y-43069730D01*
X51459832Y-43070583D01*
X51363830Y-43106572D01*
X51340193Y-43115433D01*
X51328941Y-43119651D01*
X51321762Y-43125031D01*
X51321759Y-43125033D01*
X51285327Y-43152338D01*
X51217084Y-43203484D01*
X51211705Y-43210661D01*
X51138633Y-43308159D01*
X51138631Y-43308162D01*
X51133251Y-43315341D01*
X51084183Y-43446232D01*
X51077700Y-43505909D01*
X51077701Y-44073290D01*
X51078070Y-44076685D01*
X51078070Y-44076690D01*
X51079970Y-44094178D01*
X51084183Y-44132968D01*
X51133251Y-44263859D01*
X51138631Y-44271038D01*
X51138633Y-44271041D01*
X51211705Y-44368539D01*
X51217084Y-44375716D01*
X51224261Y-44381095D01*
X51321759Y-44454167D01*
X51321762Y-44454169D01*
X51328941Y-44459549D01*
X51408430Y-44489347D01*
X51465193Y-44531988D01*
X51489894Y-44598549D01*
X51490200Y-44607329D01*
X51490200Y-44700204D01*
X51487721Y-44723501D01*
X51487623Y-44725586D01*
X51485431Y-44735766D01*
X51486655Y-44746105D01*
X51489327Y-44768684D01*
X51489671Y-44774521D01*
X51489772Y-44774513D01*
X51490200Y-44779692D01*
X51490200Y-44784893D01*
X51491054Y-44790021D01*
X51491054Y-44790027D01*
X51493328Y-44803687D01*
X51494165Y-44809563D01*
X51500124Y-44859910D01*
X51504046Y-44868077D01*
X51505533Y-44877013D01*
X51510477Y-44886175D01*
X51510478Y-44886179D01*
X51529606Y-44921629D01*
X51532302Y-44926920D01*
X51554237Y-44972600D01*
X51557794Y-44976831D01*
X51559726Y-44978763D01*
X51561445Y-44980637D01*
X51561519Y-44980774D01*
X51561409Y-44980874D01*
X51561832Y-44981354D01*
X51564894Y-44987029D01*
X51572542Y-44994099D01*
X51572543Y-44994100D01*
X51599887Y-45019377D01*
X51636331Y-45080306D01*
X51634050Y-45151266D01*
X51593767Y-45209728D01*
X51528272Y-45237130D01*
X51514364Y-45237901D01*
X51329110Y-45237901D01*
X51325715Y-45238270D01*
X51325710Y-45238270D01*
X51277290Y-45243529D01*
X51277286Y-45243530D01*
X51269432Y-45244383D01*
X51138541Y-45293451D01*
X51131362Y-45298831D01*
X51131359Y-45298833D01*
X51084889Y-45333661D01*
X51026684Y-45377284D01*
X50942851Y-45489141D01*
X50934533Y-45511330D01*
X50931797Y-45518629D01*
X50889156Y-45575394D01*
X50822595Y-45600094D01*
X50813815Y-45600400D01*
X50582985Y-45600400D01*
X50514864Y-45580398D01*
X50468371Y-45526742D01*
X50465003Y-45518629D01*
X50462267Y-45511330D01*
X50453949Y-45489141D01*
X50370116Y-45377284D01*
X50311911Y-45333661D01*
X50265441Y-45298833D01*
X50265438Y-45298831D01*
X50258259Y-45293451D01*
X50249854Y-45290300D01*
X50134763Y-45247155D01*
X50134761Y-45247155D01*
X50127368Y-45244383D01*
X50119520Y-45243530D01*
X50119518Y-45243530D01*
X50071088Y-45238269D01*
X50071087Y-45238269D01*
X50067691Y-45237900D01*
X49784042Y-45237900D01*
X49500310Y-45237901D01*
X49496915Y-45238270D01*
X49496910Y-45238270D01*
X49448490Y-45243529D01*
X49448486Y-45243530D01*
X49440632Y-45244383D01*
X49309741Y-45293451D01*
X49302562Y-45298831D01*
X49302559Y-45298833D01*
X49256089Y-45333661D01*
X49197884Y-45377284D01*
X49192505Y-45384461D01*
X49119433Y-45481959D01*
X49119431Y-45481962D01*
X49114051Y-45489141D01*
X49103296Y-45517831D01*
X49060653Y-45574595D01*
X48994092Y-45599294D01*
X48985314Y-45599600D01*
X48722129Y-45599600D01*
X48654008Y-45579598D01*
X48607515Y-45525942D01*
X48604147Y-45517829D01*
X48601261Y-45510129D01*
X48574349Y-45438341D01*
X48568969Y-45431162D01*
X48568967Y-45431159D01*
X48495895Y-45333661D01*
X48490516Y-45326484D01*
X48446441Y-45293451D01*
X48385841Y-45248033D01*
X48385838Y-45248031D01*
X48378659Y-45242651D01*
X48370254Y-45239500D01*
X48255163Y-45196355D01*
X48255161Y-45196355D01*
X48247768Y-45193583D01*
X48239920Y-45192730D01*
X48239918Y-45192730D01*
X48191488Y-45187469D01*
X48191487Y-45187469D01*
X48188091Y-45187100D01*
X47904442Y-45187100D01*
X47620710Y-45187101D01*
X47617315Y-45187470D01*
X47617310Y-45187470D01*
X47568890Y-45192729D01*
X47568886Y-45192730D01*
X47561032Y-45193583D01*
X47490564Y-45220000D01*
X47441828Y-45238270D01*
X47430141Y-45242651D01*
X47422962Y-45248031D01*
X47422959Y-45248033D01*
X47362359Y-45293451D01*
X47318284Y-45326484D01*
X47312905Y-45333661D01*
X47239833Y-45431159D01*
X47239831Y-45431162D01*
X47234451Y-45438341D01*
X47231301Y-45446745D01*
X47231300Y-45446746D01*
X47201312Y-45526742D01*
X47185383Y-45569232D01*
X47184530Y-45577080D01*
X47184530Y-45577082D01*
X47182126Y-45599209D01*
X47178900Y-45628909D01*
X47178901Y-45929086D01*
X47178901Y-45982170D01*
X47158899Y-46050290D01*
X47105244Y-46096783D01*
X47034970Y-46106888D01*
X46970389Y-46077395D01*
X46961660Y-46069067D01*
X46451566Y-45533469D01*
X46451559Y-45533463D01*
X46450258Y-45532096D01*
X46427974Y-45511330D01*
X46411290Y-45497546D01*
X46409776Y-45496295D01*
X46409773Y-45496293D01*
X46404854Y-45492229D01*
X46314103Y-45444051D01*
X46307977Y-45442252D01*
X46307974Y-45442251D01*
X46250305Y-45425318D01*
X46250301Y-45425317D01*
X46245982Y-45424049D01*
X46241534Y-45423409D01*
X46241527Y-45423408D01*
X46178448Y-45414339D01*
X46178441Y-45414339D01*
X46174000Y-45413700D01*
X44248190Y-45413700D01*
X44246535Y-45413789D01*
X44246523Y-45413789D01*
X44223141Y-45415042D01*
X44220883Y-45415163D01*
X44219206Y-45415343D01*
X44219197Y-45415344D01*
X44200258Y-45417380D01*
X44200257Y-45417380D01*
X44194100Y-45418042D01*
X44188195Y-45419891D01*
X44188190Y-45419892D01*
X44116786Y-45442251D01*
X44098956Y-45447834D01*
X44093532Y-45450796D01*
X44093527Y-45450798D01*
X44062353Y-45467821D01*
X44036644Y-45481860D01*
X43978429Y-45525439D01*
X43849039Y-45654829D01*
X43847910Y-45656086D01*
X43847907Y-45656089D01*
X43833471Y-45672160D01*
X43830767Y-45675170D01*
X43813864Y-45696144D01*
X43767651Y-45784487D01*
X43747649Y-45852608D01*
X43747009Y-45857056D01*
X43747008Y-45857063D01*
X43744281Y-45876034D01*
X43737300Y-45924590D01*
X43737300Y-47798846D01*
X36420100Y-47798846D01*
X36420100Y-37034071D01*
X39557468Y-37034071D01*
X39557555Y-37038073D01*
X39557555Y-37038080D01*
X39562972Y-37286329D01*
X39564149Y-37340265D01*
X39609683Y-37643130D01*
X39610779Y-37646990D01*
X39610780Y-37646995D01*
X39624106Y-37693930D01*
X39693331Y-37937753D01*
X39813737Y-38219360D01*
X39968949Y-38483385D01*
X40156451Y-38725547D01*
X40373204Y-38941922D01*
X40376385Y-38944376D01*
X40376386Y-38944377D01*
X40612501Y-39126539D01*
X40612505Y-39126542D01*
X40615694Y-39129002D01*
X40619173Y-39131039D01*
X40820856Y-39249129D01*
X40879989Y-39283753D01*
X40883674Y-39285321D01*
X40883678Y-39285323D01*
X40928590Y-39304433D01*
X41161806Y-39403667D01*
X41456575Y-39486801D01*
X41642602Y-39514437D01*
X41756219Y-39531316D01*
X41756221Y-39531316D01*
X41759518Y-39531806D01*
X41762849Y-39531946D01*
X41762853Y-39531946D01*
X41799537Y-39533483D01*
X41842884Y-39535300D01*
X42038274Y-39535300D01*
X42161715Y-39527426D01*
X42262439Y-39521001D01*
X42262444Y-39521000D01*
X42266447Y-39520745D01*
X42270384Y-39519983D01*
X42270386Y-39519983D01*
X42563201Y-39463330D01*
X42563205Y-39463329D01*
X42567138Y-39462568D01*
X42858000Y-39366656D01*
X43134318Y-39234563D01*
X43391612Y-39068431D01*
X43625710Y-38870952D01*
X43832819Y-38645329D01*
X44009580Y-38395218D01*
X44153128Y-38124674D01*
X44154544Y-38120917D01*
X44259719Y-37841844D01*
X44259721Y-37841838D01*
X44261136Y-37838083D01*
X44296287Y-37689963D01*
X44330924Y-37544007D01*
X44330925Y-37544002D01*
X44331853Y-37540091D01*
X44364132Y-37235529D01*
X44360933Y-37088880D01*
X44360846Y-37084871D01*
X75371468Y-37084871D01*
X75371555Y-37088873D01*
X75371555Y-37088880D01*
X75377127Y-37344236D01*
X75378149Y-37391065D01*
X75423683Y-37693930D01*
X75507331Y-37988553D01*
X75627737Y-38270160D01*
X75782949Y-38534185D01*
X75970451Y-38776347D01*
X76187204Y-38992722D01*
X76190385Y-38995176D01*
X76190386Y-38995177D01*
X76426501Y-39177339D01*
X76426505Y-39177342D01*
X76429694Y-39179802D01*
X76433173Y-39181839D01*
X76627975Y-39295900D01*
X76693989Y-39334553D01*
X76697674Y-39336121D01*
X76697678Y-39336123D01*
X76809631Y-39383759D01*
X76975806Y-39454467D01*
X77184652Y-39513368D01*
X77251418Y-39532198D01*
X77270575Y-39537601D01*
X77491138Y-39570368D01*
X77570219Y-39582116D01*
X77570221Y-39582116D01*
X77573518Y-39582606D01*
X77576849Y-39582746D01*
X77576853Y-39582746D01*
X77613537Y-39584283D01*
X77656884Y-39586100D01*
X77852274Y-39586100D01*
X77987736Y-39577459D01*
X78076439Y-39571801D01*
X78076444Y-39571800D01*
X78080447Y-39571545D01*
X78084384Y-39570783D01*
X78084386Y-39570783D01*
X78377201Y-39514130D01*
X78377205Y-39514129D01*
X78381138Y-39513368D01*
X78672000Y-39417456D01*
X78948318Y-39285363D01*
X79159573Y-39148958D01*
X79202239Y-39121409D01*
X79202240Y-39121408D01*
X79205612Y-39119231D01*
X79439710Y-38921752D01*
X79646819Y-38696129D01*
X79680631Y-38648287D01*
X79794929Y-38486558D01*
X79823580Y-38446018D01*
X79967128Y-38175474D01*
X80036180Y-37992251D01*
X80073719Y-37892644D01*
X80073721Y-37892638D01*
X80075136Y-37888883D01*
X80089449Y-37828569D01*
X80144924Y-37594807D01*
X80144925Y-37594802D01*
X80145853Y-37590891D01*
X80178132Y-37286329D01*
X80176937Y-37231520D01*
X80171539Y-36984152D01*
X80171539Y-36984147D01*
X80171451Y-36980135D01*
X80125917Y-36677270D01*
X80112621Y-36630437D01*
X80043368Y-36386519D01*
X80042269Y-36382647D01*
X79921863Y-36101040D01*
X79766651Y-35837015D01*
X79579149Y-35594853D01*
X79362396Y-35378478D01*
X79293368Y-35325223D01*
X79123099Y-35193861D01*
X79123095Y-35193858D01*
X79119906Y-35191398D01*
X78943338Y-35088013D01*
X78859075Y-35038675D01*
X78859072Y-35038673D01*
X78855611Y-35036647D01*
X78851926Y-35035079D01*
X78851922Y-35035077D01*
X78664851Y-34955478D01*
X78573794Y-34916733D01*
X78279025Y-34833599D01*
X78048814Y-34799399D01*
X77979381Y-34789084D01*
X77979379Y-34789084D01*
X77976082Y-34788594D01*
X77972751Y-34788454D01*
X77972747Y-34788454D01*
X77936063Y-34786917D01*
X77892716Y-34785100D01*
X77697326Y-34785100D01*
X77573885Y-34792974D01*
X77473161Y-34799399D01*
X77473156Y-34799400D01*
X77469153Y-34799655D01*
X77465216Y-34800417D01*
X77465214Y-34800417D01*
X77172399Y-34857070D01*
X77172395Y-34857071D01*
X77168462Y-34857832D01*
X76877600Y-34953744D01*
X76601282Y-35085837D01*
X76343988Y-35251969D01*
X76109890Y-35449448D01*
X75902781Y-35675071D01*
X75726020Y-35925182D01*
X75582472Y-36195726D01*
X75581057Y-36199482D01*
X75581056Y-36199483D01*
X75492134Y-36435432D01*
X75474464Y-36482317D01*
X75473535Y-36486232D01*
X75414853Y-36733511D01*
X75403747Y-36780309D01*
X75371468Y-37084871D01*
X44360846Y-37084871D01*
X44357539Y-36933352D01*
X44357539Y-36933347D01*
X44357451Y-36929335D01*
X44311917Y-36626470D01*
X44228269Y-36331847D01*
X44107863Y-36050240D01*
X43952651Y-35786215D01*
X43765149Y-35544053D01*
X43548396Y-35327678D01*
X43545214Y-35325223D01*
X43309099Y-35143061D01*
X43309095Y-35143058D01*
X43305906Y-35140598D01*
X43209427Y-35084107D01*
X43045075Y-34987875D01*
X43045072Y-34987873D01*
X43041611Y-34985847D01*
X43037926Y-34984279D01*
X43037922Y-34984277D01*
X42850851Y-34904678D01*
X42759794Y-34865933D01*
X42465025Y-34782799D01*
X42234814Y-34748599D01*
X42165381Y-34738284D01*
X42165379Y-34738284D01*
X42162082Y-34737794D01*
X42158751Y-34737654D01*
X42158747Y-34737654D01*
X42122063Y-34736117D01*
X42078716Y-34734300D01*
X41883326Y-34734300D01*
X41759885Y-34742174D01*
X41659161Y-34748599D01*
X41659156Y-34748600D01*
X41655153Y-34748855D01*
X41651216Y-34749617D01*
X41651214Y-34749617D01*
X41358399Y-34806270D01*
X41358395Y-34806271D01*
X41354462Y-34807032D01*
X41063600Y-34902944D01*
X40787282Y-35035037D01*
X40529988Y-35201169D01*
X40295890Y-35398648D01*
X40088781Y-35624271D01*
X40086467Y-35627546D01*
X40086464Y-35627549D01*
X40052879Y-35675071D01*
X39912020Y-35874382D01*
X39768472Y-36144926D01*
X39767057Y-36148682D01*
X39767056Y-36148683D01*
X39678882Y-36382647D01*
X39660464Y-36431517D01*
X39659535Y-36435432D01*
X39601203Y-36681237D01*
X39589747Y-36729509D01*
X39557468Y-37034071D01*
X36420100Y-37034071D01*
X36420100Y-31161300D01*
X36440102Y-31093179D01*
X36493758Y-31046686D01*
X36546100Y-31035300D01*
X82427500Y-31035300D01*
X82495621Y-31055302D01*
G37*
%TD.AperFunction*%
%TD*%
%TA.AperFunction,Conductor*%
%TO.N,Net-(D1-Pad2)*%
G36*
X54330089Y-46959202D02*
G01*
X54339325Y-46965742D01*
X54387431Y-47003158D01*
X54418082Y-47043376D01*
X54419034Y-47042740D01*
X54474399Y-47125601D01*
X54557260Y-47180966D01*
X54569431Y-47183387D01*
X54607000Y-47190860D01*
X54659776Y-47214981D01*
X54705857Y-47250822D01*
X54747348Y-47308433D01*
X54754500Y-47350280D01*
X54754501Y-48069178D01*
X54755039Y-48073261D01*
X54755039Y-48073269D01*
X54760501Y-48114760D01*
X54759666Y-48114870D01*
X54762400Y-48134021D01*
X54762400Y-48256961D01*
X54742398Y-48325082D01*
X54723494Y-48348014D01*
X53594000Y-49428400D01*
X53594000Y-51808533D01*
X53573998Y-51876654D01*
X53549605Y-51904535D01*
X52578000Y-52730400D01*
X52578000Y-54811810D01*
X52557998Y-54879931D01*
X52541095Y-54900905D01*
X52360905Y-55081095D01*
X52298593Y-55115121D01*
X52271810Y-55118000D01*
X49895207Y-55118000D01*
X49827086Y-55097998D01*
X49796975Y-55070907D01*
X49659787Y-54900102D01*
X49632725Y-54834469D01*
X49632031Y-54819968D01*
X49649832Y-53003766D01*
X49670501Y-52935845D01*
X49681778Y-52921151D01*
X50647600Y-51837866D01*
X50647600Y-49632990D01*
X50667602Y-49564869D01*
X50684505Y-49543895D01*
X50966295Y-49262105D01*
X51028607Y-49228079D01*
X51055390Y-49225200D01*
X51866800Y-49225200D01*
X52832000Y-48310800D01*
X52832000Y-47108233D01*
X52852002Y-47040112D01*
X52888106Y-47003396D01*
X52952658Y-46960361D01*
X53022549Y-46939200D01*
X54261968Y-46939200D01*
X54330089Y-46959202D01*
G37*
%TD.AperFunction*%
%TD*%
%TA.AperFunction,Conductor*%
%TO.N,Net-(C4-2-Pad1)*%
G36*
X46242121Y-45689202D02*
G01*
X46265241Y-45708303D01*
X47244000Y-46736000D01*
X47254344Y-46736085D01*
X47362902Y-46736975D01*
X47489588Y-46738013D01*
X47532783Y-46746027D01*
X47553637Y-46753845D01*
X47553639Y-46753845D01*
X47561032Y-46756617D01*
X47568880Y-46757470D01*
X47568882Y-46757470D01*
X47617303Y-46762730D01*
X47620709Y-46763100D01*
X47904358Y-46763100D01*
X48188090Y-46763099D01*
X48191485Y-46762730D01*
X48191490Y-46762730D01*
X48239915Y-46757470D01*
X48247768Y-46756617D01*
X48255164Y-46753844D01*
X48255170Y-46753843D01*
X48258225Y-46752698D01*
X48303481Y-46744686D01*
X51950286Y-46774581D01*
X51950288Y-46774581D01*
X51968400Y-46774729D01*
X51982081Y-46762731D01*
X52179956Y-46589189D01*
X52187461Y-46583101D01*
X52198916Y-46574516D01*
X52203177Y-46568831D01*
X52203278Y-46568736D01*
X52415432Y-46382671D01*
X52479835Y-46352792D01*
X52498512Y-46351400D01*
X53462548Y-46351400D01*
X53530669Y-46371402D01*
X53577162Y-46425058D01*
X53587266Y-46495332D01*
X53557772Y-46559912D01*
X53497803Y-46598367D01*
X53494797Y-46599243D01*
X53485240Y-46600501D01*
X53385201Y-46647150D01*
X53377403Y-46654948D01*
X53368379Y-46661267D01*
X53366144Y-46658076D01*
X53321744Y-46682321D01*
X53294961Y-46685200D01*
X52832000Y-46685200D01*
X52816479Y-46695547D01*
X52816477Y-46695548D01*
X52254143Y-47070438D01*
X52184251Y-47091600D01*
X52038274Y-47091600D01*
X51994046Y-47083582D01*
X51963566Y-47072156D01*
X51963564Y-47072155D01*
X51956168Y-47069383D01*
X51948320Y-47068530D01*
X51948318Y-47068530D01*
X51899888Y-47063269D01*
X51899887Y-47063269D01*
X51896491Y-47062900D01*
X51612842Y-47062900D01*
X51329110Y-47062901D01*
X51325715Y-47063270D01*
X51325710Y-47063270D01*
X51277290Y-47068529D01*
X51277286Y-47068530D01*
X51269432Y-47069383D01*
X51262032Y-47072157D01*
X51262028Y-47072158D01*
X51231554Y-47083582D01*
X51187326Y-47091600D01*
X51003200Y-47091600D01*
X50546000Y-47447200D01*
X50546000Y-48411010D01*
X50525998Y-48479131D01*
X50509095Y-48500105D01*
X49784000Y-49225200D01*
X49784000Y-51509810D01*
X49763998Y-51577931D01*
X49747095Y-51598905D01*
X49465305Y-51880695D01*
X49402993Y-51914721D01*
X49376210Y-51917600D01*
X46538583Y-51917600D01*
X46470462Y-51897598D01*
X46444409Y-51875310D01*
X46393441Y-51817971D01*
X46075600Y-51460400D01*
X45127033Y-51460400D01*
X45058912Y-51440398D01*
X45022195Y-51404292D01*
X44775962Y-51034943D01*
X44754800Y-50965051D01*
X44754800Y-48564800D01*
X44747473Y-48557962D01*
X44747473Y-48557961D01*
X44032828Y-47890959D01*
X43996676Y-47829856D01*
X43992800Y-47798846D01*
X43992800Y-45924590D01*
X44012802Y-45856469D01*
X44029705Y-45835495D01*
X44159095Y-45706105D01*
X44221407Y-45672079D01*
X44248190Y-45669200D01*
X46174000Y-45669200D01*
X46242121Y-45689202D01*
G37*
%TD.AperFunction*%
%TD*%
%TA.AperFunction,Conductor*%
%TO.N,Net-(C2-1-Pad1)*%
G36*
X75317245Y-61793774D02*
G01*
X79598010Y-64631025D01*
X79643741Y-64685332D01*
X79654400Y-64736051D01*
X79654400Y-68278235D01*
X79634398Y-68346356D01*
X79622738Y-68361760D01*
X75385663Y-73147162D01*
X75373833Y-73160523D01*
X75313700Y-73198265D01*
X75279933Y-73202995D01*
X60604400Y-73253600D01*
X57943180Y-74960798D01*
X57943094Y-74960853D01*
X57875060Y-74980800D01*
X56948190Y-74980800D01*
X56880069Y-74960798D01*
X56859095Y-74943895D01*
X56731347Y-74816147D01*
X56697321Y-74753835D01*
X56694503Y-74723116D01*
X56741643Y-73214624D01*
X56763763Y-73147162D01*
X56794716Y-73115766D01*
X56856590Y-73071906D01*
X56929456Y-73048700D01*
X57595874Y-73048700D01*
X57668940Y-73034166D01*
X57751801Y-72978801D01*
X57807166Y-72895940D01*
X57821700Y-72822874D01*
X57821700Y-72452906D01*
X57841702Y-72384785D01*
X57874832Y-72350114D01*
X59513227Y-71188720D01*
X60742022Y-70317676D01*
X60742023Y-70317675D01*
X60756800Y-70307200D01*
X60756800Y-67108190D01*
X60776802Y-67040069D01*
X60793705Y-67019095D01*
X61024695Y-66788105D01*
X61087007Y-66754079D01*
X61113790Y-66751200D01*
X61974610Y-66751200D01*
X62042731Y-66771202D01*
X62063705Y-66788105D01*
X62294695Y-67019095D01*
X62328721Y-67081407D01*
X62331600Y-67108190D01*
X62331600Y-69088000D01*
X63042800Y-69799200D01*
X66802000Y-69799200D01*
X67513495Y-69087705D01*
X67575807Y-69053679D01*
X67602590Y-69050800D01*
X75039600Y-69050800D01*
X75039600Y-65177800D01*
X71909100Y-65177800D01*
X71840979Y-65157798D01*
X71794486Y-65104142D01*
X71783100Y-65051800D01*
X71783100Y-62049800D01*
X71803102Y-61981679D01*
X71856758Y-61935186D01*
X71909100Y-61923800D01*
X75039600Y-61923800D01*
X75039600Y-61898800D01*
X75059602Y-61830679D01*
X75113258Y-61784186D01*
X75165600Y-61772800D01*
X75247635Y-61772800D01*
X75317245Y-61793774D01*
G37*
%TD.AperFunction*%
%TD*%
%TA.AperFunction,Conductor*%
%TO.N,Net-(D2-Pad1)*%
G36*
X63363531Y-41777602D02*
G01*
X63384505Y-41794505D01*
X63716566Y-42126566D01*
X63750592Y-42188878D01*
X63753465Y-42216934D01*
X63733677Y-44175998D01*
X63703200Y-47193200D01*
X63711455Y-47199804D01*
X63711456Y-47199805D01*
X64417912Y-47764970D01*
X64458610Y-47823143D01*
X64465200Y-47863359D01*
X64465200Y-49579410D01*
X64445198Y-49647531D01*
X64428295Y-49668505D01*
X64248105Y-49848695D01*
X64185793Y-49882721D01*
X64159010Y-49885600D01*
X61679415Y-49885600D01*
X61611294Y-49865598D01*
X61582619Y-49840263D01*
X61395604Y-49615845D01*
X61367360Y-49550708D01*
X61366400Y-49535182D01*
X61366400Y-44907200D01*
X61201585Y-44751059D01*
X60414352Y-44005259D01*
X60414350Y-44005258D01*
X60401200Y-43992800D01*
X57454800Y-43992800D01*
X57288505Y-44159095D01*
X57226193Y-44193121D01*
X57199410Y-44196000D01*
X56631500Y-44196000D01*
X56563379Y-44175998D01*
X56516886Y-44122342D01*
X56505500Y-44070000D01*
X56505500Y-43255200D01*
X56525502Y-43187079D01*
X56579158Y-43140586D01*
X56631500Y-43129200D01*
X60096400Y-43129200D01*
X61431095Y-41794505D01*
X61493407Y-41760479D01*
X61520190Y-41757600D01*
X63295410Y-41757600D01*
X63363531Y-41777602D01*
G37*
%TD.AperFunction*%
%TD*%
%TA.AperFunction,Conductor*%
%TO.N,5V*%
G36*
X57389699Y-47306605D02*
G01*
X57451507Y-47335427D01*
X57451509Y-47335427D01*
X57460240Y-47339499D01*
X57469793Y-47340757D01*
X57469794Y-47340757D01*
X57493643Y-47343897D01*
X57505821Y-47345500D01*
X58232022Y-47345500D01*
X58300143Y-47365502D01*
X58312683Y-47374703D01*
X58701139Y-47698416D01*
X58781063Y-47765019D01*
X58820590Y-47823995D01*
X58826400Y-47861815D01*
X58826400Y-50495200D01*
X59385200Y-51054000D01*
X60006526Y-51655783D01*
X60174208Y-51805581D01*
X60296998Y-51915276D01*
X60302068Y-51920064D01*
X60393505Y-52011333D01*
X60517092Y-52134695D01*
X60551173Y-52196974D01*
X60554072Y-52222708D01*
X60558276Y-52678579D01*
X60558281Y-52679884D01*
X60553659Y-56742294D01*
X60533579Y-56810392D01*
X60516754Y-56831246D01*
X60337014Y-57010986D01*
X60274702Y-57045012D01*
X60246695Y-57047885D01*
X59753481Y-57043081D01*
X59127944Y-57036987D01*
X59060021Y-57016322D01*
X59037031Y-56996936D01*
X58912346Y-56863261D01*
X58881853Y-56830569D01*
X58850016Y-56767111D01*
X58847996Y-56743774D01*
X58853839Y-55879842D01*
X58875480Y-52679884D01*
X58877200Y-52425600D01*
X57292989Y-50989909D01*
X57255944Y-50929344D01*
X57251600Y-50896545D01*
X57251600Y-49631600D01*
X57244261Y-49624720D01*
X57244261Y-49624719D01*
X56551223Y-48974997D01*
X56515207Y-48913814D01*
X56511400Y-48883075D01*
X56511400Y-47766896D01*
X56513879Y-47743599D01*
X56513977Y-47741514D01*
X56516169Y-47731334D01*
X56512273Y-47698416D01*
X56511929Y-47692579D01*
X56511828Y-47692587D01*
X56511400Y-47687410D01*
X56511400Y-47682207D01*
X56508266Y-47663377D01*
X56507434Y-47657530D01*
X56506373Y-47648564D01*
X56505499Y-47633753D01*
X56505499Y-47420800D01*
X56525501Y-47352679D01*
X56579157Y-47306186D01*
X56631499Y-47294800D01*
X57336449Y-47294800D01*
X57389699Y-47306605D01*
G37*
%TD.AperFunction*%
%TD*%
%TA.AperFunction,Conductor*%
%TO.N,Net-(C1-1-Pad1)*%
G36*
X56302331Y-73172002D02*
G01*
X56323305Y-73188905D01*
X56401895Y-73267495D01*
X56435921Y-73329807D01*
X56438800Y-73356590D01*
X56438800Y-75641200D01*
X56554295Y-75756695D01*
X56588321Y-75819007D01*
X56591200Y-75845790D01*
X56591200Y-77978000D01*
X57169954Y-78423195D01*
X57202424Y-78448172D01*
X57244222Y-78505560D01*
X57251600Y-78548043D01*
X57251600Y-79957810D01*
X57231598Y-80025931D01*
X57214695Y-80046905D01*
X57085305Y-80176295D01*
X57022993Y-80210321D01*
X56996210Y-80213200D01*
X55280159Y-80213200D01*
X55212038Y-80193198D01*
X55181770Y-80165912D01*
X55044011Y-79993714D01*
X55017075Y-79928025D01*
X55016400Y-79915002D01*
X55016400Y-78491316D01*
X55036402Y-78423195D01*
X55058110Y-78397661D01*
X55524400Y-77978000D01*
X55524400Y-73356590D01*
X55544402Y-73288469D01*
X55561305Y-73267495D01*
X55639895Y-73188905D01*
X55702207Y-73154879D01*
X55728990Y-73152000D01*
X56234210Y-73152000D01*
X56302331Y-73172002D01*
G37*
%TD.AperFunction*%
%TD*%
M02*
