%TF.GenerationSoftware,KiCad,Pcbnew,(6.0.6)*%
%TF.CreationDate,2022-12-02T12:37:59-05:00*%
%TF.ProjectId,SplitRail DC Power Supply,53706c69-7452-4616-996c-20444320506f,rev?*%
%TF.SameCoordinates,Original*%
%TF.FileFunction,Soldermask,Top*%
%TF.FilePolarity,Negative*%
%FSLAX46Y46*%
G04 Gerber Fmt 4.6, Leading zero omitted, Abs format (unit mm)*
G04 Created by KiCad (PCBNEW (6.0.6)) date 2022-12-02 12:37:59*
%MOMM*%
%LPD*%
G01*
G04 APERTURE LIST*
G04 Aperture macros list*
%AMRoundRect*
0 Rectangle with rounded corners*
0 $1 Rounding radius*
0 $2 $3 $4 $5 $6 $7 $8 $9 X,Y pos of 4 corners*
0 Add a 4 corners polygon primitive as box body*
4,1,4,$2,$3,$4,$5,$6,$7,$8,$9,$2,$3,0*
0 Add four circle primitives for the rounded corners*
1,1,$1+$1,$2,$3*
1,1,$1+$1,$4,$5*
1,1,$1+$1,$6,$7*
1,1,$1+$1,$8,$9*
0 Add four rect primitives between the rounded corners*
20,1,$1+$1,$2,$3,$4,$5,0*
20,1,$1+$1,$4,$5,$6,$7,0*
20,1,$1+$1,$6,$7,$8,$9,0*
20,1,$1+$1,$8,$9,$2,$3,0*%
G04 Aperture macros list end*
%ADD10R,1.700000X1.700000*%
%ADD11O,1.700000X1.700000*%
%ADD12RoundRect,0.237500X0.300000X0.237500X-0.300000X0.237500X-0.300000X-0.237500X0.300000X-0.237500X0*%
%ADD13R,1.500000X2.400000*%
%ADD14RoundRect,0.237500X0.237500X-0.300000X0.237500X0.300000X-0.237500X0.300000X-0.237500X-0.300000X0*%
%ADD15C,4.300000*%
%ADD16RoundRect,0.237500X-0.237500X0.250000X-0.237500X-0.250000X0.237500X-0.250000X0.237500X0.250000X0*%
%ADD17RoundRect,0.237500X0.250000X0.237500X-0.250000X0.237500X-0.250000X-0.237500X0.250000X-0.237500X0*%
%ADD18R,0.980000X0.920000*%
%ADD19RoundRect,0.225000X-0.250000X0.225000X-0.250000X-0.225000X0.250000X-0.225000X0.250000X0.225000X0*%
%ADD20RoundRect,0.062500X0.062500X-0.325000X0.062500X0.325000X-0.062500X0.325000X-0.062500X-0.325000X0*%
%ADD21RoundRect,0.062500X0.325000X-0.062500X0.325000X0.062500X-0.325000X0.062500X-0.325000X-0.062500X0*%
%ADD22R,2.450000X2.450000*%
%ADD23R,1.000000X1.400000*%
%ADD24RoundRect,0.225000X0.250000X-0.225000X0.250000X0.225000X-0.250000X0.225000X-0.250000X-0.225000X0*%
%ADD25R,3.439000X3.254000*%
%ADD26RoundRect,0.237500X0.237500X-0.250000X0.237500X0.250000X-0.237500X0.250000X-0.237500X-0.250000X0*%
%ADD27R,3.300000X2.500000*%
%ADD28R,0.920000X0.980000*%
%ADD29R,2.500000X1.800000*%
%ADD30R,0.600000X1.550000*%
%ADD31R,3.100000X2.600000*%
%ADD32R,2.400000X1.500000*%
%ADD33RoundRect,0.237500X-0.237500X0.300000X-0.237500X-0.300000X0.237500X-0.300000X0.237500X0.300000X0*%
%ADD34RoundRect,0.225000X0.225000X0.250000X-0.225000X0.250000X-0.225000X-0.250000X0.225000X-0.250000X0*%
G04 APERTURE END LIST*
D10*
%TO.C,J3*%
X72561200Y-47294800D03*
D11*
X72561200Y-44754800D03*
%TD*%
D12*
%TO.C,C7-2*%
X51865700Y-41402000D03*
X50140700Y-41402000D03*
%TD*%
D13*
%TO.C,L2-2*%
X62242000Y-43180000D03*
X67742000Y-43180000D03*
%TD*%
D14*
%TO.C,C8-2*%
X53797200Y-39927700D03*
X53797200Y-38202700D03*
%TD*%
D15*
%TO.C,H4*%
X77774800Y-83718400D03*
%TD*%
D16*
%TO.C,R1-1*%
X59486800Y-63755900D03*
X59486800Y-65580900D03*
%TD*%
D17*
%TO.C,R7-2*%
X57960900Y-50292000D03*
X56135900Y-50292000D03*
%TD*%
D12*
%TO.C,C6-2*%
X51865700Y-43789600D03*
X50140700Y-43789600D03*
%TD*%
D18*
%TO.C,C10-2*%
X59283600Y-40068200D03*
X59283600Y-41618200D03*
%TD*%
D10*
%TO.C,J1*%
X53589000Y-79197200D03*
D11*
X56129000Y-79197200D03*
%TD*%
D19*
%TO.C,C3-1*%
X61671200Y-63741000D03*
X61671200Y-65291000D03*
%TD*%
D14*
%TO.C,C9-2*%
X47904400Y-47700100D03*
X47904400Y-45975100D03*
%TD*%
D20*
%TO.C,U2*%
X54630000Y-47707500D03*
X55130000Y-47707500D03*
X55630000Y-47707500D03*
X56130000Y-47707500D03*
X56630000Y-47707500D03*
X57130000Y-47707500D03*
D21*
X57867500Y-46970000D03*
X57867500Y-46470000D03*
X57867500Y-45970000D03*
X57867500Y-45470000D03*
X57867500Y-44970000D03*
X57867500Y-44470000D03*
D20*
X57130000Y-43732500D03*
X56630000Y-43732500D03*
X56130000Y-43732500D03*
X55630000Y-43732500D03*
X55130000Y-43732500D03*
X54630000Y-43732500D03*
D21*
X53892500Y-44470000D03*
X53892500Y-44970000D03*
X53892500Y-45470000D03*
X53892500Y-45970000D03*
X53892500Y-46470000D03*
X53892500Y-46970000D03*
D22*
X55880000Y-45720000D03*
%TD*%
D15*
%TO.C,H1*%
X77774800Y-37185600D03*
%TD*%
D16*
%TO.C,R2-2*%
X51612800Y-45975900D03*
X51612800Y-47800900D03*
%TD*%
D14*
%TO.C,C1-2*%
X56134000Y-57199700D03*
X56134000Y-55474700D03*
%TD*%
D15*
%TO.C,H2*%
X41300400Y-83667600D03*
%TD*%
D23*
%TO.C,Q1*%
X61554400Y-56050000D03*
X59654400Y-56050000D03*
X60604400Y-58250000D03*
%TD*%
D24*
%TO.C,C5-2*%
X69665600Y-47307800D03*
X69665600Y-45757800D03*
%TD*%
D16*
%TO.C,R4-2*%
X55626000Y-39981500D03*
X55626000Y-41806500D03*
%TD*%
D25*
%TO.C,L1-1*%
X73502600Y-63550800D03*
X64876600Y-63550800D03*
%TD*%
D26*
%TO.C,R1-2*%
X49784000Y-47800900D03*
X49784000Y-45975900D03*
%TD*%
D27*
%TO.C,D2-1*%
X63449200Y-71272400D03*
X63449200Y-78072400D03*
%TD*%
D26*
%TO.C,R2-1*%
X57353200Y-65580900D03*
X57353200Y-63755900D03*
%TD*%
D15*
%TO.C,H3*%
X41960800Y-37134800D03*
%TD*%
D28*
%TO.C,C1-1*%
X56096200Y-76454000D03*
X54546200Y-76454000D03*
%TD*%
D29*
%TO.C,D2*%
X63042800Y-48615600D03*
X67042800Y-48615600D03*
%TD*%
D30*
%TO.C,U1*%
X57226200Y-68623200D03*
X55956200Y-68623200D03*
X54686200Y-68623200D03*
X53416200Y-68623200D03*
X53416200Y-74023200D03*
X54686200Y-74023200D03*
X55956200Y-74023200D03*
X57226200Y-74023200D03*
D31*
X55321200Y-71323200D03*
%TD*%
D32*
%TO.C,L1-2*%
X51104800Y-59493600D03*
X51104800Y-53993600D03*
%TD*%
D26*
%TO.C,R3-2*%
X57454800Y-41806500D03*
X57454800Y-39981500D03*
%TD*%
D12*
%TO.C,C2-2*%
X59587300Y-53797200D03*
X57862300Y-53797200D03*
%TD*%
D33*
%TO.C,C3-2*%
X56134000Y-52020300D03*
X56134000Y-53745300D03*
%TD*%
D10*
%TO.C,J2*%
X45212000Y-46741000D03*
D11*
X45212000Y-44201000D03*
%TD*%
D12*
%TO.C,C2-1*%
X61466900Y-67411600D03*
X59741900Y-67411600D03*
%TD*%
D34*
%TO.C,C4-2*%
X45580600Y-50749200D03*
X44030600Y-50749200D03*
%TD*%
D29*
%TO.C,D1*%
X48139600Y-50698400D03*
X52139600Y-50698400D03*
%TD*%
M02*
