%TF.GenerationSoftware,KiCad,Pcbnew,(6.0.6)*%
%TF.CreationDate,2022-12-02T12:37:59-05:00*%
%TF.ProjectId,SplitRail DC Power Supply,53706c69-7452-4616-996c-20444320506f,rev?*%
%TF.SameCoordinates,Original*%
%TF.FileFunction,Legend,Top*%
%TF.FilePolarity,Positive*%
%FSLAX46Y46*%
G04 Gerber Fmt 4.6, Leading zero omitted, Abs format (unit mm)*
G04 Created by KiCad (PCBNEW (6.0.6)) date 2022-12-02 12:37:59*
%MOMM*%
%LPD*%
G01*
G04 APERTURE LIST*
%ADD10C,0.125000*%
%ADD11C,0.150000*%
%ADD12C,0.062500*%
%ADD13C,0.120000*%
%ADD14C,0.203200*%
%ADD15C,0.127000*%
G04 APERTURE END LIST*
D10*
X43042685Y-43903923D02*
X43042685Y-44284876D01*
D11*
X53308285Y-81485971D02*
X53879714Y-81485971D01*
X55848285Y-81435171D02*
X56419714Y-81435171D01*
X56134000Y-81720885D02*
X56134000Y-81149457D01*
D10*
X74679714Y-47155123D02*
X74679714Y-47536076D01*
X74870190Y-47345600D02*
X74489238Y-47345600D01*
X42887923Y-46974914D02*
X43268876Y-46974914D01*
X43078400Y-47165390D02*
X43078400Y-46784438D01*
X40108402Y-75013228D02*
X40167926Y-74834657D01*
X40167926Y-74537038D01*
X40108402Y-74417990D01*
X40048878Y-74358466D01*
X39929830Y-74298942D01*
X39810783Y-74298942D01*
X39691735Y-74358466D01*
X39632211Y-74417990D01*
X39572688Y-74537038D01*
X39513164Y-74775133D01*
X39453640Y-74894180D01*
X39394116Y-74953704D01*
X39275069Y-75013228D01*
X39156021Y-75013228D01*
X39036973Y-74953704D01*
X38977450Y-74894180D01*
X38917926Y-74775133D01*
X38917926Y-74477514D01*
X38977450Y-74298942D01*
X39334592Y-73763228D02*
X40584592Y-73763228D01*
X39394116Y-73763228D02*
X39334592Y-73644180D01*
X39334592Y-73406085D01*
X39394116Y-73287038D01*
X39453640Y-73227514D01*
X39572688Y-73167990D01*
X39929830Y-73167990D01*
X40048878Y-73227514D01*
X40108402Y-73287038D01*
X40167926Y-73406085D01*
X40167926Y-73644180D01*
X40108402Y-73763228D01*
X40167926Y-72453704D02*
X40108402Y-72572752D01*
X39989354Y-72632276D01*
X38917926Y-72632276D01*
X40167926Y-71977514D02*
X39334592Y-71977514D01*
X38917926Y-71977514D02*
X38977450Y-72037038D01*
X39036973Y-71977514D01*
X38977450Y-71917990D01*
X38917926Y-71977514D01*
X39036973Y-71977514D01*
X39334592Y-71560847D02*
X39334592Y-71084657D01*
X38917926Y-71382276D02*
X39989354Y-71382276D01*
X40108402Y-71322752D01*
X40167926Y-71203704D01*
X40167926Y-71084657D01*
X40167926Y-69715609D02*
X38917926Y-69715609D01*
X38917926Y-69417990D01*
X38977450Y-69239419D01*
X39096497Y-69120371D01*
X39215545Y-69060847D01*
X39453640Y-69001323D01*
X39632211Y-69001323D01*
X39870307Y-69060847D01*
X39989354Y-69120371D01*
X40108402Y-69239419D01*
X40167926Y-69417990D01*
X40167926Y-69715609D01*
X40048878Y-67751323D02*
X40108402Y-67810847D01*
X40167926Y-67989419D01*
X40167926Y-68108466D01*
X40108402Y-68287038D01*
X39989354Y-68406085D01*
X39870307Y-68465609D01*
X39632211Y-68525133D01*
X39453640Y-68525133D01*
X39215545Y-68465609D01*
X39096497Y-68406085D01*
X38977450Y-68287038D01*
X38917926Y-68108466D01*
X38917926Y-67989419D01*
X38977450Y-67810847D01*
X39036973Y-67751323D01*
X40167926Y-66263228D02*
X38917926Y-66263228D01*
X38917926Y-65787038D01*
X38977450Y-65667990D01*
X39036973Y-65608466D01*
X39156021Y-65548942D01*
X39334592Y-65548942D01*
X39453640Y-65608466D01*
X39513164Y-65667990D01*
X39572688Y-65787038D01*
X39572688Y-66263228D01*
X40167926Y-64834657D02*
X40108402Y-64953704D01*
X40048878Y-65013228D01*
X39929830Y-65072752D01*
X39572688Y-65072752D01*
X39453640Y-65013228D01*
X39394116Y-64953704D01*
X39334592Y-64834657D01*
X39334592Y-64656085D01*
X39394116Y-64537038D01*
X39453640Y-64477514D01*
X39572688Y-64417990D01*
X39929830Y-64417990D01*
X40048878Y-64477514D01*
X40108402Y-64537038D01*
X40167926Y-64656085D01*
X40167926Y-64834657D01*
X39334592Y-64001323D02*
X40167926Y-63763228D01*
X39572688Y-63525133D01*
X40167926Y-63287038D01*
X39334592Y-63048942D01*
X40108402Y-62096561D02*
X40167926Y-62215609D01*
X40167926Y-62453704D01*
X40108402Y-62572752D01*
X39989354Y-62632276D01*
X39513164Y-62632276D01*
X39394116Y-62572752D01*
X39334592Y-62453704D01*
X39334592Y-62215609D01*
X39394116Y-62096561D01*
X39513164Y-62037038D01*
X39632211Y-62037038D01*
X39751259Y-62632276D01*
X40167926Y-61501323D02*
X39334592Y-61501323D01*
X39572688Y-61501323D02*
X39453640Y-61441800D01*
X39394116Y-61382276D01*
X39334592Y-61263228D01*
X39334592Y-61144180D01*
X40108402Y-59834657D02*
X40167926Y-59656085D01*
X40167926Y-59358466D01*
X40108402Y-59239419D01*
X40048878Y-59179895D01*
X39929830Y-59120371D01*
X39810783Y-59120371D01*
X39691735Y-59179895D01*
X39632211Y-59239419D01*
X39572688Y-59358466D01*
X39513164Y-59596561D01*
X39453640Y-59715609D01*
X39394116Y-59775133D01*
X39275069Y-59834657D01*
X39156021Y-59834657D01*
X39036973Y-59775133D01*
X38977450Y-59715609D01*
X38917926Y-59596561D01*
X38917926Y-59298942D01*
X38977450Y-59120371D01*
X39334592Y-58048942D02*
X40167926Y-58048942D01*
X39334592Y-58584657D02*
X39989354Y-58584657D01*
X40108402Y-58525133D01*
X40167926Y-58406085D01*
X40167926Y-58227514D01*
X40108402Y-58108466D01*
X40048878Y-58048942D01*
X39334592Y-57453704D02*
X40584592Y-57453704D01*
X39394116Y-57453704D02*
X39334592Y-57334657D01*
X39334592Y-57096561D01*
X39394116Y-56977514D01*
X39453640Y-56917990D01*
X39572688Y-56858466D01*
X39929830Y-56858466D01*
X40048878Y-56917990D01*
X40108402Y-56977514D01*
X40167926Y-57096561D01*
X40167926Y-57334657D01*
X40108402Y-57453704D01*
X39334592Y-56322752D02*
X40584592Y-56322752D01*
X39394116Y-56322752D02*
X39334592Y-56203704D01*
X39334592Y-55965609D01*
X39394116Y-55846561D01*
X39453640Y-55787038D01*
X39572688Y-55727514D01*
X39929830Y-55727514D01*
X40048878Y-55787038D01*
X40108402Y-55846561D01*
X40167926Y-55965609D01*
X40167926Y-56203704D01*
X40108402Y-56322752D01*
X40167926Y-55013228D02*
X40108402Y-55132276D01*
X39989354Y-55191800D01*
X38917926Y-55191800D01*
X39334592Y-54656085D02*
X40167926Y-54358466D01*
X39334592Y-54060847D02*
X40167926Y-54358466D01*
X40465545Y-54477514D01*
X40525069Y-54537038D01*
X40584592Y-54656085D01*
X41525664Y-70816800D02*
X41585188Y-70638228D01*
X41644711Y-70578704D01*
X41763759Y-70519180D01*
X41942330Y-70519180D01*
X42061378Y-70578704D01*
X42120902Y-70638228D01*
X42180426Y-70757276D01*
X42180426Y-71233466D01*
X40930426Y-71233466D01*
X40930426Y-70816800D01*
X40989950Y-70697752D01*
X41049473Y-70638228D01*
X41168521Y-70578704D01*
X41287569Y-70578704D01*
X41406616Y-70638228D01*
X41466140Y-70697752D01*
X41525664Y-70816800D01*
X41525664Y-71233466D01*
X41347092Y-70102514D02*
X42180426Y-69804895D01*
X41347092Y-69507276D02*
X42180426Y-69804895D01*
X42478045Y-69923942D01*
X42537569Y-69983466D01*
X42597092Y-70102514D01*
X42061378Y-69031085D02*
X42120902Y-68971561D01*
X42180426Y-69031085D01*
X42120902Y-69090609D01*
X42061378Y-69031085D01*
X42180426Y-69031085D01*
X41406616Y-69031085D02*
X41466140Y-68971561D01*
X41525664Y-69031085D01*
X41466140Y-69090609D01*
X41406616Y-69031085D01*
X41525664Y-69031085D01*
X40930426Y-67662038D02*
X40930426Y-66947752D01*
X42180426Y-67304895D02*
X40930426Y-67304895D01*
X41347092Y-66650133D02*
X42180426Y-66352514D01*
X41347092Y-66054895D02*
X42180426Y-66352514D01*
X42478045Y-66471561D01*
X42537569Y-66531085D01*
X42597092Y-66650133D01*
X42180426Y-65400133D02*
X42120902Y-65519180D01*
X42001854Y-65578704D01*
X40930426Y-65578704D01*
X42120902Y-64447752D02*
X42180426Y-64566800D01*
X42180426Y-64804895D01*
X42120902Y-64923942D01*
X42001854Y-64983466D01*
X41525664Y-64983466D01*
X41406616Y-64923942D01*
X41347092Y-64804895D01*
X41347092Y-64566800D01*
X41406616Y-64447752D01*
X41525664Y-64388228D01*
X41644711Y-64388228D01*
X41763759Y-64983466D01*
X42180426Y-63852514D02*
X41347092Y-63852514D01*
X41585188Y-63852514D02*
X41466140Y-63792990D01*
X41406616Y-63733466D01*
X41347092Y-63614419D01*
X41347092Y-63495371D01*
X40930426Y-62245371D02*
X42180426Y-61947752D01*
X41287569Y-61709657D01*
X42180426Y-61471561D01*
X40930426Y-61173942D01*
X42120902Y-60221561D02*
X42180426Y-60340609D01*
X42180426Y-60578704D01*
X42120902Y-60697752D01*
X42001854Y-60757276D01*
X41525664Y-60757276D01*
X41406616Y-60697752D01*
X41347092Y-60578704D01*
X41347092Y-60340609D01*
X41406616Y-60221561D01*
X41525664Y-60162038D01*
X41644711Y-60162038D01*
X41763759Y-60757276D01*
X42180426Y-59447752D02*
X42120902Y-59566800D01*
X42001854Y-59626323D01*
X40930426Y-59626323D01*
X42180426Y-58792990D02*
X42120902Y-58912038D01*
X42001854Y-58971561D01*
X40930426Y-58971561D01*
X42120902Y-58376323D02*
X42180426Y-58257276D01*
X42180426Y-58019180D01*
X42120902Y-57900133D01*
X42001854Y-57840609D01*
X41942330Y-57840609D01*
X41823283Y-57900133D01*
X41763759Y-58019180D01*
X41763759Y-58197752D01*
X41704235Y-58316800D01*
X41585188Y-58376323D01*
X41525664Y-58376323D01*
X41406616Y-58316800D01*
X41347092Y-58197752D01*
X41347092Y-58019180D01*
X41406616Y-57900133D01*
X44192926Y-71977514D02*
X42942926Y-71977514D01*
X44192926Y-71263228D01*
X42942926Y-71263228D01*
X44192926Y-70489419D02*
X44133402Y-70608466D01*
X44073878Y-70667990D01*
X43954830Y-70727514D01*
X43597688Y-70727514D01*
X43478640Y-70667990D01*
X43419116Y-70608466D01*
X43359592Y-70489419D01*
X43359592Y-70310847D01*
X43419116Y-70191800D01*
X43478640Y-70132276D01*
X43597688Y-70072752D01*
X43954830Y-70072752D01*
X44073878Y-70132276D01*
X44133402Y-70191800D01*
X44192926Y-70310847D01*
X44192926Y-70489419D01*
X43359592Y-69656085D02*
X44192926Y-69358466D01*
X43359592Y-69060847D01*
X44133402Y-68108466D02*
X44192926Y-68227514D01*
X44192926Y-68465609D01*
X44133402Y-68584657D01*
X44014354Y-68644180D01*
X43538164Y-68644180D01*
X43419116Y-68584657D01*
X43359592Y-68465609D01*
X43359592Y-68227514D01*
X43419116Y-68108466D01*
X43538164Y-68048942D01*
X43657211Y-68048942D01*
X43776259Y-68644180D01*
X44192926Y-67513228D02*
X43359592Y-67513228D01*
X43478640Y-67513228D02*
X43419116Y-67453704D01*
X43359592Y-67334657D01*
X43359592Y-67156085D01*
X43419116Y-67037038D01*
X43538164Y-66977514D01*
X44192926Y-66977514D01*
X43538164Y-66977514D02*
X43419116Y-66917990D01*
X43359592Y-66798942D01*
X43359592Y-66620371D01*
X43419116Y-66501323D01*
X43538164Y-66441800D01*
X44192926Y-66441800D01*
X44192926Y-65846561D02*
X42942926Y-65846561D01*
X43419116Y-65846561D02*
X43359592Y-65727514D01*
X43359592Y-65489419D01*
X43419116Y-65370371D01*
X43478640Y-65310847D01*
X43597688Y-65251323D01*
X43954830Y-65251323D01*
X44073878Y-65310847D01*
X44133402Y-65370371D01*
X44192926Y-65489419D01*
X44192926Y-65727514D01*
X44133402Y-65846561D01*
X44133402Y-64239419D02*
X44192926Y-64358466D01*
X44192926Y-64596561D01*
X44133402Y-64715609D01*
X44014354Y-64775133D01*
X43538164Y-64775133D01*
X43419116Y-64715609D01*
X43359592Y-64596561D01*
X43359592Y-64358466D01*
X43419116Y-64239419D01*
X43538164Y-64179895D01*
X43657211Y-64179895D01*
X43776259Y-64775133D01*
X44192926Y-63644180D02*
X43359592Y-63644180D01*
X43597688Y-63644180D02*
X43478640Y-63584657D01*
X43419116Y-63525133D01*
X43359592Y-63406085D01*
X43359592Y-63287038D01*
X44133402Y-62810847D02*
X44192926Y-62810847D01*
X44311973Y-62870371D01*
X44371497Y-62929895D01*
X43061973Y-61382276D02*
X43002450Y-61322752D01*
X42942926Y-61203704D01*
X42942926Y-60906085D01*
X43002450Y-60787038D01*
X43061973Y-60727514D01*
X43181021Y-60667990D01*
X43300069Y-60667990D01*
X43478640Y-60727514D01*
X44192926Y-61441800D01*
X44192926Y-60667990D01*
X42942926Y-59894180D02*
X42942926Y-59775133D01*
X43002450Y-59656085D01*
X43061973Y-59596561D01*
X43181021Y-59537038D01*
X43419116Y-59477514D01*
X43716735Y-59477514D01*
X43954830Y-59537038D01*
X44073878Y-59596561D01*
X44133402Y-59656085D01*
X44192926Y-59775133D01*
X44192926Y-59894180D01*
X44133402Y-60013228D01*
X44073878Y-60072752D01*
X43954830Y-60132276D01*
X43716735Y-60191800D01*
X43419116Y-60191800D01*
X43181021Y-60132276D01*
X43061973Y-60072752D01*
X43002450Y-60013228D01*
X42942926Y-59894180D01*
X43061973Y-59001323D02*
X43002450Y-58941800D01*
X42942926Y-58822752D01*
X42942926Y-58525133D01*
X43002450Y-58406085D01*
X43061973Y-58346561D01*
X43181021Y-58287038D01*
X43300069Y-58287038D01*
X43478640Y-58346561D01*
X44192926Y-59060847D01*
X44192926Y-58287038D01*
X43061973Y-57810847D02*
X43002450Y-57751323D01*
X42942926Y-57632276D01*
X42942926Y-57334657D01*
X43002450Y-57215609D01*
X43061973Y-57156085D01*
X43181021Y-57096561D01*
X43300069Y-57096561D01*
X43478640Y-57156085D01*
X44192926Y-57870371D01*
X44192926Y-57096561D01*
X74730514Y-44615123D02*
X74730514Y-44996076D01*
X50549080Y-81759085D02*
X50572890Y-81687657D01*
X50572890Y-81568609D01*
X50549080Y-81520990D01*
X50525271Y-81497180D01*
X50477652Y-81473371D01*
X50430033Y-81473371D01*
X50382414Y-81497180D01*
X50358604Y-81520990D01*
X50334795Y-81568609D01*
X50310985Y-81663847D01*
X50287176Y-81711466D01*
X50263366Y-81735276D01*
X50215747Y-81759085D01*
X50168128Y-81759085D01*
X50120509Y-81735276D01*
X50096700Y-81711466D01*
X50072890Y-81663847D01*
X50072890Y-81544800D01*
X50096700Y-81473371D01*
X50239557Y-81044800D02*
X50572890Y-81044800D01*
X50239557Y-81259085D02*
X50501461Y-81259085D01*
X50549080Y-81235276D01*
X50572890Y-81187657D01*
X50572890Y-81116228D01*
X50549080Y-81068609D01*
X50525271Y-81044800D01*
X50239557Y-80806704D02*
X50739557Y-80806704D01*
X50263366Y-80806704D02*
X50239557Y-80759085D01*
X50239557Y-80663847D01*
X50263366Y-80616228D01*
X50287176Y-80592419D01*
X50334795Y-80568609D01*
X50477652Y-80568609D01*
X50525271Y-80592419D01*
X50549080Y-80616228D01*
X50572890Y-80663847D01*
X50572890Y-80759085D01*
X50549080Y-80806704D01*
X50239557Y-80354323D02*
X50739557Y-80354323D01*
X50263366Y-80354323D02*
X50239557Y-80306704D01*
X50239557Y-80211466D01*
X50263366Y-80163847D01*
X50287176Y-80140038D01*
X50334795Y-80116228D01*
X50477652Y-80116228D01*
X50525271Y-80140038D01*
X50549080Y-80163847D01*
X50572890Y-80211466D01*
X50572890Y-80306704D01*
X50549080Y-80354323D01*
X50572890Y-79830514D02*
X50549080Y-79878133D01*
X50501461Y-79901942D01*
X50072890Y-79901942D01*
X50239557Y-79687657D02*
X50572890Y-79568609D01*
X50239557Y-79449561D02*
X50572890Y-79568609D01*
X50691938Y-79616228D01*
X50715747Y-79640038D01*
X50739557Y-79687657D01*
X50072890Y-78949561D02*
X50572890Y-78782895D01*
X50072890Y-78616228D01*
X50572890Y-78378133D02*
X50549080Y-78425752D01*
X50525271Y-78449561D01*
X50477652Y-78473371D01*
X50334795Y-78473371D01*
X50287176Y-78449561D01*
X50263366Y-78425752D01*
X50239557Y-78378133D01*
X50239557Y-78306704D01*
X50263366Y-78259085D01*
X50287176Y-78235276D01*
X50334795Y-78211466D01*
X50477652Y-78211466D01*
X50525271Y-78235276D01*
X50549080Y-78259085D01*
X50572890Y-78306704D01*
X50572890Y-78378133D01*
X50572890Y-77925752D02*
X50549080Y-77973371D01*
X50501461Y-77997180D01*
X50072890Y-77997180D01*
X50239557Y-77806704D02*
X50239557Y-77616228D01*
X50072890Y-77735276D02*
X50501461Y-77735276D01*
X50549080Y-77711466D01*
X50572890Y-77663847D01*
X50572890Y-77616228D01*
X50572890Y-77235276D02*
X50310985Y-77235276D01*
X50263366Y-77259085D01*
X50239557Y-77306704D01*
X50239557Y-77401942D01*
X50263366Y-77449561D01*
X50549080Y-77235276D02*
X50572890Y-77282895D01*
X50572890Y-77401942D01*
X50549080Y-77449561D01*
X50501461Y-77473371D01*
X50453842Y-77473371D01*
X50406223Y-77449561D01*
X50382414Y-77401942D01*
X50382414Y-77282895D01*
X50358604Y-77235276D01*
X50239557Y-76782895D02*
X50644319Y-76782895D01*
X50691938Y-76806704D01*
X50715747Y-76830514D01*
X50739557Y-76878133D01*
X50739557Y-76949561D01*
X50715747Y-76997180D01*
X50549080Y-76782895D02*
X50572890Y-76830514D01*
X50572890Y-76925752D01*
X50549080Y-76973371D01*
X50525271Y-76997180D01*
X50477652Y-77020990D01*
X50334795Y-77020990D01*
X50287176Y-76997180D01*
X50263366Y-76973371D01*
X50239557Y-76925752D01*
X50239557Y-76830514D01*
X50263366Y-76782895D01*
X50549080Y-76354323D02*
X50572890Y-76401942D01*
X50572890Y-76497180D01*
X50549080Y-76544800D01*
X50501461Y-76568609D01*
X50310985Y-76568609D01*
X50263366Y-76544800D01*
X50239557Y-76497180D01*
X50239557Y-76401942D01*
X50263366Y-76354323D01*
X50310985Y-76330514D01*
X50358604Y-76330514D01*
X50406223Y-76568609D01*
X50877890Y-80842419D02*
X50877890Y-80937657D01*
X50901700Y-80985276D01*
X50925509Y-81009085D01*
X50996938Y-81056704D01*
X51092176Y-81080514D01*
X51282652Y-81080514D01*
X51330271Y-81056704D01*
X51354080Y-81032895D01*
X51377890Y-80985276D01*
X51377890Y-80890038D01*
X51354080Y-80842419D01*
X51330271Y-80818609D01*
X51282652Y-80794800D01*
X51163604Y-80794800D01*
X51115985Y-80818609D01*
X51092176Y-80842419D01*
X51068366Y-80890038D01*
X51068366Y-80985276D01*
X51092176Y-81032895D01*
X51115985Y-81056704D01*
X51163604Y-81080514D01*
X51187414Y-80580514D02*
X51187414Y-80199561D01*
X51377890Y-79699561D02*
X51377890Y-79985276D01*
X51377890Y-79842419D02*
X50877890Y-79842419D01*
X50949319Y-79890038D01*
X50996938Y-79937657D01*
X51020747Y-79985276D01*
X50925509Y-79509085D02*
X50901700Y-79485276D01*
X50877890Y-79437657D01*
X50877890Y-79318609D01*
X50901700Y-79270990D01*
X50925509Y-79247180D01*
X50973128Y-79223371D01*
X51020747Y-79223371D01*
X51092176Y-79247180D01*
X51377890Y-79532895D01*
X51377890Y-79223371D01*
X50877890Y-78699561D02*
X51377890Y-78532895D01*
X50877890Y-78366228D01*
X51377890Y-78128133D02*
X51354080Y-78175752D01*
X51330271Y-78199561D01*
X51282652Y-78223371D01*
X51139795Y-78223371D01*
X51092176Y-78199561D01*
X51068366Y-78175752D01*
X51044557Y-78128133D01*
X51044557Y-78056704D01*
X51068366Y-78009085D01*
X51092176Y-77985276D01*
X51139795Y-77961466D01*
X51282652Y-77961466D01*
X51330271Y-77985276D01*
X51354080Y-78009085D01*
X51377890Y-78056704D01*
X51377890Y-78128133D01*
X51377890Y-77675752D02*
X51354080Y-77723371D01*
X51306461Y-77747180D01*
X50877890Y-77747180D01*
X51044557Y-77556704D02*
X51044557Y-77366228D01*
X50877890Y-77485276D02*
X51306461Y-77485276D01*
X51354080Y-77461466D01*
X51377890Y-77413847D01*
X51377890Y-77366228D01*
X51354080Y-77223371D02*
X51377890Y-77175752D01*
X51377890Y-77080514D01*
X51354080Y-77032895D01*
X51306461Y-77009085D01*
X51282652Y-77009085D01*
X51235033Y-77032895D01*
X51211223Y-77080514D01*
X51211223Y-77151942D01*
X51187414Y-77199561D01*
X51139795Y-77223371D01*
X51115985Y-77223371D01*
X51068366Y-77199561D01*
X51044557Y-77151942D01*
X51044557Y-77080514D01*
X51068366Y-77032895D01*
%TO.C,J3*%
X72394533Y-42296590D02*
X72394533Y-42653733D01*
X72370723Y-42725161D01*
X72323104Y-42772780D01*
X72251676Y-42796590D01*
X72204057Y-42796590D01*
X72585009Y-42296590D02*
X72894533Y-42296590D01*
X72727866Y-42487066D01*
X72799295Y-42487066D01*
X72846914Y-42510876D01*
X72870723Y-42534685D01*
X72894533Y-42582304D01*
X72894533Y-42701352D01*
X72870723Y-42748971D01*
X72846914Y-42772780D01*
X72799295Y-42796590D01*
X72656438Y-42796590D01*
X72608819Y-42772780D01*
X72585009Y-42748971D01*
D12*
%TO.C,C7-2*%
X50687723Y-40576885D02*
X50675819Y-40588790D01*
X50640104Y-40600695D01*
X50616295Y-40600695D01*
X50580580Y-40588790D01*
X50556771Y-40564980D01*
X50544866Y-40541171D01*
X50532961Y-40493552D01*
X50532961Y-40457838D01*
X50544866Y-40410219D01*
X50556771Y-40386409D01*
X50580580Y-40362600D01*
X50616295Y-40350695D01*
X50640104Y-40350695D01*
X50675819Y-40362600D01*
X50687723Y-40374504D01*
X50771057Y-40350695D02*
X50937723Y-40350695D01*
X50830580Y-40600695D01*
X51032961Y-40505457D02*
X51223438Y-40505457D01*
X51330580Y-40374504D02*
X51342485Y-40362600D01*
X51366295Y-40350695D01*
X51425819Y-40350695D01*
X51449628Y-40362600D01*
X51461533Y-40374504D01*
X51473438Y-40398314D01*
X51473438Y-40422123D01*
X51461533Y-40457838D01*
X51318676Y-40600695D01*
X51473438Y-40600695D01*
D11*
%TO.C,L2-2*%
X65444380Y-44441904D02*
X65444380Y-44918095D01*
X64444380Y-44918095D01*
X64539619Y-44156190D02*
X64492000Y-44108571D01*
X64444380Y-44013333D01*
X64444380Y-43775238D01*
X64492000Y-43680000D01*
X64539619Y-43632380D01*
X64634857Y-43584761D01*
X64730095Y-43584761D01*
X64872952Y-43632380D01*
X65444380Y-44203809D01*
X65444380Y-43584761D01*
X65063428Y-43156190D02*
X65063428Y-42394285D01*
X64539619Y-41965714D02*
X64492000Y-41918095D01*
X64444380Y-41822857D01*
X64444380Y-41584761D01*
X64492000Y-41489523D01*
X64539619Y-41441904D01*
X64634857Y-41394285D01*
X64730095Y-41394285D01*
X64872952Y-41441904D01*
X65444380Y-42013333D01*
X65444380Y-41394285D01*
D12*
%TO.C,C8-2*%
X52972085Y-39380676D02*
X52983990Y-39392580D01*
X52995895Y-39428295D01*
X52995895Y-39452104D01*
X52983990Y-39487819D01*
X52960180Y-39511628D01*
X52936371Y-39523533D01*
X52888752Y-39535438D01*
X52853038Y-39535438D01*
X52805419Y-39523533D01*
X52781609Y-39511628D01*
X52757800Y-39487819D01*
X52745895Y-39452104D01*
X52745895Y-39428295D01*
X52757800Y-39392580D01*
X52769704Y-39380676D01*
X52853038Y-39237819D02*
X52841133Y-39261628D01*
X52829228Y-39273533D01*
X52805419Y-39285438D01*
X52793514Y-39285438D01*
X52769704Y-39273533D01*
X52757800Y-39261628D01*
X52745895Y-39237819D01*
X52745895Y-39190200D01*
X52757800Y-39166390D01*
X52769704Y-39154485D01*
X52793514Y-39142580D01*
X52805419Y-39142580D01*
X52829228Y-39154485D01*
X52841133Y-39166390D01*
X52853038Y-39190200D01*
X52853038Y-39237819D01*
X52864942Y-39261628D01*
X52876847Y-39273533D01*
X52900657Y-39285438D01*
X52948276Y-39285438D01*
X52972085Y-39273533D01*
X52983990Y-39261628D01*
X52995895Y-39237819D01*
X52995895Y-39190200D01*
X52983990Y-39166390D01*
X52972085Y-39154485D01*
X52948276Y-39142580D01*
X52900657Y-39142580D01*
X52876847Y-39154485D01*
X52864942Y-39166390D01*
X52853038Y-39190200D01*
X52900657Y-39035438D02*
X52900657Y-38844961D01*
X52769704Y-38737819D02*
X52757800Y-38725914D01*
X52745895Y-38702104D01*
X52745895Y-38642580D01*
X52757800Y-38618771D01*
X52769704Y-38606866D01*
X52793514Y-38594961D01*
X52817323Y-38594961D01*
X52853038Y-38606866D01*
X52995895Y-38749723D01*
X52995895Y-38594961D01*
D11*
%TO.C,H4*%
X77012895Y-78870780D02*
X77012895Y-77870780D01*
X77012895Y-78346971D02*
X77584323Y-78346971D01*
X77584323Y-78870780D02*
X77584323Y-77870780D01*
X78489085Y-78204114D02*
X78489085Y-78870780D01*
X78250990Y-77823161D02*
X78012895Y-78537447D01*
X78631942Y-78537447D01*
D12*
%TO.C,R1-1*%
X58685495Y-64983876D02*
X58566447Y-65067209D01*
X58685495Y-65126733D02*
X58435495Y-65126733D01*
X58435495Y-65031495D01*
X58447400Y-65007685D01*
X58459304Y-64995780D01*
X58483114Y-64983876D01*
X58518828Y-64983876D01*
X58542638Y-64995780D01*
X58554542Y-65007685D01*
X58566447Y-65031495D01*
X58566447Y-65126733D01*
X58685495Y-64745780D02*
X58685495Y-64888638D01*
X58685495Y-64817209D02*
X58435495Y-64817209D01*
X58471209Y-64841019D01*
X58495019Y-64864828D01*
X58506923Y-64888638D01*
X58590257Y-64638638D02*
X58590257Y-64448161D01*
X58685495Y-64198161D02*
X58685495Y-64341019D01*
X58685495Y-64269590D02*
X58435495Y-64269590D01*
X58471209Y-64293400D01*
X58495019Y-64317209D01*
X58506923Y-64341019D01*
%TO.C,R7-2*%
X57545723Y-49439895D02*
X57462390Y-49320847D01*
X57402866Y-49439895D02*
X57402866Y-49189895D01*
X57498104Y-49189895D01*
X57521914Y-49201800D01*
X57533819Y-49213704D01*
X57545723Y-49237514D01*
X57545723Y-49273228D01*
X57533819Y-49297038D01*
X57521914Y-49308942D01*
X57498104Y-49320847D01*
X57402866Y-49320847D01*
X57629057Y-49189895D02*
X57795723Y-49189895D01*
X57688580Y-49439895D01*
X57890961Y-49344657D02*
X58081438Y-49344657D01*
X58188580Y-49213704D02*
X58200485Y-49201800D01*
X58224295Y-49189895D01*
X58283819Y-49189895D01*
X58307628Y-49201800D01*
X58319533Y-49213704D01*
X58331438Y-49237514D01*
X58331438Y-49261323D01*
X58319533Y-49297038D01*
X58176676Y-49439895D01*
X58331438Y-49439895D01*
%TO.C,C6-2*%
X50687723Y-42964485D02*
X50675819Y-42976390D01*
X50640104Y-42988295D01*
X50616295Y-42988295D01*
X50580580Y-42976390D01*
X50556771Y-42952580D01*
X50544866Y-42928771D01*
X50532961Y-42881152D01*
X50532961Y-42845438D01*
X50544866Y-42797819D01*
X50556771Y-42774009D01*
X50580580Y-42750200D01*
X50616295Y-42738295D01*
X50640104Y-42738295D01*
X50675819Y-42750200D01*
X50687723Y-42762104D01*
X50902009Y-42738295D02*
X50854390Y-42738295D01*
X50830580Y-42750200D01*
X50818676Y-42762104D01*
X50794866Y-42797819D01*
X50782961Y-42845438D01*
X50782961Y-42940676D01*
X50794866Y-42964485D01*
X50806771Y-42976390D01*
X50830580Y-42988295D01*
X50878200Y-42988295D01*
X50902009Y-42976390D01*
X50913914Y-42964485D01*
X50925819Y-42940676D01*
X50925819Y-42881152D01*
X50913914Y-42857342D01*
X50902009Y-42845438D01*
X50878200Y-42833533D01*
X50830580Y-42833533D01*
X50806771Y-42845438D01*
X50794866Y-42857342D01*
X50782961Y-42881152D01*
X51032961Y-42893057D02*
X51223438Y-42893057D01*
X51330580Y-42762104D02*
X51342485Y-42750200D01*
X51366295Y-42738295D01*
X51425819Y-42738295D01*
X51449628Y-42750200D01*
X51461533Y-42762104D01*
X51473438Y-42785914D01*
X51473438Y-42809723D01*
X51461533Y-42845438D01*
X51318676Y-42988295D01*
X51473438Y-42988295D01*
%TO.C,C10-2*%
X58849076Y-39154485D02*
X58837171Y-39166390D01*
X58801457Y-39178295D01*
X58777647Y-39178295D01*
X58741933Y-39166390D01*
X58718123Y-39142580D01*
X58706219Y-39118771D01*
X58694314Y-39071152D01*
X58694314Y-39035438D01*
X58706219Y-38987819D01*
X58718123Y-38964009D01*
X58741933Y-38940200D01*
X58777647Y-38928295D01*
X58801457Y-38928295D01*
X58837171Y-38940200D01*
X58849076Y-38952104D01*
X59087171Y-39178295D02*
X58944314Y-39178295D01*
X59015742Y-39178295D02*
X59015742Y-38928295D01*
X58991933Y-38964009D01*
X58968123Y-38987819D01*
X58944314Y-38999723D01*
X59241933Y-38928295D02*
X59265742Y-38928295D01*
X59289552Y-38940200D01*
X59301457Y-38952104D01*
X59313361Y-38975914D01*
X59325266Y-39023533D01*
X59325266Y-39083057D01*
X59313361Y-39130676D01*
X59301457Y-39154485D01*
X59289552Y-39166390D01*
X59265742Y-39178295D01*
X59241933Y-39178295D01*
X59218123Y-39166390D01*
X59206219Y-39154485D01*
X59194314Y-39130676D01*
X59182409Y-39083057D01*
X59182409Y-39023533D01*
X59194314Y-38975914D01*
X59206219Y-38952104D01*
X59218123Y-38940200D01*
X59241933Y-38928295D01*
X59432409Y-39083057D02*
X59622885Y-39083057D01*
X59730028Y-38952104D02*
X59741933Y-38940200D01*
X59765742Y-38928295D01*
X59825266Y-38928295D01*
X59849076Y-38940200D01*
X59860980Y-38952104D01*
X59872885Y-38975914D01*
X59872885Y-38999723D01*
X59860980Y-39035438D01*
X59718123Y-39178295D01*
X59872885Y-39178295D01*
D10*
%TO.C,J1*%
X58196990Y-79617866D02*
X58554133Y-79617866D01*
X58625561Y-79641676D01*
X58673180Y-79689295D01*
X58696990Y-79760723D01*
X58696990Y-79808342D01*
X58696990Y-79117866D02*
X58696990Y-79403580D01*
X58696990Y-79260723D02*
X58196990Y-79260723D01*
X58268419Y-79308342D01*
X58316038Y-79355961D01*
X58339847Y-79403580D01*
D12*
%TO.C,C3-1*%
X60846085Y-64831476D02*
X60857990Y-64843380D01*
X60869895Y-64879095D01*
X60869895Y-64902904D01*
X60857990Y-64938619D01*
X60834180Y-64962428D01*
X60810371Y-64974333D01*
X60762752Y-64986238D01*
X60727038Y-64986238D01*
X60679419Y-64974333D01*
X60655609Y-64962428D01*
X60631800Y-64938619D01*
X60619895Y-64902904D01*
X60619895Y-64879095D01*
X60631800Y-64843380D01*
X60643704Y-64831476D01*
X60619895Y-64748142D02*
X60619895Y-64593380D01*
X60715133Y-64676714D01*
X60715133Y-64641000D01*
X60727038Y-64617190D01*
X60738942Y-64605285D01*
X60762752Y-64593380D01*
X60822276Y-64593380D01*
X60846085Y-64605285D01*
X60857990Y-64617190D01*
X60869895Y-64641000D01*
X60869895Y-64712428D01*
X60857990Y-64736238D01*
X60846085Y-64748142D01*
X60774657Y-64486238D02*
X60774657Y-64295761D01*
X60869895Y-64045761D02*
X60869895Y-64188619D01*
X60869895Y-64117190D02*
X60619895Y-64117190D01*
X60655609Y-64141000D01*
X60679419Y-64164809D01*
X60691323Y-64188619D01*
%TO.C,C9-2*%
X47588923Y-45047285D02*
X47577019Y-45059190D01*
X47541304Y-45071095D01*
X47517495Y-45071095D01*
X47481780Y-45059190D01*
X47457971Y-45035380D01*
X47446066Y-45011571D01*
X47434161Y-44963952D01*
X47434161Y-44928238D01*
X47446066Y-44880619D01*
X47457971Y-44856809D01*
X47481780Y-44833000D01*
X47517495Y-44821095D01*
X47541304Y-44821095D01*
X47577019Y-44833000D01*
X47588923Y-44844904D01*
X47707971Y-45071095D02*
X47755590Y-45071095D01*
X47779400Y-45059190D01*
X47791304Y-45047285D01*
X47815114Y-45011571D01*
X47827019Y-44963952D01*
X47827019Y-44868714D01*
X47815114Y-44844904D01*
X47803209Y-44833000D01*
X47779400Y-44821095D01*
X47731780Y-44821095D01*
X47707971Y-44833000D01*
X47696066Y-44844904D01*
X47684161Y-44868714D01*
X47684161Y-44928238D01*
X47696066Y-44952047D01*
X47707971Y-44963952D01*
X47731780Y-44975857D01*
X47779400Y-44975857D01*
X47803209Y-44963952D01*
X47815114Y-44952047D01*
X47827019Y-44928238D01*
X47934161Y-44975857D02*
X48124638Y-44975857D01*
X48231780Y-44844904D02*
X48243685Y-44833000D01*
X48267495Y-44821095D01*
X48327019Y-44821095D01*
X48350828Y-44833000D01*
X48362733Y-44844904D01*
X48374638Y-44868714D01*
X48374638Y-44892523D01*
X48362733Y-44928238D01*
X48219876Y-45071095D01*
X48374638Y-45071095D01*
D10*
%TO.C,U2*%
X58597847Y-43160190D02*
X58597847Y-43564952D01*
X58621657Y-43612571D01*
X58645466Y-43636380D01*
X58693085Y-43660190D01*
X58788323Y-43660190D01*
X58835942Y-43636380D01*
X58859752Y-43612571D01*
X58883561Y-43564952D01*
X58883561Y-43160190D01*
X59097847Y-43207809D02*
X59121657Y-43184000D01*
X59169276Y-43160190D01*
X59288323Y-43160190D01*
X59335942Y-43184000D01*
X59359752Y-43207809D01*
X59383561Y-43255428D01*
X59383561Y-43303047D01*
X59359752Y-43374476D01*
X59074038Y-43660190D01*
X59383561Y-43660190D01*
D11*
%TO.C,H1*%
X77012895Y-32337980D02*
X77012895Y-31337980D01*
X77012895Y-31814171D02*
X77584323Y-31814171D01*
X77584323Y-32337980D02*
X77584323Y-31337980D01*
X78584323Y-32337980D02*
X78012895Y-32337980D01*
X78298609Y-32337980D02*
X78298609Y-31337980D01*
X78203371Y-31480838D01*
X78108133Y-31576076D01*
X78012895Y-31623695D01*
D12*
%TO.C,R2-2*%
X51246523Y-45121895D02*
X51163190Y-45002847D01*
X51103666Y-45121895D02*
X51103666Y-44871895D01*
X51198904Y-44871895D01*
X51222714Y-44883800D01*
X51234619Y-44895704D01*
X51246523Y-44919514D01*
X51246523Y-44955228D01*
X51234619Y-44979038D01*
X51222714Y-44990942D01*
X51198904Y-45002847D01*
X51103666Y-45002847D01*
X51341761Y-44895704D02*
X51353666Y-44883800D01*
X51377476Y-44871895D01*
X51437000Y-44871895D01*
X51460809Y-44883800D01*
X51472714Y-44895704D01*
X51484619Y-44919514D01*
X51484619Y-44943323D01*
X51472714Y-44979038D01*
X51329857Y-45121895D01*
X51484619Y-45121895D01*
X51591761Y-45026657D02*
X51782238Y-45026657D01*
X51889380Y-44895704D02*
X51901285Y-44883800D01*
X51925095Y-44871895D01*
X51984619Y-44871895D01*
X52008428Y-44883800D01*
X52020333Y-44895704D01*
X52032238Y-44919514D01*
X52032238Y-44943323D01*
X52020333Y-44979038D01*
X51877476Y-45121895D01*
X52032238Y-45121895D01*
%TO.C,C1-2*%
X55258085Y-56652676D02*
X55269990Y-56664580D01*
X55281895Y-56700295D01*
X55281895Y-56724104D01*
X55269990Y-56759819D01*
X55246180Y-56783628D01*
X55222371Y-56795533D01*
X55174752Y-56807438D01*
X55139038Y-56807438D01*
X55091419Y-56795533D01*
X55067609Y-56783628D01*
X55043800Y-56759819D01*
X55031895Y-56724104D01*
X55031895Y-56700295D01*
X55043800Y-56664580D01*
X55055704Y-56652676D01*
X55281895Y-56414580D02*
X55281895Y-56557438D01*
X55281895Y-56486009D02*
X55031895Y-56486009D01*
X55067609Y-56509819D01*
X55091419Y-56533628D01*
X55103323Y-56557438D01*
X55186657Y-56307438D02*
X55186657Y-56116961D01*
X55055704Y-56009819D02*
X55043800Y-55997914D01*
X55031895Y-55974104D01*
X55031895Y-55914580D01*
X55043800Y-55890771D01*
X55055704Y-55878866D01*
X55079514Y-55866961D01*
X55103323Y-55866961D01*
X55139038Y-55878866D01*
X55281895Y-56021723D01*
X55281895Y-55866961D01*
D11*
%TO.C,H2*%
X40538495Y-78819980D02*
X40538495Y-77819980D01*
X40538495Y-78296171D02*
X41109923Y-78296171D01*
X41109923Y-78819980D02*
X41109923Y-77819980D01*
X41538495Y-77915219D02*
X41586114Y-77867600D01*
X41681352Y-77819980D01*
X41919447Y-77819980D01*
X42014685Y-77867600D01*
X42062304Y-77915219D01*
X42109923Y-78010457D01*
X42109923Y-78105695D01*
X42062304Y-78248552D01*
X41490876Y-78819980D01*
X42109923Y-78819980D01*
D10*
%TO.C,Q1*%
X61725180Y-58693809D02*
X61677561Y-58670000D01*
X61629942Y-58622380D01*
X61558514Y-58550952D01*
X61510895Y-58527142D01*
X61463276Y-58527142D01*
X61487085Y-58646190D02*
X61439466Y-58622380D01*
X61391847Y-58574761D01*
X61368038Y-58479523D01*
X61368038Y-58312857D01*
X61391847Y-58217619D01*
X61439466Y-58170000D01*
X61487085Y-58146190D01*
X61582323Y-58146190D01*
X61629942Y-58170000D01*
X61677561Y-58217619D01*
X61701371Y-58312857D01*
X61701371Y-58479523D01*
X61677561Y-58574761D01*
X61629942Y-58622380D01*
X61582323Y-58646190D01*
X61487085Y-58646190D01*
X62177561Y-58646190D02*
X61891847Y-58646190D01*
X62034704Y-58646190D02*
X62034704Y-58146190D01*
X61987085Y-58217619D01*
X61939466Y-58265238D01*
X61891847Y-58289047D01*
D12*
%TO.C,C5-2*%
X69350123Y-44894885D02*
X69338219Y-44906790D01*
X69302504Y-44918695D01*
X69278695Y-44918695D01*
X69242980Y-44906790D01*
X69219171Y-44882980D01*
X69207266Y-44859171D01*
X69195361Y-44811552D01*
X69195361Y-44775838D01*
X69207266Y-44728219D01*
X69219171Y-44704409D01*
X69242980Y-44680600D01*
X69278695Y-44668695D01*
X69302504Y-44668695D01*
X69338219Y-44680600D01*
X69350123Y-44692504D01*
X69576314Y-44668695D02*
X69457266Y-44668695D01*
X69445361Y-44787742D01*
X69457266Y-44775838D01*
X69481076Y-44763933D01*
X69540600Y-44763933D01*
X69564409Y-44775838D01*
X69576314Y-44787742D01*
X69588219Y-44811552D01*
X69588219Y-44871076D01*
X69576314Y-44894885D01*
X69564409Y-44906790D01*
X69540600Y-44918695D01*
X69481076Y-44918695D01*
X69457266Y-44906790D01*
X69445361Y-44894885D01*
X69695361Y-44823457D02*
X69885838Y-44823457D01*
X69992980Y-44692504D02*
X70004885Y-44680600D01*
X70028695Y-44668695D01*
X70088219Y-44668695D01*
X70112028Y-44680600D01*
X70123933Y-44692504D01*
X70135838Y-44716314D01*
X70135838Y-44740123D01*
X70123933Y-44775838D01*
X69981076Y-44918695D01*
X70135838Y-44918695D01*
%TO.C,R4-2*%
X55310523Y-39178295D02*
X55227190Y-39059247D01*
X55167666Y-39178295D02*
X55167666Y-38928295D01*
X55262904Y-38928295D01*
X55286714Y-38940200D01*
X55298619Y-38952104D01*
X55310523Y-38975914D01*
X55310523Y-39011628D01*
X55298619Y-39035438D01*
X55286714Y-39047342D01*
X55262904Y-39059247D01*
X55167666Y-39059247D01*
X55524809Y-39011628D02*
X55524809Y-39178295D01*
X55465285Y-38916390D02*
X55405761Y-39094961D01*
X55560523Y-39094961D01*
X55655761Y-39083057D02*
X55846238Y-39083057D01*
X55953380Y-38952104D02*
X55965285Y-38940200D01*
X55989095Y-38928295D01*
X56048619Y-38928295D01*
X56072428Y-38940200D01*
X56084333Y-38952104D01*
X56096238Y-38975914D01*
X56096238Y-38999723D01*
X56084333Y-39035438D01*
X55941476Y-39178295D01*
X56096238Y-39178295D01*
D11*
%TO.C,L1-1*%
X69479123Y-64358419D02*
X69479123Y-64663180D01*
X68839123Y-64663180D01*
X69479123Y-63809847D02*
X69479123Y-64175561D01*
X69479123Y-63992704D02*
X68839123Y-63992704D01*
X68930552Y-64053657D01*
X68991504Y-64114609D01*
X69021980Y-64175561D01*
X69235314Y-63535561D02*
X69235314Y-63047942D01*
X69479123Y-62407942D02*
X69479123Y-62773657D01*
X69479123Y-62590800D02*
X68839123Y-62590800D01*
X68930552Y-62651752D01*
X68991504Y-62712704D01*
X69021980Y-62773657D01*
D12*
%TO.C,R1-2*%
X49468523Y-45071095D02*
X49385190Y-44952047D01*
X49325666Y-45071095D02*
X49325666Y-44821095D01*
X49420904Y-44821095D01*
X49444714Y-44833000D01*
X49456619Y-44844904D01*
X49468523Y-44868714D01*
X49468523Y-44904428D01*
X49456619Y-44928238D01*
X49444714Y-44940142D01*
X49420904Y-44952047D01*
X49325666Y-44952047D01*
X49706619Y-45071095D02*
X49563761Y-45071095D01*
X49635190Y-45071095D02*
X49635190Y-44821095D01*
X49611380Y-44856809D01*
X49587571Y-44880619D01*
X49563761Y-44892523D01*
X49813761Y-44975857D02*
X50004238Y-44975857D01*
X50111380Y-44844904D02*
X50123285Y-44833000D01*
X50147095Y-44821095D01*
X50206619Y-44821095D01*
X50230428Y-44833000D01*
X50242333Y-44844904D01*
X50254238Y-44868714D01*
X50254238Y-44892523D01*
X50242333Y-44928238D01*
X50099476Y-45071095D01*
X50254238Y-45071095D01*
D11*
%TO.C,D2-1*%
X61615866Y-75073980D02*
X61615866Y-74073980D01*
X61853961Y-74073980D01*
X61996819Y-74121600D01*
X62092057Y-74216838D01*
X62139676Y-74312076D01*
X62187295Y-74502552D01*
X62187295Y-74645409D01*
X62139676Y-74835885D01*
X62092057Y-74931123D01*
X61996819Y-75026361D01*
X61853961Y-75073980D01*
X61615866Y-75073980D01*
X62568247Y-74169219D02*
X62615866Y-74121600D01*
X62711104Y-74073980D01*
X62949200Y-74073980D01*
X63044438Y-74121600D01*
X63092057Y-74169219D01*
X63139676Y-74264457D01*
X63139676Y-74359695D01*
X63092057Y-74502552D01*
X62520628Y-75073980D01*
X63139676Y-75073980D01*
X63568247Y-74693028D02*
X64330152Y-74693028D01*
X65330152Y-75073980D02*
X64758723Y-75073980D01*
X65044438Y-75073980D02*
X65044438Y-74073980D01*
X64949200Y-74216838D01*
X64853961Y-74312076D01*
X64758723Y-74359695D01*
D12*
%TO.C,R2-1*%
X56501095Y-64983876D02*
X56382047Y-65067209D01*
X56501095Y-65126733D02*
X56251095Y-65126733D01*
X56251095Y-65031495D01*
X56263000Y-65007685D01*
X56274904Y-64995780D01*
X56298714Y-64983876D01*
X56334428Y-64983876D01*
X56358238Y-64995780D01*
X56370142Y-65007685D01*
X56382047Y-65031495D01*
X56382047Y-65126733D01*
X56274904Y-64888638D02*
X56263000Y-64876733D01*
X56251095Y-64852923D01*
X56251095Y-64793400D01*
X56263000Y-64769590D01*
X56274904Y-64757685D01*
X56298714Y-64745780D01*
X56322523Y-64745780D01*
X56358238Y-64757685D01*
X56501095Y-64900542D01*
X56501095Y-64745780D01*
X56405857Y-64638638D02*
X56405857Y-64448161D01*
X56501095Y-64198161D02*
X56501095Y-64341019D01*
X56501095Y-64269590D02*
X56251095Y-64269590D01*
X56286809Y-64293400D01*
X56310619Y-64317209D01*
X56322523Y-64341019D01*
D11*
%TO.C,H3*%
X41198895Y-32287180D02*
X41198895Y-31287180D01*
X41198895Y-31763371D02*
X41770323Y-31763371D01*
X41770323Y-32287180D02*
X41770323Y-31287180D01*
X42151276Y-31287180D02*
X42770323Y-31287180D01*
X42436990Y-31668133D01*
X42579847Y-31668133D01*
X42675085Y-31715752D01*
X42722704Y-31763371D01*
X42770323Y-31858609D01*
X42770323Y-32096704D01*
X42722704Y-32191942D01*
X42675085Y-32239561D01*
X42579847Y-32287180D01*
X42294133Y-32287180D01*
X42198895Y-32239561D01*
X42151276Y-32191942D01*
D12*
%TO.C,C1-1*%
X53683285Y-76769476D02*
X53695190Y-76781380D01*
X53707095Y-76817095D01*
X53707095Y-76840904D01*
X53695190Y-76876619D01*
X53671380Y-76900428D01*
X53647571Y-76912333D01*
X53599952Y-76924238D01*
X53564238Y-76924238D01*
X53516619Y-76912333D01*
X53492809Y-76900428D01*
X53469000Y-76876619D01*
X53457095Y-76840904D01*
X53457095Y-76817095D01*
X53469000Y-76781380D01*
X53480904Y-76769476D01*
X53707095Y-76531380D02*
X53707095Y-76674238D01*
X53707095Y-76602809D02*
X53457095Y-76602809D01*
X53492809Y-76626619D01*
X53516619Y-76650428D01*
X53528523Y-76674238D01*
X53611857Y-76424238D02*
X53611857Y-76233761D01*
X53707095Y-75983761D02*
X53707095Y-76126619D01*
X53707095Y-76055190D02*
X53457095Y-76055190D01*
X53492809Y-76079000D01*
X53516619Y-76102809D01*
X53528523Y-76126619D01*
D10*
%TO.C,D2*%
X65116590Y-48984647D02*
X64616590Y-48984647D01*
X64616590Y-48865600D01*
X64640400Y-48794171D01*
X64688019Y-48746552D01*
X64735638Y-48722742D01*
X64830876Y-48698933D01*
X64902304Y-48698933D01*
X64997542Y-48722742D01*
X65045161Y-48746552D01*
X65092780Y-48794171D01*
X65116590Y-48865600D01*
X65116590Y-48984647D01*
X64664209Y-48508457D02*
X64640400Y-48484647D01*
X64616590Y-48437028D01*
X64616590Y-48317980D01*
X64640400Y-48270361D01*
X64664209Y-48246552D01*
X64711828Y-48222742D01*
X64759447Y-48222742D01*
X64830876Y-48246552D01*
X65116590Y-48532266D01*
X65116590Y-48222742D01*
%TO.C,U1*%
X51796190Y-71704152D02*
X52200952Y-71704152D01*
X52248571Y-71680342D01*
X52272380Y-71656533D01*
X52296190Y-71608914D01*
X52296190Y-71513676D01*
X52272380Y-71466057D01*
X52248571Y-71442247D01*
X52200952Y-71418438D01*
X51796190Y-71418438D01*
X52296190Y-70918438D02*
X52296190Y-71204152D01*
X52296190Y-71061295D02*
X51796190Y-71061295D01*
X51867619Y-71108914D01*
X51915238Y-71156533D01*
X51939047Y-71204152D01*
D11*
%TO.C,L1-2*%
X51444085Y-57690028D02*
X51444085Y-58047171D01*
X50694085Y-58047171D01*
X51444085Y-57047171D02*
X51444085Y-57475742D01*
X51444085Y-57261457D02*
X50694085Y-57261457D01*
X50801228Y-57332885D01*
X50872657Y-57404314D01*
X50908371Y-57475742D01*
X51158371Y-56725742D02*
X51158371Y-56154314D01*
X50765514Y-55832885D02*
X50729800Y-55797171D01*
X50694085Y-55725742D01*
X50694085Y-55547171D01*
X50729800Y-55475742D01*
X50765514Y-55440028D01*
X50836942Y-55404314D01*
X50908371Y-55404314D01*
X51015514Y-55440028D01*
X51444085Y-55868600D01*
X51444085Y-55404314D01*
D12*
%TO.C,R3-2*%
X57139323Y-39178295D02*
X57055990Y-39059247D01*
X56996466Y-39178295D02*
X56996466Y-38928295D01*
X57091704Y-38928295D01*
X57115514Y-38940200D01*
X57127419Y-38952104D01*
X57139323Y-38975914D01*
X57139323Y-39011628D01*
X57127419Y-39035438D01*
X57115514Y-39047342D01*
X57091704Y-39059247D01*
X56996466Y-39059247D01*
X57222657Y-38928295D02*
X57377419Y-38928295D01*
X57294085Y-39023533D01*
X57329800Y-39023533D01*
X57353609Y-39035438D01*
X57365514Y-39047342D01*
X57377419Y-39071152D01*
X57377419Y-39130676D01*
X57365514Y-39154485D01*
X57353609Y-39166390D01*
X57329800Y-39178295D01*
X57258371Y-39178295D01*
X57234561Y-39166390D01*
X57222657Y-39154485D01*
X57484561Y-39083057D02*
X57675038Y-39083057D01*
X57782180Y-38952104D02*
X57794085Y-38940200D01*
X57817895Y-38928295D01*
X57877419Y-38928295D01*
X57901228Y-38940200D01*
X57913133Y-38952104D01*
X57925038Y-38975914D01*
X57925038Y-38999723D01*
X57913133Y-39035438D01*
X57770276Y-39178295D01*
X57925038Y-39178295D01*
%TO.C,C2-2*%
X58307723Y-52972085D02*
X58295819Y-52983990D01*
X58260104Y-52995895D01*
X58236295Y-52995895D01*
X58200580Y-52983990D01*
X58176771Y-52960180D01*
X58164866Y-52936371D01*
X58152961Y-52888752D01*
X58152961Y-52853038D01*
X58164866Y-52805419D01*
X58176771Y-52781609D01*
X58200580Y-52757800D01*
X58236295Y-52745895D01*
X58260104Y-52745895D01*
X58295819Y-52757800D01*
X58307723Y-52769704D01*
X58402961Y-52769704D02*
X58414866Y-52757800D01*
X58438676Y-52745895D01*
X58498200Y-52745895D01*
X58522009Y-52757800D01*
X58533914Y-52769704D01*
X58545819Y-52793514D01*
X58545819Y-52817323D01*
X58533914Y-52853038D01*
X58391057Y-52995895D01*
X58545819Y-52995895D01*
X58652961Y-52900657D02*
X58843438Y-52900657D01*
X58950580Y-52769704D02*
X58962485Y-52757800D01*
X58986295Y-52745895D01*
X59045819Y-52745895D01*
X59069628Y-52757800D01*
X59081533Y-52769704D01*
X59093438Y-52793514D01*
X59093438Y-52817323D01*
X59081533Y-52853038D01*
X58938676Y-52995895D01*
X59093438Y-52995895D01*
%TO.C,C3-2*%
X55308885Y-53198276D02*
X55320790Y-53210180D01*
X55332695Y-53245895D01*
X55332695Y-53269704D01*
X55320790Y-53305419D01*
X55296980Y-53329228D01*
X55273171Y-53341133D01*
X55225552Y-53353038D01*
X55189838Y-53353038D01*
X55142219Y-53341133D01*
X55118409Y-53329228D01*
X55094600Y-53305419D01*
X55082695Y-53269704D01*
X55082695Y-53245895D01*
X55094600Y-53210180D01*
X55106504Y-53198276D01*
X55082695Y-53114942D02*
X55082695Y-52960180D01*
X55177933Y-53043514D01*
X55177933Y-53007800D01*
X55189838Y-52983990D01*
X55201742Y-52972085D01*
X55225552Y-52960180D01*
X55285076Y-52960180D01*
X55308885Y-52972085D01*
X55320790Y-52983990D01*
X55332695Y-53007800D01*
X55332695Y-53079228D01*
X55320790Y-53103038D01*
X55308885Y-53114942D01*
X55237457Y-52853038D02*
X55237457Y-52662561D01*
X55106504Y-52555419D02*
X55094600Y-52543514D01*
X55082695Y-52519704D01*
X55082695Y-52460180D01*
X55094600Y-52436371D01*
X55106504Y-52424466D01*
X55130314Y-52412561D01*
X55154123Y-52412561D01*
X55189838Y-52424466D01*
X55332695Y-52567323D01*
X55332695Y-52412561D01*
D10*
%TO.C,J2*%
X44887390Y-41162266D02*
X45244533Y-41162266D01*
X45315961Y-41186076D01*
X45363580Y-41233695D01*
X45387390Y-41305123D01*
X45387390Y-41352742D01*
X44935009Y-40947980D02*
X44911200Y-40924171D01*
X44887390Y-40876552D01*
X44887390Y-40757504D01*
X44911200Y-40709885D01*
X44935009Y-40686076D01*
X44982628Y-40662266D01*
X45030247Y-40662266D01*
X45101676Y-40686076D01*
X45387390Y-40971790D01*
X45387390Y-40662266D01*
D12*
%TO.C,C2-1*%
X60288923Y-66586485D02*
X60277019Y-66598390D01*
X60241304Y-66610295D01*
X60217495Y-66610295D01*
X60181780Y-66598390D01*
X60157971Y-66574580D01*
X60146066Y-66550771D01*
X60134161Y-66503152D01*
X60134161Y-66467438D01*
X60146066Y-66419819D01*
X60157971Y-66396009D01*
X60181780Y-66372200D01*
X60217495Y-66360295D01*
X60241304Y-66360295D01*
X60277019Y-66372200D01*
X60288923Y-66384104D01*
X60384161Y-66384104D02*
X60396066Y-66372200D01*
X60419876Y-66360295D01*
X60479400Y-66360295D01*
X60503209Y-66372200D01*
X60515114Y-66384104D01*
X60527019Y-66407914D01*
X60527019Y-66431723D01*
X60515114Y-66467438D01*
X60372257Y-66610295D01*
X60527019Y-66610295D01*
X60634161Y-66515057D02*
X60824638Y-66515057D01*
X61074638Y-66610295D02*
X60931780Y-66610295D01*
X61003209Y-66610295D02*
X61003209Y-66360295D01*
X60979400Y-66396009D01*
X60955590Y-66419819D01*
X60931780Y-66431723D01*
%TO.C,C4-2*%
X44490123Y-49924085D02*
X44478219Y-49935990D01*
X44442504Y-49947895D01*
X44418695Y-49947895D01*
X44382980Y-49935990D01*
X44359171Y-49912180D01*
X44347266Y-49888371D01*
X44335361Y-49840752D01*
X44335361Y-49805038D01*
X44347266Y-49757419D01*
X44359171Y-49733609D01*
X44382980Y-49709800D01*
X44418695Y-49697895D01*
X44442504Y-49697895D01*
X44478219Y-49709800D01*
X44490123Y-49721704D01*
X44704409Y-49781228D02*
X44704409Y-49947895D01*
X44644885Y-49685990D02*
X44585361Y-49864561D01*
X44740123Y-49864561D01*
X44835361Y-49852657D02*
X45025838Y-49852657D01*
X45132980Y-49721704D02*
X45144885Y-49709800D01*
X45168695Y-49697895D01*
X45228219Y-49697895D01*
X45252028Y-49709800D01*
X45263933Y-49721704D01*
X45275838Y-49745514D01*
X45275838Y-49769323D01*
X45263933Y-49805038D01*
X45121076Y-49947895D01*
X45275838Y-49947895D01*
D10*
%TO.C,D1*%
X50467390Y-51016647D02*
X49967390Y-51016647D01*
X49967390Y-50897600D01*
X49991200Y-50826171D01*
X50038819Y-50778552D01*
X50086438Y-50754742D01*
X50181676Y-50730933D01*
X50253104Y-50730933D01*
X50348342Y-50754742D01*
X50395961Y-50778552D01*
X50443580Y-50826171D01*
X50467390Y-50897600D01*
X50467390Y-51016647D01*
X50467390Y-50254742D02*
X50467390Y-50540457D01*
X50467390Y-50397600D02*
X49967390Y-50397600D01*
X50038819Y-50445219D01*
X50086438Y-50492838D01*
X50110247Y-50540457D01*
D13*
%TO.C,J3*%
X73891200Y-46024800D02*
X73891200Y-43424800D01*
X73891200Y-46024800D02*
X71231200Y-46024800D01*
X73891200Y-48624800D02*
X72561200Y-48624800D01*
X71231200Y-46024800D02*
X71231200Y-43424800D01*
X73891200Y-47294800D02*
X73891200Y-48624800D01*
X73891200Y-43424800D02*
X71231200Y-43424800D01*
%TO.C,C7-2*%
X51149467Y-41912000D02*
X50856933Y-41912000D01*
X51149467Y-40892000D02*
X50856933Y-40892000D01*
%TO.C,L2-2*%
X61692000Y-46380000D02*
X61692000Y-44680000D01*
X68292000Y-46380000D02*
X61692000Y-46380000D01*
X68292000Y-39980000D02*
X68292000Y-41680000D01*
X61692000Y-41680000D02*
X61692000Y-39980000D01*
X61692000Y-39980000D02*
X68292000Y-39980000D01*
X68292000Y-44680000D02*
X68292000Y-46380000D01*
%TO.C,C8-2*%
X53287200Y-39211467D02*
X53287200Y-38918933D01*
X54307200Y-39211467D02*
X54307200Y-38918933D01*
%TO.C,R1-1*%
X58964300Y-64413676D02*
X58964300Y-64923124D01*
X60009300Y-64413676D02*
X60009300Y-64923124D01*
%TO.C,R7-2*%
X57303124Y-50814500D02*
X56793676Y-50814500D01*
X57303124Y-49769500D02*
X56793676Y-49769500D01*
%TO.C,C6-2*%
X51149467Y-43279600D02*
X50856933Y-43279600D01*
X51149467Y-44299600D02*
X50856933Y-44299600D01*
%TO.C,J1*%
X52259000Y-80527200D02*
X52259000Y-79197200D01*
X57459000Y-80527200D02*
X57459000Y-77867200D01*
X54859000Y-80527200D02*
X54859000Y-77867200D01*
X53589000Y-80527200D02*
X52259000Y-80527200D01*
X54859000Y-77867200D02*
X57459000Y-77867200D01*
X54859000Y-80527200D02*
X57459000Y-80527200D01*
%TO.C,C3-1*%
X62181200Y-64375420D02*
X62181200Y-64656580D01*
X61161200Y-64375420D02*
X61161200Y-64656580D01*
%TO.C,C9-2*%
X47394400Y-46983867D02*
X47394400Y-46691333D01*
X48414400Y-46983867D02*
X48414400Y-46691333D01*
%TO.C,U2*%
X53770000Y-43610000D02*
X54245000Y-43610000D01*
X53770000Y-44085000D02*
X53770000Y-43610000D01*
X57990000Y-43610000D02*
X57515000Y-43610000D01*
X57990000Y-47355000D02*
X57990000Y-47830000D01*
X57990000Y-44085000D02*
X57990000Y-43610000D01*
X53770000Y-47355000D02*
X53770000Y-47830000D01*
X57990000Y-47830000D02*
X57515000Y-47830000D01*
%TO.C,R2-2*%
X51090300Y-46633676D02*
X51090300Y-47143124D01*
X52135300Y-46633676D02*
X52135300Y-47143124D01*
%TO.C,C1-2*%
X56644000Y-56483467D02*
X56644000Y-56190933D01*
X55624000Y-56483467D02*
X55624000Y-56190933D01*
D14*
%TO.C,Q1*%
X59182000Y-57810400D02*
X59182000Y-56997600D01*
X62026800Y-57810400D02*
X61368000Y-57810400D01*
X62026800Y-56997600D02*
X62026800Y-57810400D01*
X59840800Y-57810400D02*
X59182000Y-57810400D01*
D13*
%TO.C,C5-2*%
X70175600Y-46673380D02*
X70175600Y-46392220D01*
X69155600Y-46673380D02*
X69155600Y-46392220D01*
%TO.C,R4-2*%
X55103500Y-40639276D02*
X55103500Y-41148724D01*
X56148500Y-40639276D02*
X56148500Y-41148724D01*
D15*
%TO.C,L1-1*%
X74539600Y-58550800D02*
X63839600Y-58550800D01*
X74539600Y-68550800D02*
X63839600Y-68550800D01*
D13*
%TO.C,R1-2*%
X49261500Y-47143124D02*
X49261500Y-46633676D01*
X50306500Y-47143124D02*
X50306500Y-46633676D01*
%TO.C,D2-1*%
X60199200Y-69872400D02*
X60199200Y-78272400D01*
X60199200Y-69872400D02*
X66699200Y-69872400D01*
X66699200Y-69872400D02*
X66699200Y-78272400D01*
%TO.C,R2-1*%
X57875700Y-64923124D02*
X57875700Y-64413676D01*
X56830700Y-64923124D02*
X56830700Y-64413676D01*
%TO.C,D2*%
X61642800Y-50265600D02*
X67042800Y-50265600D01*
X61642800Y-46965600D02*
X61642800Y-50265600D01*
X61642800Y-46965600D02*
X67042800Y-46965600D01*
D11*
%TO.C,U1*%
X57846200Y-69248200D02*
X57846200Y-67848200D01*
X57896200Y-69248200D02*
X57846200Y-69248200D01*
X52746200Y-69248200D02*
X52891200Y-69248200D01*
X57896200Y-73398200D02*
X57751200Y-73398200D01*
X52746200Y-73398200D02*
X52891200Y-73398200D01*
X57896200Y-69248200D02*
X57896200Y-73398200D01*
X52746200Y-69248200D02*
X52746200Y-73398200D01*
D13*
%TO.C,L1-2*%
X54304800Y-60043600D02*
X52604800Y-60043600D01*
X54304800Y-53443600D02*
X54304800Y-60043600D01*
X47904800Y-60043600D02*
X47904800Y-53443600D01*
X52604800Y-53443600D02*
X54304800Y-53443600D01*
X47904800Y-53443600D02*
X49604800Y-53443600D01*
X49604800Y-60043600D02*
X47904800Y-60043600D01*
%TO.C,R3-2*%
X56932300Y-41148724D02*
X56932300Y-40639276D01*
X57977300Y-41148724D02*
X57977300Y-40639276D01*
%TO.C,C2-2*%
X58871067Y-54307200D02*
X58578533Y-54307200D01*
X58871067Y-53287200D02*
X58578533Y-53287200D01*
%TO.C,C3-2*%
X56644000Y-52736533D02*
X56644000Y-53029067D01*
X55624000Y-52736533D02*
X55624000Y-53029067D01*
%TO.C,J2*%
X46542000Y-45471000D02*
X43882000Y-45471000D01*
X43882000Y-45471000D02*
X43882000Y-42871000D01*
X46542000Y-46741000D02*
X46542000Y-48071000D01*
X46542000Y-42871000D02*
X43882000Y-42871000D01*
X46542000Y-45471000D02*
X46542000Y-42871000D01*
X46542000Y-48071000D02*
X45212000Y-48071000D01*
%TO.C,C2-1*%
X60750667Y-67921600D02*
X60458133Y-67921600D01*
X60750667Y-66901600D02*
X60458133Y-66901600D01*
%TO.C,C4-2*%
X44946180Y-50239200D02*
X44665020Y-50239200D01*
X44946180Y-51259200D02*
X44665020Y-51259200D01*
%TO.C,D1*%
X46739600Y-49048400D02*
X46739600Y-52348400D01*
X46739600Y-52348400D02*
X52139600Y-52348400D01*
X46739600Y-49048400D02*
X52139600Y-49048400D01*
%TD*%
M02*
